<?xml version="1.0" standalone="no"?>
<!DOCTYPE svg PUBLIC "-//W3C//DTD SVG 20010904//EN"
 "http://www.w3.org/TR/2001/REC-SVG-20010904/DTD/svg10.dtd">
<svg version="1.0" xmlns="http://www.w3.org/2000/svg"
 width="1200.000000pt" height="1342.000000pt" viewBox="0 0 1200.000000 1342.000000"
 preserveAspectRatio="xMidYMid meet">

<g transform="translate(0.000000,1342.000000) scale(0.100000,-0.100000)"
fill="#000000" stroke="none">
<path d="M7250 13394 c0 -30 -16 -64 -31 -64 -6 0 -23 9 -38 19 -15 11 -43 22
-63 26 -32 6 -38 4 -53 -19 -14 -21 -16 -36 -9 -74 15 -87 11 -129 -15 -156
-29 -31 -66 -34 -81 -6 -6 11 -23 23 -38 26 -15 4 -37 15 -50 25 -24 18 -57
14 -90 -13 -10 -9 -11 -3 -6 30 8 53 -10 82 -68 111 -24 12 -55 31 -70 43 -25
20 -31 20 -67 8 -23 -7 -51 -10 -68 -6 -71 18 -118 -4 -142 -68 -12 -32 -12
-38 3 -54 24 -27 20 -42 -12 -42 -16 0 -47 -10 -70 -22 -61 -34 -164 -180
-146 -209 11 -19 24 -8 51 44 l28 52 3 -36 c5 -55 -12 -89 -45 -89 -16 0 -39
-3 -52 -7 -23 -6 -23 -8 -17 -74 5 -58 4 -68 -9 -63 -11 5 -15 -1 -15 -20 0
-25 -24 -46 -54 -46 -24 0 -46 29 -46 61 0 37 -12 61 -63 121 -38 45 -38 47
-26 82 11 31 11 38 -1 50 -20 18 -160 49 -174 37 -6 -4 -23 -11 -38 -15 -16
-3 -28 -11 -28 -16 0 -6 -7 -10 -15 -10 -8 0 -15 -9 -15 -21 0 -13 -10 -23
-30 -30 -16 -6 -32 -19 -35 -30 -9 -28 -20 -24 -61 27 -21 25 -50 52 -65 60
-26 13 -29 12 -50 -17 -15 -21 -26 -28 -38 -23 -9 3 -36 10 -60 15 -24 5 -58
19 -75 32 -31 23 -118 61 -166 72 -17 4 -52 -4 -100 -24 -62 -24 -77 -35 -84
-58 -5 -15 -13 -39 -19 -53 -6 -14 -11 -28 -11 -32 -1 -4 -11 -15 -23 -23 -17
-12 -23 -26 -23 -54 0 -35 -4 -41 -36 -56 -35 -16 -40 -16 -98 0 -34 10 -73
26 -88 36 -38 26 -54 24 -68 -11 -12 -30 -19 -34 -53 -31 -9 1 -20 -5 -23 -14
-5 -12 -14 -15 -31 -10 -41 10 -62 -3 -73 -47 -14 -51 -9 -64 29 -71 36 -8 49
-31 33 -58 -20 -31 -14 -64 18 -94 28 -27 30 -27 54 -11 14 9 28 29 32 44 10
49 14 54 30 48 9 -3 33 -6 55 -6 47 0 51 -16 13 -51 -14 -13 -30 -34 -35 -46
-4 -12 -18 -23 -30 -25 -14 -2 -30 -17 -42 -40 -23 -45 -32 -47 -49 -11 -7 15
-33 38 -57 51 -25 13 -60 37 -79 54 -30 26 -41 30 -77 26 -23 -3 -54 -14 -70
-24 -16 -10 -44 -24 -63 -31 -30 -10 -40 -8 -85 14 -29 14 -64 37 -79 50 -38
36 -108 43 -136 15 -19 -19 -25 -20 -54 -10 -18 6 -39 15 -45 21 -10 7 -13 0
-13 -33 0 -33 4 -43 20 -47 20 -5 20 -5 0 -30 -20 -26 -29 -100 -10 -88 23 14
8 -26 -16 -42 -14 -10 -42 -32 -62 -49 -55 -47 -73 -49 -117 -14 -37 29 -87
39 -110 22 -13 -9 -34 -42 -41 -64 -4 -10 -14 -18 -24 -18 -20 0 -50 -31 -50
-52 0 -17 31 -48 49 -48 6 0 17 12 23 28 l12 27 4 -38 c2 -21 10 -41 18 -44
25 -9 15 -33 -16 -40 -68 -13 -68 -94 -1 -166 21 -23 23 -29 11 -37 -22 -14
-105 -30 -150 -30 -36 0 -40 -3 -40 -25 0 -14 -8 -29 -20 -35 -11 -6 -29 -28
-40 -49 -14 -29 -28 -41 -50 -46 -23 -5 -30 -12 -30 -30 0 -23 -17 -35 -50
-35 -12 0 -19 -10 -24 -37 -9 -56 -7 -93 4 -93 21 0 9 -49 -31 -126 -31 -62
-39 -86 -34 -111 6 -34 -7 -45 -22 -19 -4 7 -18 18 -31 25 -12 7 -34 37 -47
67 -24 53 -25 54 -66 54 -30 0 -54 -8 -81 -26 -39 -27 -62 -74 -40 -82 7 -2
12 -10 12 -17 0 -7 7 -15 15 -19 24 -9 18 -42 -15 -79 -38 -44 -39 -60 -2 -51
24 7 26 6 13 -9 -7 -10 -19 -17 -27 -17 -7 0 -18 -9 -24 -19 -6 -13 -25 -22
-54 -26 -38 -6 -45 -11 -48 -33 -4 -34 -35 -53 -49 -29 -7 11 -22 17 -45 17
-28 0 -36 -5 -44 -25 -10 -26 -4 -82 11 -101 14 -17 -1 -24 -53 -24 -38 0 -48
-3 -48 -17 0 -15 -55 -73 -70 -73 -3 0 -12 6 -19 13 -11 10 -13 8 -8 -10 6
-25 -2 -30 -20 -12 -9 9 -23 3 -55 -22 -24 -18 -45 -34 -47 -35 -2 -2 10 -21
27 -42 46 -58 56 -90 41 -134 -10 -31 -9 -42 7 -75 16 -31 25 -39 52 -41 19
-2 41 0 50 4 10 4 58 6 108 5 58 -2 94 1 98 8 8 12 64 15 90 5 14 -5 13 -11
-5 -46 -11 -22 -18 -47 -15 -55 5 -12 10 -12 37 4 17 10 36 28 42 41 8 17 18
22 36 20 23 -3 26 -8 29 -51 3 -39 -4 -64 -34 -127 -34 -74 -38 -104 -11 -95
10 3 61 -56 75 -87 2 -4 -15 -16 -38 -28 -35 -18 -41 -25 -36 -45 8 -30 -12
-35 -151 -36 -59 0 -115 -5 -125 -10 -12 -6 -25 -6 -39 2 -17 8 -42 7 -110 -6
-72 -14 -94 -15 -118 -5 -27 11 -69 6 -81 -9 -3 -4 -41 -15 -85 -25 -113 -25
-115 -26 -115 -41 0 -8 -12 -18 -28 -21 -51 -13 -122 -54 -122 -72 0 -38 -16
-45 -44 -19 -22 21 -71 39 -110 41 -5 1 -17 -12 -26 -29 -10 -18 -26 -31 -41
-33 -13 -2 -28 -8 -34 -13 -5 -5 -17 -9 -27 -9 -22 0 -23 -13 -3 -30 23 -19
18 -38 -12 -42 -27 -3 -28 -6 -28 -55 0 -28 -4 -55 -8 -59 -13 -13 -7 -23 20
-36 15 -7 42 -33 61 -58 31 -41 34 -49 28 -95 -5 -42 -2 -57 19 -90 13 -22 25
-48 25 -57 0 -19 -37 -42 -88 -53 -17 -3 -32 -11 -32 -16 0 -4 -14 -16 -31
-25 -32 -16 -48 -9 -49 23 0 12 -38 43 -53 43 -5 0 -5 -9 -2 -20 6 -19 3 -20
-37 -14 -53 8 -55 10 -39 36 11 18 9 24 -15 49 -15 16 -31 29 -35 29 -8 0 -59
-81 -59 -93 0 -4 16 -7 35 -7 43 0 47 -23 10 -52 -20 -16 -25 -28 -25 -64 0
-29 -5 -46 -14 -50 -31 -12 -26 -36 15 -75 48 -46 48 -47 -48 -116 -72 -51
-83 -67 -76 -106 4 -19 -2 -38 -21 -65 -32 -47 -33 -65 -1 -82 32 -17 32 -40
0 -70 -37 -34 -32 -50 14 -50 31 0 41 5 46 19 3 11 15 23 26 26 10 4 19 10 19
15 0 5 7 15 15 24 18 17 66 12 102 -11 19 -13 23 -12 32 6 6 11 11 36 11 55 0
27 4 36 17 36 24 0 101 -48 113 -71 6 -11 32 -30 58 -42 41 -20 47 -26 45 -52
-3 -40 -34 -78 -72 -89 -24 -7 -31 -15 -31 -33 0 -33 26 -40 54 -14 l23 21 18
-20 c22 -24 43 -25 81 -5 38 20 66 20 38 0 -26 -17 -43 -56 -58 -132 -10 -52
-14 -58 -38 -61 -33 -4 -33 -3 -8 -44 23 -38 25 -58 7 -58 -7 0 -26 27 -42 60
-16 34 -35 66 -42 72 -8 6 -51 8 -127 3 l-115 -7 6 -29 c7 -35 -3 -37 -35 -6
-19 17 -36 22 -85 23 -83 2 -83 2 -69 16 16 16 15 23 -4 42 -20 20 -64 21 -64
1 0 -8 -9 -19 -20 -25 -26 -14 -26 -61 0 -85 21 -19 27 -55 10 -55 -5 0 -10
-17 -10 -38 0 -36 -3 -40 -40 -57 -48 -22 -58 -50 -35 -94 14 -28 14 -32 1
-37 -9 -3 -23 2 -32 11 -9 9 -23 14 -31 11 -8 -3 -17 -6 -19 -6 -2 0 -4 -9 -4
-20 0 -11 4 -20 8 -20 5 0 16 -6 26 -13 17 -13 16 -15 -18 -35 -45 -27 -47
-57 -6 -97 30 -29 39 -55 20 -55 -6 0 -8 -11 -4 -26 7 -26 5 -27 -22 -20 -16
4 -39 17 -52 29 -19 18 -26 19 -42 9 -11 -7 -33 -12 -50 -12 -22 0 -30 -5 -30
-18 0 -10 5 -23 12 -30 13 -13 -8 -45 -26 -39 -23 9 -47 -14 -44 -41 2 -21 -3
-30 -24 -40 -29 -14 -35 -26 -18 -37 17 -11 0 -25 -30 -25 -42 0 -57 -9 -80
-46 -18 -27 -19 -37 -9 -55 15 -30 5 -107 -21 -158 -14 -29 -36 -50 -75 -72
-59 -33 -125 -100 -125 -126 0 -9 10 -27 21 -39 12 -13 27 -34 33 -46 8 -16
27 -27 66 -36 30 -8 57 -16 59 -18 2 -2 -8 -22 -23 -44 -32 -48 -35 -90 -7
-90 17 0 20 -8 23 -52 2 -44 7 -53 23 -57 11 -2 22 -6 25 -10 3 -3 19 -13 35
-21 17 -9 38 -30 47 -49 9 -18 26 -40 39 -49 21 -14 23 -13 55 25 19 23 45 44
59 47 18 5 25 13 25 30 0 25 20 39 44 30 10 -4 13 -16 10 -37 -5 -28 0 -37 43
-73 62 -53 88 -66 121 -62 24 3 27 8 30 45 4 54 24 61 74 26 39 -26 40 -26 69
-9 17 10 33 16 35 13 3 -3 -4 -24 -16 -47 -12 -23 -20 -43 -18 -44 2 -1 15
-10 31 -19 22 -14 26 -23 21 -42 l-6 -25 29 17 c16 9 37 14 46 10 15 -6 15
-11 -4 -61 -20 -52 -21 -57 -5 -80 19 -30 36 -26 60 15 11 19 29 32 47 36 40
8 52 34 44 94 -8 56 6 66 30 20 8 -16 20 -31 27 -34 9 -3 6 -11 -9 -29 -13
-13 -23 -28 -23 -32 0 -9 -24 -40 -92 -119 -69 -80 -70 -82 -48 -102 19 -17
21 -17 38 -2 27 24 32 21 32 -18 0 -34 1 -35 37 -35 20 0 51 -5 69 -12 27 -10
39 -9 73 6 46 21 61 16 61 -24 0 -23 -7 -33 -32 -46 -30 -16 -31 -17 -13 -30
22 -16 54 -18 89 -4 17 6 27 6 32 -1 3 -6 12 -8 20 -5 9 3 20 -7 30 -27 21
-39 33 -48 60 -41 30 8 35 -6 23 -52 -14 -48 -15 -50 -34 -34 -36 30 -146
-141 -144 -222 1 -24 0 -52 -2 -63 -5 -27 31 -32 76 -11 43 21 65 12 65 -25 0
-18 6 -32 16 -36 12 -4 14 -14 10 -38 -5 -27 -3 -33 14 -38 21 -5 29 -50 10
-62 -6 -3 -10 -14 -10 -22 0 -13 6 -11 28 9 15 15 51 36 80 47 46 18 52 19 52
5 0 -27 -39 -81 -88 -123 -43 -37 -45 -41 -30 -58 9 -10 26 -38 38 -62 l22
-45 22 44 c20 41 24 45 81 56 33 7 78 20 100 28 42 15 55 13 55 -8 0 -23 42
-35 67 -18 28 18 53 9 53 -18 0 -27 15 -56 51 -98 34 -38 37 -56 9 -47 -15 5
-24 -2 -40 -27 -11 -18 -20 -42 -20 -53 1 -18 2 -18 22 5 l21 25 -6 -38 c-3
-22 -18 -54 -32 -73 -14 -19 -23 -39 -20 -44 10 -17 78 -11 111 9 17 10 46 22
65 26 49 10 57 20 64 78 11 91 16 107 40 123 33 22 111 9 140 -22 21 -23 24
-23 51 -9 39 20 152 20 192 -1 18 -8 44 -14 59 -12 26 3 28 6 25 47 -1 24 1
48 6 55 5 6 12 28 16 49 4 20 10 37 15 37 4 0 17 -13 29 -30 29 -39 38 -38 46
5 5 27 2 44 -13 69 -27 43 -26 52 4 60 15 4 25 14 25 25 0 10 14 37 31 61 l32
44 34 -38 c48 -52 43 -79 -17 -86 l-45 -5 -1 -50 c0 -27 -4 -63 -8 -78 l-8
-28 41 7 c38 6 41 5 41 -16 0 -37 23 -17 34 31 10 39 15 44 41 47 17 2 34 8
40 13 15 15 25 10 25 -11 0 -13 7 -20 18 -20 28 0 42 21 42 63 0 47 23 47 28
-1 2 -24 -3 -38 -24 -57 -27 -25 -27 -25 -8 -46 10 -12 31 -27 46 -35 19 -10
28 -22 28 -38 0 -26 24 -51 40 -41 5 3 10 13 10 21 0 9 9 36 19 62 10 26 26
68 36 94 9 27 20 48 25 48 4 0 10 -18 13 -41 7 -50 12 -56 32 -35 11 11 34 16
75 16 52 0 61 3 79 28 l21 27 19 -25 c19 -23 20 -24 39 -7 10 9 24 17 30 17
22 0 12 -31 -23 -75 -40 -49 -58 -115 -32 -115 9 0 20 7 25 16 7 12 26 16 78
18 85 2 102 10 78 37 -9 10 -26 19 -37 19 -14 0 -17 4 -12 18 4 9 10 27 12 40
7 29 20 37 38 22 11 -10 18 -5 35 22 27 44 26 48 -15 48 -39 0 -47 17 -49 97
-1 48 12 63 55 63 27 0 54 22 42 33 -3 4 -17 7 -30 7 -28 0 -27 0 -6 45 16 34
16 36 -6 58 l-22 24 27 42 c34 51 78 59 120 20 34 -31 79 -25 110 16 16 21 35
35 48 35 34 0 114 58 142 101 24 38 68 69 99 69 9 0 25 -15 36 -34 11 -19 29
-36 39 -39 16 -4 20 -14 20 -52 0 -31 7 -60 21 -81 20 -33 20 -33 0 -53 -21
-21 -51 -108 -51 -148 0 -24 14 -31 25 -13 3 6 15 10 25 10 10 0 23 7 28 16
13 23 46 13 50 -14 5 -34 24 -26 57 25 48 74 97 91 55 20 -29 -48 -24 -84 10
-78 73 13 83 9 96 -39 6 -25 19 -58 28 -75 9 -16 16 -36 16 -42 0 -29 29 -10
51 32 38 73 54 62 120 -85 43 -95 61 -148 73 -220 25 -150 39 -309 33 -384 -5
-62 -3 -74 23 -126 16 -31 38 -94 50 -140 12 -45 30 -106 41 -134 17 -42 22
-89 30 -256 10 -230 20 -324 48 -455 21 -98 42 -265 34 -277 -2 -5 -59 -8
-126 -8 l-122 0 -365 -365 c-201 -201 -368 -365 -372 -365 -5 0 -8 164 -8 365
l0 365 -100 0 -100 0 0 -760 0 -760 100 0 100 0 0 264 0 264 124 116 125 117
40 -58 c23 -32 142 -202 264 -378 l224 -320 136 -3 137 -3 -325 453 -325 453
297 292 c164 161 302 291 308 289 13 -4 68 -216 111 -431 24 -123 57 -244 104
-385 100 -298 113 -377 135 -815 8 -170 23 -432 32 -581 16 -270 16 -272 -6
-450 -12 -98 -24 -194 -28 -212 l-5 -32 382 0 383 0 -27 33 c-69 84 -126 218
-146 343 -6 32 -17 196 -25 364 -17 337 -27 449 -56 590 -28 136 -49 282 -49
339 l0 50 -42 3 -41 3 -25 75 c-14 41 -30 78 -36 82 -20 13 -194 9 -203 -4 -4
-7 -20 -44 -34 -83 -22 -62 -29 -70 -53 -73 -16 -2 -32 0 -36 5 -5 4 36 125
89 268 l98 260 44 3 45 3 88 -248 c49 -136 92 -252 96 -256 4 -5 5 60 3 145
-7 203 9 380 43 483 22 69 27 107 35 275 5 107 18 256 29 330 11 74 31 241 45
370 32 299 40 364 71 535 54 300 96 509 116 573 47 154 122 250 264 334 44 26
97 65 119 88 22 23 83 71 135 107 52 37 121 91 154 122 96 92 289 318 315 369
46 91 114 207 134 229 12 14 23 45 28 80 4 31 24 89 44 129 34 70 59 105 229
326 42 54 107 152 147 218 39 66 81 133 93 148 13 15 29 44 35 64 7 20 37 79
68 130 31 51 72 127 90 168 19 41 40 86 47 100 8 14 17 41 21 60 4 19 16 53
28 75 28 57 37 89 47 183 5 46 13 89 18 95 5 7 13 28 17 47 10 47 31 87 71
134 42 49 42 64 3 99 -30 26 -36 56 -12 64 7 3 18 -7 24 -21 14 -31 26 -32 58
-7 24 18 24 19 7 46 -21 32 -16 41 12 24 17 -10 25 -10 46 4 31 21 34 53 5 62
-16 5 -19 12 -15 31 4 13 2 34 -4 45 -16 29 4 49 47 49 65 0 99 39 81 92 -7
20 -5 35 8 60 10 18 25 60 33 92 9 33 21 61 28 63 12 4 33 -77 33 -133 0 -27
-5 -36 -23 -43 -13 -5 -28 -16 -35 -24 -17 -20 1 -32 44 -28 27 2 35 -3 54
-34 13 -20 54 -59 91 -87 38 -27 69 -52 69 -55 0 -3 -18 -25 -40 -50 -46 -52
-70 -117 -52 -135 7 -7 12 -22 12 -35 0 -24 14 -31 25 -13 3 6 11 10 17 10 10
0 9 -7 -8 -68 -6 -22 -4 -23 27 -20 34 3 34 3 31 50 -3 50 8 67 28 43 17 -20
49 -19 57 1 4 11 -1 22 -13 31 -19 14 -19 15 1 29 29 21 71 15 67 -11 -1 -11
-5 -42 -9 -69 -5 -38 -3 -48 7 -44 8 2 19 19 25 38 6 19 16 35 22 37 20 7 24
-34 7 -76 -9 -23 -14 -45 -10 -48 8 -9 66 47 66 64 0 26 18 12 44 -32 16 -26
34 -45 44 -45 10 0 28 -7 40 -16 l23 -16 -30 -33 c-42 -48 -47 -72 -22 -99 29
-31 26 -46 -8 -46 -16 0 -31 -6 -35 -15 -3 -8 -16 -15 -30 -15 -17 0 -37 -15
-66 -50 -29 -35 -49 -50 -66 -50 -26 0 -44 -27 -26 -39 5 -3 12 -19 14 -36 2
-24 9 -30 36 -36 45 -9 59 -24 42 -44 -7 -8 -11 -18 -8 -20 10 -10 37 7 43 26
7 20 25 27 25 9 0 -5 9 -19 21 -31 19 -19 22 -19 44 -5 27 18 55 12 55 -13 0
-9 5 -23 10 -31 9 -13 13 -12 30 8 11 13 24 41 30 63 6 21 17 39 24 39 8 0 19
14 25 30 13 39 41 40 41 1 0 -36 22 -46 61 -25 34 17 48 42 29 54 -7 4 -9 16
-5 29 5 16 14 21 40 21 43 0 65 -9 65 -26 0 -26 29 -14 32 13 3 26 8 29 63 39
33 6 70 16 82 23 27 14 39 52 25 78 -9 14 -5 20 19 30 36 15 37 30 3 44 -25 9
-26 11 -11 27 15 16 15 20 2 40 -9 11 -14 25 -13 29 1 4 -3 18 -10 31 -18 31
-8 42 42 42 23 0 51 7 62 15 30 23 0 37 -68 31 -34 -3 -60 -1 -63 5 -18 28
-95 -30 -95 -72 0 -40 -23 -54 -60 -39 -16 7 -30 16 -30 21 0 14 -117 129
-132 129 -7 0 -19 -9 -26 -20 -7 -11 -17 -20 -24 -20 -6 0 -19 -7 -29 -16 -22
-20 -49 -12 -49 15 0 11 -4 23 -10 26 -5 3 -7 18 -4 34 8 39 -19 86 -56 99
-19 7 -30 18 -30 30 0 17 10 20 73 26 39 4 80 9 90 12 13 4 17 -1 17 -25 0
-36 12 -45 47 -36 21 5 24 10 20 33 -3 16 1 35 9 46 8 11 14 26 14 34 0 21 53
101 68 102 6 0 12 -4 12 -10 0 -5 9 -10 20 -10 22 0 27 25 7 33 -16 6 -42 81
-33 96 4 6 16 11 26 11 26 0 93 47 102 72 6 16 14 18 37 13 24 -5 32 -1 51 24
26 38 33 38 48 6 6 -14 18 -25 26 -25 21 0 66 58 66 84 0 13 9 35 20 49 14 18
19 34 14 51 -6 26 8 36 21 16 3 -5 15 -10 25 -10 11 0 37 -9 59 -21 23 -12 48
-18 60 -14 26 8 36 -11 12 -24 -28 -15 -64 -14 -87 4 -10 8 -28 15 -38 15 -18
0 -18 -1 -1 -20 23 -25 14 -46 -24 -55 -35 -7 -42 -25 -11 -25 28 0 25 -15 -7
-40 -16 -12 -33 -31 -40 -43 -9 -18 -20 -22 -68 -22 -54 0 -59 -2 -86 -35 -34
-43 -40 -73 -17 -78 11 -2 23 8 32 27 14 27 20 29 63 28 27 -1 61 2 77 7 l29
9 -7 -42 c-3 -23 -15 -58 -26 -79 -31 -57 -27 -60 46 -37 16 5 23 0 33 -21 11
-24 9 -30 -12 -53 -14 -14 -33 -42 -42 -61 -26 -51 -37 -63 -45 -49 -11 17
-27 3 -50 -41 -26 -50 -25 -67 3 -81 27 -15 145 -15 160 0 19 19 45 12 49 -11
2 -18 11 -24 38 -28 46 -7 82 0 77 14 -2 6 -17 12 -33 14 -16 2 -33 8 -38 13
-14 12 62 42 90 35 16 -4 27 0 38 15 l15 22 31 -27 c35 -29 50 -32 68 -14 20
20 14 36 -15 43 -16 3 -50 26 -76 51 l-49 44 20 39 c21 39 21 40 1 64 -10 14
-19 30 -19 35 0 16 48 50 80 57 16 3 36 17 44 31 13 18 25 24 55 24 82 0 115
16 170 84 7 10 20 15 29 11 11 -4 26 5 44 27 26 31 28 32 34 11 4 -14 18 -24
45 -31 43 -11 62 1 29 18 -30 16 -25 55 10 87 17 14 30 35 30 45 0 27 35 22
48 -8 9 -18 19 -24 35 -22 20 3 22 8 19 52 -2 49 9 76 33 76 8 0 20 -28 29
-68 21 -85 28 -96 55 -87 22 7 28 29 11 40 -5 3 -10 22 -10 41 l0 34 88 0 c61
-1 93 -5 106 -15 11 -8 32 -15 48 -15 23 0 28 4 28 24 0 17 -7 27 -22 31 -13
4 -33 19 -44 33 -17 20 -33 27 -75 32 -55 5 -69 21 -27 30 13 3 24 13 26 22 4
23 -33 41 -69 33 -38 -8 -37 5 2 50 25 28 29 38 19 49 -9 12 -6 18 14 31 35
23 23 38 -24 30 -38 -6 -77 6 -92 29 -13 20 -9 26 20 26 15 0 50 14 77 30 86
51 117 39 131 -49 7 -42 28 -56 38 -23 16 57 17 99 2 112 -20 16 -20 34 -1 50
32 27 9 63 -88 134 -31 22 -36 31 -26 42 6 8 20 14 30 14 11 0 19 5 19 10 0 6
7 10 15 10 11 0 15 -11 15 -35 0 -34 1 -35 23 -23 12 7 40 18 62 23 36 10 40
15 43 44 5 45 -5 81 -22 81 -26 0 -38 26 -28 62 8 31 11 33 47 31 21 -2 48
-10 59 -18 12 -9 39 -29 61 -46 22 -16 55 -37 73 -45 30 -14 32 -17 32 -69 0
-82 25 -73 93 35 12 19 33 37 45 40 l24 5 -24 22 c-13 12 -34 27 -48 33 -62
27 -69 34 -54 55 15 20 19 93 6 110 -4 6 -16 15 -27 21 -11 6 -26 23 -33 37
-9 18 -21 27 -37 27 -13 0 -27 5 -30 10 -12 20 -71 10 -110 -17 -50 -36 -133
-122 -141 -145 -5 -17 -8 -17 -36 7 -16 14 -34 25 -39 25 -13 0 -28 -43 -27
-72 1 -13 1 -40 0 -62 -2 -31 -5 -36 -16 -27 -10 9 -16 8 -26 -4 -7 -8 -19
-15 -26 -15 -8 0 -14 -10 -15 -22 0 -14 -17 -37 -39 -56 l-39 -33 -12 22 c-10
19 -9 25 6 35 24 18 30 84 12 146 -25 83 -28 105 -21 148 4 25 12 40 21 40 19
0 74 -28 100 -52 32 -30 49 -17 57 43 4 29 13 67 21 85 12 28 11 52 -3 164
-14 121 -18 133 -39 143 -13 5 -23 18 -23 28 0 25 -36 42 -75 36 -32 -5 -33
-4 -38 35 -6 43 -26 73 -34 51 -10 -26 -22 -11 -25 30 -3 39 -7 44 -50 67 -26
14 -58 36 -71 48 -13 12 -30 22 -38 22 -8 0 -20 5 -27 12 -18 18 -83 39 -127
41 -44 2 -52 16 -54 99 -1 41 3 49 28 67 16 12 34 21 40 21 17 0 24 46 10 71
-7 13 -29 45 -51 72 -21 27 -38 55 -38 63 0 7 -9 30 -21 50 -14 26 -17 40 -10
47 16 16 13 64 -3 70 -8 3 -17 24 -21 46 -4 22 -13 45 -21 52 -8 6 -14 19 -14
28 0 9 -5 33 -10 53 -10 33 -15 38 -53 45 -34 7 -45 14 -57 41 -10 23 -23 35
-42 39 -15 3 -28 10 -28 15 0 6 -7 5 -15 -2 -10 -9 -15 -9 -15 -1 0 6 -9 11
-20 11 -22 0 -44 30 -54 72 -4 18 -21 37 -47 54 -48 30 -48 54 -1 66 54 14 39
48 -41 91 -26 14 -54 24 -62 20 -10 -3 -15 2 -15 16 0 16 -10 26 -36 37 -52
22 -67 15 -79 -32 -14 -56 -31 -74 -72 -74 -26 0 -44 -10 -82 -45 l-49 -46
-21 27 c-26 34 -27 76 -1 99 29 27 25 42 -19 65 -22 11 -44 27 -49 36 -6 11
-11 13 -16 5 -8 -13 -46 -15 -46 -3 0 4 5 13 10 18 6 6 12 26 15 44 5 38 14
46 66 54 42 7 64 32 48 57 -13 22 -11 29 11 29 31 0 60 39 60 80 0 56 16 69
89 72 61 3 65 4 72 31 9 33 -12 110 -37 138 -28 31 -67 24 -114 -22 -36 -35
-47 -40 -74 -36 -41 6 -56 0 -56 -23 0 -11 -11 -31 -25 -46 -14 -15 -25 -31
-25 -35 0 -5 -8 -9 -17 -9 -13 0 -14 3 -5 12 16 16 15 39 -2 32 -9 -4 -15 7
-19 36 -6 48 -14 60 -26 41 -5 -7 -14 -10 -20 -6 -9 5 -9 10 -1 21 9 10 8 24
-5 58 -22 57 -56 70 -164 64 -42 -3 -85 -2 -96 3 -11 4 -29 10 -39 14 -15 4
-17 8 -8 17 7 7 12 24 12 40 0 15 9 45 21 67 44 86 -33 118 -120 50 -20 -16
-34 -19 -68 -14 -44 6 -49 4 -86 -48 -7 -10 -29 -22 -50 -27 -35 -7 -37 -7
-31 12 5 18 2 19 -30 16 -36 -3 -52 14 -19 21 39 7 80 49 86 88 9 53 29 77 77
92 l42 12 -7 46 c-5 38 -3 48 14 64 21 20 19 41 -6 71 -12 14 -33 16 -135 14
-105 -2 -122 -5 -134 -21 -8 -10 -14 -26 -14 -34 -1 -34 -28 36 -34 89 -4 30
-14 66 -22 78 -20 31 -72 52 -128 52 -41 0 -45 -2 -51 -30 -4 -16 -10 -30 -15
-30 -4 0 -30 18 -56 41 -40 33 -55 39 -80 35 -20 -3 -40 2 -54 11 -21 15 -24
14 -42 -8 -10 -13 -21 -35 -24 -49 -8 -36 -53 -54 -114 -46 -53 7 -67 -2 -50
-33 5 -11 6 -22 1 -25 -13 -9 -61 41 -61 63 0 21 57 81 76 81 22 0 24 49 4
113 -11 35 -27 70 -34 77 -8 6 -41 13 -73 15 -188 13 -233 18 -233 26 0 4 -9
11 -20 14 -16 5 -20 15 -20 53 0 36 5 50 20 60 14 9 20 23 20 50 0 45 -8 56
-26 41 -11 -9 -16 -5 -24 15 -9 24 -44 46 -73 46 -7 0 -18 -14 -24 -30 -7 -20
-24 -35 -47 -45 -24 -10 -36 -22 -36 -35 0 -35 -21 -67 -56 -84 -48 -22 -77
-20 -104 9 -19 20 -34 25 -88 27 l-65 3 -13 44 c-14 47 -27 61 -60 61 -12 0
-42 11 -68 25 -26 14 -49 25 -52 25 -2 0 -4 -12 -4 -26z m-760 -135 c0 -5 -4
-9 -10 -9 -5 0 -10 7 -10 16 0 8 5 12 10 9 6 -3 10 -10 10 -16z m258 -95 c-10
-10 -28 6 -28 24 0 15 1 15 17 -1 9 -9 14 -19 11 -23z m144 -70 c-7 -12 -11
-13 -17 -4 -4 7 -2 16 6 21 18 11 23 4 11 -17z m206 -55 c8 -69 -36 -99 -87
-60 -26 20 -21 41 9 41 11 0 27 11 37 25 22 29 37 27 41 -6z m-2138 -69 c0 -5
-7 -10 -15 -10 -8 0 -15 5 -15 10 0 6 7 10 15 10 8 0 15 -4 15 -10z m660 -40
c0 -5 -7 -10 -16 -10 -8 0 -12 5 -9 10 3 6 10 10 16 10 5 0 9 -4 9 -10z m1470
-28 c0 -13 -12 -22 -22 -16 -10 6 -1 24 13 24 5 0 9 -4 9 -8z m925 -32 c-35
-37 -68 -41 -63 -8 2 16 12 25 33 29 56 12 59 10 30 -21z m515 -10 c0 -5 -4
-10 -10 -10 -5 0 -10 5 -10 10 0 6 5 10 10 10 6 0 10 -4 10 -10z m-372 -137
c2 -8 -6 -13 -22 -13 -17 0 -26 5 -26 16 0 19 41 16 48 -3z m-1058 -18 c19
-20 21 -27 10 -40 -30 -36 -82 -3 -62 40 14 31 23 31 52 0z m1947 9 c-3 -3
-12 -4 -19 -1 -8 3 -5 6 6 6 11 1 17 -2 13 -5z m113 -43 c0 -6 -4 -13 -10 -16
-5 -3 -10 1 -10 9 0 9 5 16 10 16 6 0 10 -4 10 -9z m-4723 -23 c-3 -8 -6 -5
-6 6 -1 11 2 17 5 13 3 -3 4 -12 1 -19z m4224 -118 l24 -20 -30 2 c-19 2 -31
9 -33 21 -5 23 10 22 39 -3z m-4861 -95 c0 -8 -7 -15 -15 -15 -8 0 -15 7 -15
15 0 8 7 15 15 15 8 0 15 -7 15 -15z m3340 -41 c0 -14 -4 -23 -10 -19 -5 3
-10 15 -10 26 0 10 5 19 10 19 6 0 10 -12 10 -26z m2310 -14 c0 -5 -7 -10 -16
-10 -8 0 -12 5 -9 10 3 6 10 10 16 10 5 0 9 -4 9 -10z m-2375 -11 c4 -5 18
-14 32 -20 26 -10 23 -29 -6 -29 -19 0 -63 45 -54 54 9 9 21 7 28 -5z m1844
-20 c24 -9 35 -8 47 2 14 11 18 10 30 -5 30 -42 -33 -57 -100 -23 -62 32 -47
50 23 26z m-278 -27 c-12 -23 -70 -67 -77 -59 -3 3 13 24 35 48 41 43 62 48
42 11z m735 -1 c-10 -16 -36 -13 -36 3 0 17 21 27 34 16 4 -5 5 -13 2 -19z
m-628 -3 c3 -13 -3 -18 -21 -18 -29 0 -37 7 -30 27 8 19 47 12 51 -9z m-248
-23 c10 -12 10 -18 0 -30 -23 -28 -50 -12 -50 31 0 19 34 18 50 -1z m-1372
-33 c3 -9 -2 -13 -14 -10 -9 1 -19 9 -22 16 -3 9 2 13 14 10 9 -1 19 -9 22
-16z m2000 -214 c-4 -27 -28 -36 -28 -10 0 20 8 32 22 32 5 0 8 -10 6 -22z
m602 -83 c0 -52 -12 -58 -30 -15 -14 34 -8 60 15 60 11 0 15 -11 15 -45z
m-4020 -55 c0 -5 -6 -10 -14 -10 -8 0 -18 5 -21 10 -3 6 3 10 14 10 12 0 21
-4 21 -10z m2874 4 c25 -9 19 -24 -9 -24 -24 0 -32 10 -18 23 8 8 8 8 27 1z
m-554 -237 c0 -37 -28 -34 -50 6 -14 26 -14 29 5 43 18 13 21 13 32 -3 7 -9
13 -30 13 -46z m-367 -56 c24 -41 21 -51 -12 -51 -38 0 -46 14 -31 51 15 36
21 36 43 0z m-3985 -18 c19 -36 -12 -59 -38 -28 -15 18 -6 45 14 45 9 0 19 -8
24 -17z m2452 -22 c-5 -11 -15 -23 -22 -27 -7 -5 -8 -2 -3 7 21 37 44 55 25
20z m-858 -8 c26 -30 37 -58 28 -72 -6 -10 -12 -9 -29 8 -11 11 -25 21 -30 21
-12 0 -24 37 -16 50 9 15 30 12 47 -7z m1462 8 c7 -11 -22 -23 -35 -15 -5 3
-7 10 -4 15 8 12 32 12 39 0z m134 -23 c18 -18 14 -38 -7 -38 -23 0 -35 15
-27 35 7 18 18 19 34 3z m842 -57 c0 -22 -52 -46 -77 -36 -15 6 -13 9 12 20
l30 13 -30 12 -30 13 30 7 c37 8 65 -5 65 -29z m-3795 -111 c0 -44 -29 -54
-46 -16 -9 20 -9 29 1 41 22 27 45 14 45 -25z m-561 24 c17 -6 23 -34 8 -34
-5 0 -17 9 -27 20 -18 20 -11 25 19 14z m5869 -73 c-43 -36 -113 -75 -113 -62
0 5 17 20 38 32 20 12 50 33 66 46 16 13 31 21 35 17 3 -3 -9 -18 -26 -33z
m-5744 20 c23 -15 50 -86 39 -104 -12 -22 -28 -22 -28 0 0 20 -58 83 -77 83
-14 0 -17 12 -6 23 9 10 55 8 72 -2z m5632 -34 c-16 -16 -26 0 -10 19 9 11 15
12 17 4 2 -6 -1 -17 -7 -23z m789 -2 c7 -8 20 -15 28 -15 12 0 13 -3 5 -11 -9
-9 -18 -8 -37 5 -25 16 -35 36 -17 36 5 0 14 -7 21 -15z m-192 -33 c4 -26 -22
-31 -32 -6 -10 26 -7 36 12 32 9 -2 18 -13 20 -26z m-7009 -19 c-15 -18 -34
-1 -25 22 5 14 9 15 21 5 12 -10 13 -16 4 -27z m4606 27 c-3 -5 -10 -10 -16
-10 -5 0 -9 5 -9 10 0 6 7 10 16 10 8 0 12 -4 9 -10z m-3715 -45 c0 -14 -4
-25 -10 -25 -11 0 -14 33 -3 43 11 11 13 8 13 -18z m3819 -9 c9 -10 9 -16 1
-21 -13 -8 -42 14 -34 26 8 13 20 11 33 -5z m2601 -25 c-1 -13 -3 -13 -15 3
-19 26 -19 42 0 26 8 -7 15 -20 15 -29z m-820 -1 c12 -8 9 -10 -12 -10 -15 0
-30 5 -33 10 -8 13 25 13 45 0z m522 -12 c-7 -7 -12 -8 -12 -2 0 14 12 26 19
19 2 -3 -1 -11 -7 -17z m-6662 -48 c0 -5 11 -12 25 -16 32 -8 32 -20 -2 -28
-31 -8 -59 14 -50 38 7 17 27 22 27 6z m4240 -29 c0 -5 -7 -14 -15 -21 -12
-10 -18 -10 -30 0 -8 7 -12 16 -9 21 7 12 54 12 54 0z m360 -82 c0 -5 -11 -9
-25 -9 -26 0 -34 15 -12 23 16 5 37 -3 37 -14z m-4510 -15 c0 -8 -4 -12 -10
-9 -5 3 -10 10 -10 16 0 5 5 9 10 9 6 0 10 -7 10 -16z m2694 7 c9 -15 -23 -36
-36 -23 -5 5 -7 15 -4 21 9 13 33 14 40 2z m4805 -14 c12 -15 5 -27 -16 -27
-7 0 -13 9 -13 20 0 23 13 26 29 7z m-7449 -38 c0 -6 -4 -7 -10 -4 -5 3 -10
11 -10 16 0 6 5 7 10 4 6 -3 10 -11 10 -16z m42 -14 c0 -5 -5 -11 -11 -13 -6
-2 -11 4 -11 13 0 9 5 15 11 13 6 -2 11 -8 11 -13z m1620 -27 c-7 -7 -12 -8
-12 -2 0 14 12 26 19 19 2 -3 -1 -11 -7 -17z m68 12 c0 -5 -4 -10 -10 -10 -5
0 -10 5 -10 10 0 6 5 10 10 10 6 0 10 -4 10 -10z m3455 -30 c10 -16 -5 -50
-21 -50 -8 0 -14 10 -14 23 0 34 21 50 35 27z m-3595 -12 c0 -17 -40 -82 -46
-75 -11 10 17 87 31 87 8 0 15 -6 15 -12z m-2383 -20 c-3 -8 -6 -5 -6 6 -1 11
2 17 5 13 3 -3 4 -12 1 -19z m5766 -17 c4 -18 14 -30 27 -34 18 -5 20 -9 11
-26 -14 -25 -97 -75 -111 -66 -13 8 -13 52 1 61 6 3 20 26 31 50 22 51 33 55
41 15z m-3313 -36 c-7 -9 -15 -13 -18 -10 -3 2 1 11 8 20 7 9 15 13 18 10 3
-2 -1 -11 -8 -20z m-1400 0 c36 -18 39 -35 8 -35 -13 0 -33 -3 -45 -6 -15 -4
-24 0 -33 15 -21 41 15 54 70 26z m98 -24 c3 -8 -1 -12 -9 -9 -7 2 -15 10 -17
17 -3 8 1 12 9 9 7 -2 15 -10 17 -17z m7174 -13 c-7 -7 -12 -8 -12 -2 0 14 12
26 19 19 2 -3 -1 -11 -7 -17z m-7112 -63 c0 -9 -11 -27 -24 -40 -22 -22 -30
-24 -89 -18 -69 6 -89 -4 -61 -31 21 -21 14 -50 -13 -54 -14 -2 -23 -12 -25
-25 -5 -33 -45 -35 -60 -3 -13 30 -33 34 -43 9 -6 -17 -7 -17 -21 1 -20 29
-18 34 24 53 23 11 38 26 40 39 2 16 20 29 60 47 49 22 67 25 123 20 44 -4 69
-2 73 6 10 15 16 14 16 -4z m2158 -14 c3 -8 -1 -12 -9 -9 -7 2 -15 10 -17 17
-3 8 1 12 9 9 7 -2 15 -10 17 -17z m1892 9 c0 -5 -12 -10 -27 -10 -22 0 -25 2
-13 10 20 13 40 13 40 0z m-3240 -34 c0 -8 -4 -18 -10 -21 -5 -3 -10 3 -10 14
0 12 5 21 10 21 6 0 10 -6 10 -14z m3630 -6 c0 -5 -7 -10 -16 -10 -8 0 -12 5
-9 10 3 6 10 10 16 10 5 0 9 -4 9 -10z m-5870 -30 c0 -5 -7 -10 -15 -10 -8 0
-15 5 -15 10 0 6 7 10 15 10 8 0 15 -4 15 -10z m2907 -26 c9 -25 -13 -40 -26
-16 -10 19 -6 32 11 32 5 0 11 -7 15 -16z m-2041 -39 c10 -8 26 -15 35 -15 30
0 79 -31 79 -49 0 -10 -9 -26 -20 -36 -11 -10 -20 -29 -20 -42 0 -28 -15 -29
-60 -2 -65 39 -79 57 -73 98 9 67 20 76 59 46z m4964 5 c0 -12 -38 -32 -52
-28 -14 5 19 38 38 38 8 0 14 -4 14 -10z m1370 0 c0 -5 -7 -10 -15 -10 -8 0
-15 5 -15 10 0 6 7 10 15 10 8 0 15 -4 15 -10z m-6492 -26 c12 -8 27 -24 32
-35 9 -16 7 -19 -10 -19 -23 0 -60 33 -60 55 0 19 10 19 38 -1z m-198 -91 c14
-7 42 -13 63 -13 39 0 45 -8 25 -28 -15 -15 -61 -15 -110 -1 -42 11 -47 28
-26 75 l13 27 5 -24 c3 -13 17 -29 30 -36z m3018 -7 c3 -15 0 -17 -20 -11 -30
10 -31 11 -23 25 10 17 39 8 43 -14z m-141 -13 c5 -14 -33 -37 -47 -28 -15 9
9 47 27 43 9 -2 18 -8 20 -15z m-2557 -15 c30 -16 46 -31 50 -48 4 -16 14 -26
28 -28 13 -2 27 -14 32 -26 4 -13 27 -44 49 -70 23 -26 41 -49 41 -52 0 -15
-32 -64 -43 -65 -25 -3 -123 2 -139 7 -28 8 -21 29 15 45 38 17 51 63 20 73
-10 3 -27 22 -38 43 -25 45 -53 56 -90 37 -25 -13 -31 -12 -59 4 -43 25 -47
65 -9 86 40 22 92 19 143 -6z m5395 2 c-10 -15 -76 -30 -94 -20 -14 7 -14 9
-1 14 48 16 104 20 95 6z m1935 -13 c0 -8 -11 -19 -25 -25 -20 -9 -25 -19 -25
-47 0 -38 -14 -47 -23 -15 -3 14 -17 21 -46 26 -51 8 -48 21 9 51 48 26 110
31 110 10z m-3460 -28 c35 -24 52 -29 77 -25 37 5 50 -6 28 -24 -17 -14 -20
-40 -6 -40 6 0 13 5 16 10 4 6 11 8 16 4 13 -8 -5 -29 -58 -65 -28 -20 -45
-40 -51 -62 -8 -30 -12 -32 -55 -35 l-48 -3 -24 56 c-14 30 -25 60 -25 65 0 6
16 10 35 10 24 0 37 6 45 19 15 29 12 81 -5 87 -18 7 -20 34 -2 34 6 0 32 -14
57 -31z m-1260 -4 c10 -11 9 -24 -3 -59 -11 -33 -12 -46 -4 -49 18 -7 -11 -32
-50 -45 -31 -10 -46 -1 -23 13 7 4 8 24 5 50 -12 74 38 134 75 90z m2613 -22
c13 -13 -16 -33 -49 -33 -41 0 -44 15 -6 28 33 13 47 14 55 5z m1677 -9 c0 -8
-4 -12 -10 -9 -5 3 -10 10 -10 16 0 5 5 9 10 9 6 0 10 -7 10 -16z m314 -36
c20 -29 11 -41 -27 -32 -46 9 -50 14 -31 35 22 25 39 24 58 -3z m-1943 -14
c10 -13 10 -17 -2 -25 -20 -13 -34 -6 -37 19 -4 26 19 30 39 6z m1663 6 c16
-6 26 -17 26 -29 0 -23 -23 -34 -38 -19 -8 8 -22 8 -50 0 -22 -7 -42 -12 -46
-12 -10 0 -27 50 -20 61 7 12 96 12 128 -1z m-2110 -43 c-7 -18 -24 -23 -24
-8 0 22 13 42 22 33 5 -5 6 -16 2 -25z m284 -25 c-2 -14 -8 -27 -15 -29 -14
-5 -28 40 -19 63 10 25 38 -3 34 -34z m2427 38 c3 -5 2 -10 -4 -10 -5 0 -13 5
-16 10 -3 6 -2 10 4 10 5 0 13 -4 16 -10z m-2365 -25 c0 -16 -6 -25 -15 -25
-15 0 -21 31 -8 43 13 14 23 6 23 -18z m-212 -7 c-6 -16 -36 -34 -44 -25 -9 9
15 37 33 37 8 0 13 -5 11 -12z m1712 -18 c0 -5 -7 -10 -16 -10 -8 0 -12 5 -9
10 3 6 10 10 16 10 5 0 9 -4 9 -10z m-2522 -26 c16 -5 22 -13 20 -27 -4 -25
-52 -62 -68 -52 -9 6 -9 9 1 16 11 6 11 14 2 39 -12 33 -5 37 45 24z m102 -4
c0 -5 -2 -10 -4 -10 -3 0 -8 5 -11 10 -3 6 -1 10 4 10 6 0 11 -4 11 -10z
m2682 -7 c25 -22 23 -49 -4 -57 -53 -14 -193 0 -191 19 1 13 109 52 147 54 16
0 38 -6 48 -16z m-2042 -8 c0 -14 -91 -88 -99 -80 -11 12 14 58 42 75 38 24
57 25 57 5z m95 -11 c-23 -17 -32 -10 -15 11 7 8 17 12 23 8 6 -4 3 -11 -8
-19z m281 2 c3 -8 0 -24 -6 -36 -9 -18 -9 -28 0 -46 11 -20 9 -29 -19 -70 -31
-47 -35 -59 -31 -101 1 -17 -7 -26 -34 -37 -20 -8 -36 -20 -36 -25 0 -15 47
-44 60 -36 23 14 8 -16 -22 -44 -36 -34 -69 -39 -88 -16 -21 25 -29 17 -32
-32 -3 -47 -3 -48 -46 -55 -62 -10 -68 -17 -36 -43 l29 -23 -50 -22 c-27 -13
-44 -24 -37 -27 17 -7 15 -68 -3 -83 -19 -16 -45 3 -45 31 0 11 -7 19 -15 19
-22 0 -85 -60 -85 -81 0 -24 27 -36 43 -20 16 16 25 14 32 -9 15 -46 -36 -76
-84 -50 -14 7 -24 3 -42 -16 -24 -25 -24 -26 -5 -40 11 -8 29 -14 40 -14 27 0
14 -11 -55 -48 -51 -28 -59 -29 -77 -16 -12 8 -31 12 -45 9 -22 -6 -23 -4 -25
47 0 29 -2 67 -4 83 l-3 30 68 3 c68 3 77 8 55 30 -10 10 -10 17 1 33 11 19 9
25 -20 55 -24 25 -30 37 -22 45 6 6 9 26 6 45 -4 23 0 38 11 49 22 22 12 34
-35 41 -21 4 -39 8 -39 10 0 2 5 14 11 28 9 19 8 29 -5 47 -23 33 -20 45 14
59 17 7 46 31 65 54 26 31 37 38 44 28 4 -8 19 -12 32 -10 19 2 25 10 27 35 2
22 15 42 39 64 45 39 215 123 303 148 80 24 158 27 166 7z m-5451 -6 c3 -5 -1
-10 -9 -10 -9 0 -16 5 -16 10 0 6 4 10 9 10 6 0 13 -4 16 -10z m1745 -25 c11
-10 22 -26 25 -36 4 -11 15 -19 25 -19 25 0 36 -18 16 -26 -23 -9 -20 -41 4
-49 11 -3 20 -11 20 -16 0 -6 -9 -7 -20 -4 -17 5 -20 2 -20 -25 0 -33 -37 -80
-63 -80 -32 0 -87 104 -87 166 0 28 4 35 25 40 31 8 31 15 0 44 -13 12 -22 26
-20 30 7 12 74 -6 95 -25z m3737 13 c-3 -8 -6 -5 -6 6 -1 11 2 17 5 13 3 -3 4
-12 1 -19z m1389 -3 c-22 -16 -46 -20 -46 -7 0 15 13 22 39 22 25 -1 25 -1 7
-15z m394 -17 c0 -25 -3 -29 -10 -18 -13 20 -13 50 0 50 6 0 10 -15 10 -32z
m-5869 -13 c-1 -15 -24 -12 -29 3 -3 9 2 13 12 10 10 -1 17 -7 17 -13z m3169
-36 c23 -44 21 -43 54 -28 20 9 29 9 42 -2 15 -13 28 -15 102 -18 21 -1 32 -6
32 -16 0 -7 8 -18 17 -24 17 -9 16 -11 -5 -34 -13 -13 -45 -37 -73 -51 l-49
-27 -29 20 c-16 12 -41 21 -55 21 -28 0 -65 42 -91 103 -14 33 -14 38 0 43 9
4 15 18 15 36 0 37 14 29 40 -23z m-3464 17 c-3 -14 -3 -32 0 -41 6 -14 9 -13
30 6 19 18 24 19 24 7 0 -23 -21 -36 -67 -44 -49 -7 -85 8 -76 34 11 31 46 62
71 62 21 0 23 -4 18 -24z m-902 -11 c3 -9 -1 -18 -10 -22 -19 -7 -39 11 -30
26 10 16 33 13 40 -4z m240 -2 c3 -10 9 -24 12 -30 3 -8 -1 -13 -10 -13 -18 0
-40 36 -31 50 9 15 22 12 29 -7z m3775 8 c9 -6 10 -10 2 -16 -15 -8 -41 1 -41
15 0 12 20 13 39 1z m206 0 c7 -12 -12 -24 -25 -16 -11 7 -4 25 10 25 5 0 11
-4 15 -9z m-3807 -22 c-2 -6 -8 -10 -13 -10 -5 0 -11 4 -13 10 -2 6 4 11 13
11 9 0 15 -5 13 -11z m6622 -19 c0 -17 6 -39 12 -50 18 -29 -3 -47 -39 -34
-22 7 -29 17 -31 41 -4 41 13 73 38 73 16 0 20 -7 20 -30z m-6703 0 c3 -11 9
-20 14 -20 15 0 10 -30 -6 -36 -8 -4 -15 -14 -15 -24 0 -21 -44 -70 -62 -70
-8 0 -23 7 -36 15 l-22 16 36 36 c20 20 43 51 50 69 16 38 33 44 41 14z m3378
10 c-3 -5 -15 -10 -25 -10 -10 0 -22 5 -25 10 -4 6 7 10 25 10 18 0 29 -4 25
-10z m2955 -19 c0 -25 -20 -38 -31 -20 -6 11 -11 10 -27 -4 -21 -19 -32 -22
-32 -8 0 11 60 51 78 51 6 0 12 -9 12 -19z m-6780 -7 c0 -8 -4 -12 -10 -9 -5
3 -10 10 -10 16 0 5 5 9 10 9 6 0 10 -7 10 -16z m1311 1 c-1 -15 -24 -12 -29
3 -3 9 2 13 12 10 10 -1 17 -7 17 -13z m-63 -19 c5 -23 -14 -44 -28 -30 -12
12 -1 56 14 51 6 -2 13 -12 14 -21z m-938 4 c0 -5 -9 -10 -21 -10 -11 0 -17 5
-14 10 3 6 13 10 21 10 8 0 14 -4 14 -10z m-100 -50 c0 -15 -7 -33 -15 -40
-11 -9 -12 -17 -4 -33 13 -24 6 -101 -11 -122 -19 -23 -66 -19 -84 7 -25 35
-20 58 10 58 62 0 83 44 43 94 -18 23 -19 27 -4 32 9 4 21 18 26 31 8 21 12
23 24 13 8 -7 15 -25 15 -40z m970 29 c0 -11 -4 -18 -10 -14 -5 3 -7 12 -3 20
7 21 13 19 13 -6z m-96 -12 c16 -12 16 -14 -4 -40 -28 -35 -43 -34 -60 6 -7
17 -15 35 -18 40 -7 12 63 8 82 -6z m380 -6 c29 -32 17 -56 -32 -59 -27 -2
-42 1 -42 9 0 7 10 9 28 5 27 -7 27 -7 -6 20 -26 20 -30 29 -20 35 22 15 54
10 72 -10z m2796 5 c0 -8 -4 -18 -10 -21 -5 -3 -10 3 -10 14 0 12 5 21 10 21
6 0 10 -6 10 -14z m2720 -11 c0 -16 -10 -22 -44 -27 -28 -4 -31 21 -4 31 34
14 48 13 48 -4z m-3140 -5 c0 -5 -4 -10 -10 -10 -5 0 -10 5 -10 10 0 6 5 10
10 10 6 0 10 -4 10 -10z m2970 -31 c0 -12 -42 -29 -54 -21 -5 3 1 13 13 24 23
18 41 16 41 -3z m-6249 -14 c0 -5 -9 -11 -21 -13 -15 -3 -18 1 -14 13 7 17 35
17 35 0z m6354 -35 c0 -32 -30 -39 -45 -10 -14 26 -4 42 23 38 16 -2 22 -10
22 -28z m-7165 -5 c0 -15 -6 -25 -14 -25 -19 0 -28 14 -20 34 10 25 34 19 34
-9z m1405 16 c10 -17 -11 -21 -31 -6 -18 14 -18 14 3 15 12 0 24 -4 28 -9z
m5479 -10 c7 -10 -52 -24 -65 -15 -5 3 -7 10 -4 15 8 11 62 12 69 0z m-2564
-25 c0 -18 -8 -27 -29 -34 -23 -8 -32 -20 -41 -51 -10 -37 -13 -40 -30 -31
-21 11 -36 52 -25 69 3 6 14 11 23 11 9 0 33 14 52 30 43 36 50 37 50 6z
m4380 14 c0 -5 -5 -10 -11 -10 -5 0 -7 5 -4 10 3 6 8 10 11 10 2 0 4 -4 4 -10z
m-6980 -15 c0 -8 6 -12 14 -9 23 9 29 -16 10 -37 -14 -15 -16 -25 -8 -47 8
-22 17 -28 52 -33 27 -3 52 -15 69 -31 50 -51 -5 -65 -87 -23 -51 26 -65 19
-33 -17 9 -10 13 -21 9 -26 -12 -12 -66 56 -66 83 0 25 -14 33 -25 15 -17 -28
-54 8 -47 46 3 15 1 25 -4 22 -5 -2 -21 -10 -36 -17 -22 -11 -30 -12 -43 -1
-23 19 -18 37 12 45 15 3 31 11 34 16 3 6 28 14 55 18 77 13 94 12 94 -4z
m4887 -2 c4 -10 -45 -28 -54 -20 -2 3 4 12 13 21 17 18 35 17 41 -1z m-5897
-13 c0 -5 -4 -10 -10 -10 -5 0 -10 5 -10 10 0 6 5 10 10 10 6 0 10 -4 10 -10z
m5158 -2 c22 -22 13 -38 -21 -38 -62 0 -80 -47 -19 -52 32 -3 37 -7 40 -30 3
-28 16 -36 27 -18 12 19 35 10 41 -15 7 -29 29 -33 43 -8 8 15 12 16 35 3 24
-12 28 -12 41 6 17 22 19 7 5 -32 -12 -31 7 -61 43 -66 12 -2 28 -15 35 -30 8
-17 21 -28 33 -28 10 0 19 -7 19 -15 0 -18 57 -50 90 -50 30 0 34 -28 5 -33
-33 -7 -47 -24 -42 -51 6 -28 -5 -55 -36 -88 -21 -24 -61 -23 -82 1 -5 7 -23
17 -40 24 -48 20 -66 63 -77 187 -9 102 -19 138 -34 123 -13 -14 -24 -94 -18
-135 4 -27 2 -48 -5 -57 -9 -11 -9 -19 1 -36 11 -17 11 -22 -2 -30 -31 -20
-45 -7 -42 38 3 49 -11 82 -35 82 -15 0 -15 2 0 18 10 10 17 22 17 25 0 14
-43 6 -67 -13 -26 -20 -89 -37 -100 -26 -3 3 0 12 7 21 10 12 10 15 -4 15 -10
0 -16 9 -16 25 0 14 -4 33 -9 43 -5 9 -12 25 -15 35 -4 13 -16 17 -49 17 -30
0 -53 7 -71 21 -35 27 -33 42 3 34 29 -6 29 -6 24 33 -7 50 5 57 106 66 48 4
86 14 105 26 36 23 48 24 64 8z m-3918 -8 c0 -5 -7 -10 -15 -10 -8 0 -15 5
-15 10 0 6 7 10 15 10 8 0 15 -4 15 -10z m2745 -10 c-3 -5 -10 -10 -16 -10 -5
0 -9 5 -9 10 0 6 7 10 16 10 8 0 12 -4 9 -10z m2047 -35 c-9 -33 -35 -40 -40
-12 -4 21 28 61 40 49 4 -4 4 -21 0 -37z m-5692 25 c0 -5 -4 -10 -10 -10 -5 0
-10 5 -10 10 0 6 5 10 10 10 6 0 10 -4 10 -10z m-1000 -29 c-12 -23 -29 -35
-37 -27 -7 7 26 46 39 46 5 0 4 -9 -2 -19z m4300 -16 c0 -8 -4 -15 -10 -15 -5
0 -10 7 -10 15 0 8 5 15 10 15 6 0 10 -7 10 -15z m2447 -11 c-9 -9 -28 6 -21
18 4 6 10 6 17 -1 6 -6 8 -13 4 -17z m-5720 0 c-3 -3 -12 -4 -19 -1 -8 3 -5 6
6 6 11 1 17 -2 13 -5z m7167 0 c22 -9 20 -34 -3 -34 -30 0 -51 11 -51 26 0 15
27 18 54 8z m-1950 -12 c6 -11 -21 -52 -35 -52 -13 0 -11 34 3 48 14 14 25 15
32 4z m-5764 -12 c0 -5 -9 -14 -20 -20 -15 -8 -20 -8 -20 3 0 8 3 17 7 20 10
10 33 8 33 -3z m-230 -54 c0 -14 5 -28 10 -31 23 -14 7 -23 -32 -18 -24 3 -45
7 -46 9 -10 7 11 42 31 52 33 16 37 14 37 -12z m698 -24 c2 -7 -3 -12 -12 -12
-9 0 -16 7 -16 16 0 17 22 14 28 -4z m-900 -46 c26 -25 44 -47 41 -51 -4 -3
-20 8 -38 24 -17 16 -34 25 -37 20 -15 -25 -22 -72 -14 -95 5 -13 6 -24 1 -24
-5 0 -11 7 -15 15 -3 10 -19 15 -46 15 -47 0 -53 15 -10 25 34 7 39 29 13 57
-15 17 -15 19 2 38 27 30 51 24 103 -24z m102 34 c0 -5 -4 -10 -10 -10 -5 0
-10 5 -10 10 0 6 5 10 10 10 6 0 10 -4 10 -10z m3330 0 c0 -5 -4 -10 -10 -10
-5 0 -10 5 -10 10 0 6 5 10 10 10 6 0 10 -4 10 -10z m2851 -23 c-8 -8 -11 -7
-11 4 0 9 3 19 7 23 4 4 9 2 11 -4 3 -7 -1 -17 -7 -23z m-5435 -27 c15 0 42
-46 32 -55 -16 -16 -68 43 -68 77 1 8 4 7 11 -4 5 -10 17 -18 25 -18z m2864
22 c0 -13 -12 -22 -22 -16 -10 6 -1 24 13 24 5 0 9 -4 9 -8z m2780 0 c0 -13
-39 -46 -46 -39 -9 9 16 47 31 47 8 0 15 -4 15 -8z m-3150 -12 c0 -5 -7 -10
-16 -10 -8 0 -12 5 -9 10 3 6 10 10 16 10 5 0 9 -4 9 -10z m-560 -44 c-17 -22
-32 -9 -19 16 8 14 14 17 22 9 7 -7 6 -15 -3 -25z m3480 3 c-7 -11 -14 -18
-17 -15 -8 8 5 36 17 36 7 0 7 -6 0 -21z m-7432 -12 c4 -19 -26 -22 -63 -7
-19 8 -19 8 5 18 33 14 54 11 58 -11z m7357 2 c4 -11 5 -23 2 -25 -8 -8 -38
27 -32 37 10 15 23 10 30 -12z m847 -35 c7 -15 20 -24 33 -24 44 0 85 -13 85
-26 0 -32 -43 -44 -129 -37 -67 5 -85 10 -96 27 -20 28 -19 53 4 61 10 3 26
14 36 25 21 23 50 12 67 -26z m-597 26 c3 -5 -1 -10 -9 -10 -8 0 -18 5 -21 10
-3 6 1 10 9 10 8 0 18 -4 21 -10z m-1205 -25 c0 -8 -4 -15 -9 -15 -13 0 -22
16 -14 24 11 11 23 6 23 -9z m3700 -16 c0 -6 -4 -7 -10 -4 -5 3 -10 11 -10 16
0 6 5 7 10 4 6 -3 10 -11 10 -16z m-7726 -14 c9 -34 61 -43 128 -21 62 20 68
20 68 1 0 -19 -55 -47 -94 -49 -48 -2 -45 -31 7 -76 25 -22 48 -51 51 -65 4
-15 16 -27 32 -31 14 -4 30 -17 34 -30 12 -29 31 -31 55 -4 19 21 50 26 60 10
3 -6 -5 -14 -19 -20 -14 -5 -26 -17 -26 -25 0 -9 -5 -25 -10 -36 -9 -15 -15
-17 -29 -9 -17 9 -19 5 -18 -40 2 -35 -3 -54 -15 -67 -17 -16 -18 -16 -18 4 0
12 5 25 10 28 17 10 11 25 -10 25 -12 0 -26 -12 -35 -30 -9 -16 -21 -30 -27
-30 -16 0 -48 -31 -48 -46 0 -9 18 -14 52 -16 63 -4 72 -21 37 -69 -19 -27
-20 -35 -10 -52 10 -16 10 -22 -1 -34 -16 -15 -35 -17 -88 -7 -48 9 -66 27
-91 93 -11 31 -27 63 -35 72 -8 9 -17 33 -21 52 -5 34 -3 37 31 53 20 10 36
24 36 31 0 18 25 17 40 -2 16 -19 30 -10 30 20 0 18 -4 22 -19 18 -10 -3 -29
1 -42 7 -22 12 -22 12 9 26 34 14 44 44 15 44 -45 0 -223 100 -223 126 0 18
12 18 57 -1 20 -9 42 -14 49 -11 7 3 13 34 15 79 4 73 18 107 44 107 7 0 16
-11 19 -25z m466 15 c12 -8 11 -10 -7 -10 -12 0 -25 5 -28 10 -8 13 15 13 35
0z m6530 0 c0 -5 -5 -10 -11 -10 -5 0 -7 5 -4 10 3 6 8 10 11 10 2 0 4 -4 4
-10z m-260 -45 c16 -19 6 -45 -18 -45 -29 0 -48 26 -32 45 16 19 34 19 50 0z
m-8310 -20 c0 -8 -4 -15 -10 -15 -5 0 -10 7 -10 15 0 8 5 15 10 15 6 0 10 -7
10 -15z m3410 6 c47 -14 14 -91 -38 -91 -49 0 -81 57 -50 88 13 13 49 14 88 3z
m-903 -27 c9 -24 -10 -36 -33 -19 -16 13 -17 16 -4 25 21 14 30 12 37 -6z
m1173 6 c0 -5 -9 -10 -21 -10 -11 0 -17 5 -14 10 3 6 13 10 21 10 8 0 14 -4
14 -10z m3065 -10 c3 -5 2 -10 -4 -10 -5 0 -13 5 -16 10 -3 6 -2 10 4 10 5 0
13 -4 16 -10z m880 0 c-3 -5 -15 -10 -26 -10 -10 0 -19 5 -19 10 0 6 12 10 26
10 14 0 23 -4 19 -10z m-6154 -43 c-8 -8 -11 -7 -11 4 0 20 13 34 18 19 3 -7
-1 -17 -7 -23z m474 3 c-3 -5 -10 -10 -16 -10 -5 0 -9 5 -9 10 0 6 7 10 16 10
8 0 12 -4 9 -10z m-1815 -9 c0 -6 -4 -13 -10 -16 -5 -3 -10 -19 -10 -35 0 -36
-21 -32 -39 8 -11 22 -10 28 5 39 21 15 54 17 54 4z m-390 -31 c4 -8 14 -30
24 -49 12 -25 14 -37 6 -45 -8 -8 -14 -6 -21 7 -6 9 -20 17 -31 17 -23 0 -58
26 -58 43 0 38 65 59 80 27z m6138 1 c18 -11 11 -45 -9 -49 -10 -2 -19 6 -22
19 -9 35 4 48 31 30z m1213 -23 c9 -33 1 -68 -15 -68 -22 0 -36 24 -36 63 0
34 3 38 22 35 14 -2 24 -13 29 -30z m487 14 c3 -9 -2 -13 -14 -10 -9 1 -19 9
-22 16 -3 9 2 13 14 10 9 -1 19 -9 22 -16z m-1848 -7 c16 -19 3 -40 -16 -24
-15 13 -19 39 -5 39 5 0 14 -7 21 -15z m1910 8 c0 -13 -54 -63 -67 -63 -9 0
-4 13 14 35 25 31 53 46 53 28z m-680 -43 c12 -16 28 -30 37 -30 30 0 -7 -29
-96 -75 -47 -25 -119 -70 -160 -101 -67 -50 -76 -54 -87 -40 -10 15 -14 13
-34 -18 -29 -48 -70 -80 -84 -66 -7 7 -2 18 19 34 34 27 28 40 -34 77 -20 12
-46 31 -58 42 l-22 20 31 31 c17 17 45 36 62 42 24 9 31 17 31 38 -1 35 13 29
40 -19 19 -35 27 -40 55 -38 45 2 106 31 125 59 20 30 57 55 98 64 51 12 54
12 77 -20z m-2532 -3 c4 -21 -25 -34 -40 -19 -8 8 -8 16 2 27 16 19 34 15 38
-8z m3098 12 c10 -17 -13 -36 -27 -22 -12 12 -4 33 11 33 5 0 12 -5 16 -11z
m-1896 -19 c0 -19 -20 -27 -33 -13 -8 7 11 33 24 33 5 0 9 -9 9 -20z m-5720
-9 c15 -29 12 -43 -7 -39 -21 4 -38 58 -17 58 7 0 18 -9 24 -19z m8280 4 c-7
-8 -16 -12 -21 -9 -13 8 -1 24 18 24 13 0 13 -3 3 -15z m-6233 -27 c-3 -8 -6
-5 -6 6 -1 11 2 17 5 13 3 -3 4 -12 1 -19z m943 -3 c13 -16 7 -45 -9 -45 -14
0 -33 38 -26 50 9 14 21 12 35 -5z m3090 -16 c0 -5 -7 -9 -15 -9 -15 0 -20 12
-9 23 8 8 24 -1 24 -14z m-1760 -9 c0 -25 16 -26 29 -3 11 21 26 11 18 -12 -7
-18 -48 -20 -65 -3 -17 17 -15 38 3 38 8 0 15 -9 15 -20z m-1053 -22 c23 -21
32 -58 14 -58 -10 0 -61 62 -61 73 0 14 25 6 47 -15z m3848 -20 c-9 -43 -11
-43 -42 -32 -37 13 -39 30 -6 48 45 24 56 21 48 -16z m-1865 12 c0 -5 -4 -10
-10 -10 -5 0 -10 5 -10 10 0 6 5 10 10 10 6 0 10 -4 10 -10z m-6140 -20 c0 -5
-7 -10 -15 -10 -8 0 -15 5 -15 10 0 6 7 10 15 10 8 0 15 -4 15 -10z m5830 -4
c0 -15 -26 -46 -39 -46 -18 0 -30 24 -20 42 12 21 59 25 59 4z m-2332 -34 c2
-23 -1 -32 -12 -32 -19 0 -40 36 -32 57 11 27 41 10 44 -25z m472 17 c0 -5 -4
-9 -10 -9 -5 0 -10 7 -10 16 0 8 5 12 10 9 6 -3 10 -10 10 -16z m3930 -14 c0
-27 -25 -45 -63 -45 -14 0 -44 -16 -69 -36 -50 -43 -85 -60 -96 -49 -4 4 -1
10 7 13 8 3 33 22 55 42 47 43 134 100 153 100 7 0 13 -11 13 -25z m-5380 -6
c0 -4 -7 -6 -15 -3 -8 4 -15 10 -15 15 0 4 7 6 15 3 8 -4 15 -10 15 -15z
m1530 8 c0 -7 -5 -18 -12 -25 -7 -7 -18 -12 -25 -12 -17 0 -17 37 0 43 22 10
37 7 37 -6z m530 -7 c0 -18 -3 -19 -20 -10 -11 6 -20 15 -20 20 0 6 9 10 20
10 13 0 20 -7 20 -20z m698 9 c-2 -6 -8 -10 -13 -10 -5 0 -11 4 -13 10 -2 6 4
11 13 11 9 0 15 -5 13 -11z m-1634 -14 c-4 -8 -8 -15 -10 -15 -2 0 -4 7 -4 15
0 8 4 15 10 15 5 0 7 -7 4 -15z m866 -7 c0 -6 14 -23 32 -38 38 -32 32 -54
-12 -39 -39 14 -53 34 -46 64 6 25 26 35 26 13z m-939 -21 c-13 -13 -26 -3
-16 12 3 6 11 8 17 5 6 -4 6 -10 -1 -17z m109 8 c0 -8 -4 -15 -10 -15 -5 0
-10 7 -10 15 0 8 5 15 10 15 6 0 10 -7 10 -15z m220 -10 c0 -24 -24 -45 -36
-32 -5 5 26 56 34 57 1 0 2 -11 2 -25z m-3600 -14 c0 -11 -4 -23 -10 -26 -6
-4 -10 5 -10 19 0 14 5 26 10 26 6 0 10 -9 10 -19z m5320 -12 c0 -20 -21 -49
-35 -49 -23 0 -28 20 -9 41 19 21 44 26 44 8z m-4940 -9 c12 -8 11 -10 -7 -10
-13 0 -23 5 -23 10 0 13 11 13 30 0z m4785 -20 c-5 -8 -11 -8 -17 -2 -6 6 -7
16 -3 22 5 8 11 8 17 2 6 -6 7 -16 3 -22z m4435 20 c0 -5 -7 -10 -16 -10 -8 0
-12 5 -9 10 3 6 10 10 16 10 5 0 9 -4 9 -10z m-5622 -24 c3 -15 1 -16 -17 -6
-12 6 -19 16 -15 21 9 15 28 5 32 -15z m-68 0 c0 -7 -7 -19 -16 -27 -11 -9
-14 -22 -10 -41 5 -24 2 -28 -18 -28 -12 0 -31 9 -41 20 -18 20 -18 21 3 27
12 3 22 9 22 14 0 12 38 49 50 49 6 0 10 -6 10 -14z m1550 -6 c0 -5 -7 -10
-15 -10 -8 0 -15 5 -15 10 0 6 7 10 15 10 8 0 15 -4 15 -10z m1501 -22 c11
-21 11 -22 -4 -9 -10 7 -17 17 -17 22 0 15 9 10 21 -13z m1558 0 c5 -13 7 -25
5 -27 -7 -7 -34 21 -34 35 0 22 20 16 29 -8z m-8006 -7 c6 -25 -9 -48 -43 -66
-40 -21 -54 -19 -89 11 -36 30 -39 44 -11 44 13 0 20 -7 20 -19 0 -23 16 -36
25 -21 3 5 14 10 23 10 10 0 22 13 29 30 13 34 38 40 46 11z m222 -21 c14 -26
13 -32 -17 -90 -32 -61 -32 -61 -68 -55 -19 4 -39 13 -43 21 -5 10 -16 13 -29
8 -30 -9 -15 11 34 47 23 16 51 29 64 29 29 0 36 20 16 43 -14 16 -14 20 -2
27 18 11 27 5 45 -30z m2335 3 c0 -20 -24 -11 -28 10 -2 12 1 15 12 11 9 -3
16 -13 16 -21z m670 12 c0 -8 -4 -15 -10 -15 -5 0 -10 7 -10 15 0 8 5 15 10
15 6 0 10 -7 10 -15z m1420 -19 c-13 -13 -35 7 -25 24 5 8 11 8 21 -1 10 -8
12 -15 4 -23z m78 14 c27 -12 32 -20 32 -47 0 -26 4 -33 20 -33 13 0 24 10 30
25 20 52 73 20 85 -50 4 -22 16 -53 27 -68 25 -35 14 -49 -39 -52 -33 -2 -41
-9 -74 -57 -54 -79 -62 -84 -103 -64 -19 9 -39 16 -46 16 -6 0 -24 7 -41 15
-36 19 -72 5 -67 -27 5 -32 34 -46 54 -26 16 16 20 15 59 -13 l43 -31 -42 -40
c-26 -25 -36 -42 -28 -45 25 -9 12 -25 -17 -20 -29 6 -61 -15 -61 -41 0 -11
69 -8 108 4 22 6 13 -14 -15 -34 -16 -11 -41 -39 -58 -62 -16 -23 -45 -59 -62
-80 -18 -21 -33 -43 -33 -49 0 -17 -30 -13 -36 4 -4 8 -1 22 6 30 20 24 4 30
-26 10 -19 -12 -36 -15 -61 -10 l-35 6 21 23 c40 43 23 108 -36 132 -31 14
-37 13 -60 -1 -14 -9 -34 -37 -44 -61 -16 -35 -25 -44 -44 -44 -16 0 -25 6
-25 15 0 28 38 92 71 119 27 23 37 26 74 20 52 -7 63 5 30 36 -32 30 -32 48 0
60 30 11 33 40 5 47 -28 7 -25 28 6 52 37 29 52 26 69 -15 17 -41 28 -38 53
14 13 27 25 38 47 42 27 5 30 9 27 37 -4 36 10 50 28 28 17 -21 37 -19 43 5 9
36 28 23 21 -15 -6 -35 -6 -35 31 -35 l37 0 -6 43 c-3 23 -9 69 -14 102 -9 59
-5 159 7 152 3 -2 21 -10 39 -17z m3512 10 c0 -5 -4 -10 -10 -10 -5 0 -10 5
-10 10 0 6 5 10 10 10 6 0 10 -4 10 -10z m-4025 -28 c-8 -8 -25 10 -19 20 4 6
9 5 15 -3 4 -7 6 -15 4 -17z m252 11 c8 -20 -39 -63 -69 -63 -11 0 -33 -8 -49
-17 -20 -12 -32 -14 -39 -7 -8 8 5 23 42 51 74 56 104 66 115 36z m-2797 -13
c11 -11 20 -26 20 -32 0 -7 20 -53 45 -102 54 -108 98 -235 93 -273 -2 -20 -9
-29 -26 -31 -29 -4 -49 12 -67 55 -12 29 -19 33 -50 33 -35 0 -94 23 -96 38
-4 19 -10 63 -17 122 -4 36 -16 79 -25 97 -19 35 -22 73 -7 73 6 0 10 -9 10
-20 0 -25 28 -27 37 -2 7 21 43 62 55 62 4 0 17 -9 28 -20z m2060 -5 c-12 -15
-30 -12 -30 6 0 5 10 9 21 9 18 0 19 -2 9 -15z m403 -18 c-3 -15 4 -30 21 -46
14 -14 26 -30 26 -38 0 -7 9 -27 20 -45 11 -18 20 -43 20 -54 0 -15 8 -24 25
-28 33 -8 32 -22 -5 -41 -19 -10 -30 -23 -30 -37 0 -13 -20 -40 -52 -70 -41
-38 -48 -49 -35 -54 25 -9 21 -18 -15 -30 -18 -6 -40 -14 -49 -18 -12 -5 -14
0 -11 29 2 19 0 35 -6 35 -9 0 -42 70 -42 90 0 6 12 10 28 10 l27 1 -37 30
c-47 38 -49 68 -7 103 37 32 65 33 72 5 5 -18 11 -20 34 -15 42 11 51 25 29
42 -11 8 -28 14 -38 14 -20 0 -24 20 -7 37 8 8 7 16 -2 31 -10 17 -10 24 4 46
21 32 36 34 30 3z m797 8 c0 -8 -4 -15 -10 -15 -5 0 -10 7 -10 15 0 8 5 15 10
15 6 0 10 -7 10 -15z m-5813 -11 c-3 -3 -12 -4 -19 -1 -8 3 -5 6 6 6 11 1 17
-2 13 -5z m257 -10 c16 -41 -18 -70 -44 -39 -10 13 -10 19 5 35 22 24 31 25
39 4z m462 -26 c8 -26 -13 -48 -45 -48 -25 0 -27 3 -24 33 7 56 10 58 37 45
14 -6 28 -20 32 -30z m7018 1 c-5 -28 -3 -43 6 -49 18 -11 3 -30 -37 -47 -44
-18 -53 -10 -23 22 22 24 22 25 4 25 -23 0 -44 18 -44 37 0 23 39 53 70 53 30
0 30 -1 24 -41z m1431 21 c9 -15 -16 -43 -27 -32 -10 10 0 42 12 42 5 0 12 -5
15 -10z m-9194 -43 c-1 -12 -15 -9 -19 4 -3 6 1 10 8 8 6 -3 11 -8 11 -12z
m5165 -32 c31 -41 25 -56 -14 -34 -17 9 -28 25 -30 42 -4 37 12 34 44 -8z
m1761 12 c7 -5 10 -13 7 -18 -8 -13 -44 9 -44 27 0 15 10 13 37 -9z m131 -49
l-3 -23 -13 23 c-10 18 -10 26 0 45 l13 22 3 -22 c2 -13 2 -33 0 -45z m-4144
46 c15 -6 23 -34 10 -34 -13 0 -44 21 -44 30 0 11 11 13 34 4z m1846 -11 c-1
-29 -27 -93 -46 -114 -13 -14 -20 -16 -31 -8 -18 16 -17 78 2 85 8 4 15 12 15
18 0 18 21 36 42 36 11 0 18 -7 18 -17z m1305 7 c3 -5 -3 -10 -14 -10 -12 0
-21 5 -21 10 0 6 6 10 14 10 8 0 18 -4 21 -10z m1845 0 c13 -8 13 -10 -2 -10
-9 0 -20 5 -23 10 -8 13 5 13 25 0z m-50 -20 c0 -5 -5 -10 -11 -10 -5 0 -7 5
-4 10 3 6 8 10 11 10 2 0 4 -4 4 -10z m-8130 -8 c0 -14 -11 -21 -26 -15 -8 3
-11 9 -8 14 7 11 34 12 34 1z m3170 -48 c0 -13 -4 -24 -8 -24 -12 0 -33 50
-26 61 10 16 34 -11 34 -37z m3386 34 c7 -10 -20 -38 -38 -38 -10 0 -11 34 -1
43 10 11 31 8 39 -5z m-5571 -8 c3 -5 -3 -10 -14 -10 -12 0 -21 5 -21 10 0 6
6 10 14 10 8 0 18 -4 21 -10z m4664 -31 c-17 -11 -39 -12 -39 -1 0 11 44 28
49 18 2 -4 -3 -12 -10 -17z m2173 9 c-7 -7 -12 -8 -12 -2 0 14 12 26 19 19 2
-3 -1 -11 -7 -17z m-4484 -11 c3 -16 1 -17 -16 -8 -16 8 -27 5 -57 -15 -39
-26 -49 -27 -39 -1 6 17 71 47 94 44 8 -1 16 -10 18 -20z m-2203 -9 c14 -13
-24 -40 -50 -36 -23 4 -33 37 -13 49 14 9 47 3 63 -13z m1903 -8 c35 -21 35
-40 1 -40 -32 0 -59 19 -59 40 0 25 16 25 58 0z m3983 7 c-1 -12 -15 -9 -19 4
-3 6 1 10 8 8 6 -3 11 -8 11 -12z m3215 -28 c18 -20 18 -21 -6 -40 -28 -21
-75 -25 -86 -7 -7 11 47 68 65 68 4 0 16 -9 27 -21z m-2125 -6 c6 -6 -19 -24
-63 -46 l-72 -37 -29 29 c-31 31 -29 46 7 62 25 11 144 5 157 -8z m1741 -45
c-15 -15 -27 14 -17 40 6 15 8 15 18 -6 7 -16 7 -26 -1 -34z m-6542 38 c0 -11
-19 -15 -25 -6 -3 5 1 10 9 10 9 0 16 -2 16 -4z m673 -23 c19 -38 29 -83 19
-83 -23 0 -68 81 -56 101 10 16 23 10 37 -18z m4312 -13 c-3 -5 -15 -10 -26
-10 -10 0 -19 5 -19 10 0 6 12 10 26 10 14 0 23 -4 19 -10z m-7151 -49 c-1
-38 -21 -70 -46 -71 -14 0 -9 27 7 40 8 7 15 28 15 47 0 23 4 33 13 30 7 -2
12 -21 11 -46z m4994 -24 c-7 -14 -13 -17 -16 -9 -6 19 6 44 18 37 7 -4 6 -14
-2 -28z m-3570 -5 c2 -7 -3 -12 -12 -12 -9 0 -16 7 -16 16 0 17 22 14 28 -4z
m2560 2 c24 -17 21 -34 -6 -34 -27 0 -45 17 -39 34 8 20 17 20 45 0z m-2254
-40 c4 -10 1 -14 -6 -12 -15 5 -23 28 -10 28 5 0 13 -7 16 -16z m1158 -9 c13
-28 6 -40 -17 -32 -17 7 -21 57 -5 57 6 0 16 -11 22 -25z m3326 13 c-5 -15
-58 -24 -58 -10 0 15 12 22 38 22 14 0 22 -5 20 -12z m2742 -8 c23 -23 27 -60
6 -60 -8 0 -18 5 -21 10 -3 6 -24 10 -46 10 -31 0 -39 4 -39 18 0 43 64 58
100 22z m-200 -20 l25 -20 -24 -20 c-28 -24 -98 -27 -127 -5 -15 12 -16 14 -3
15 8 0 26 11 39 25 28 30 56 31 90 5z m-7084 -45 c16 -24 15 -27 -1 -45 -24
-26 -45 -9 -45 36 0 41 22 46 46 9z m-1701 -15 c9 -28 0 -38 -30 -32 -27 5
-32 21 -13 40 18 18 36 15 43 -8z m1619 -12 c23 -32 21 -68 -4 -68 -25 0 -40
28 -33 63 6 33 17 34 37 5z m6943 16 c-3 -3 -12 -4 -19 -1 -8 3 -5 6 6 6 11 1
17 -2 13 -5z m-8747 -8 c0 -3 -4 -8 -10 -11 -5 -3 -10 -1 -10 4 0 6 5 11 10
11 6 0 10 -2 10 -4z m5005 -6 c8 -14 -17 -22 -52 -18 l-28 4 25 11 c32 15 47
16 55 3z m-6095 -20 c0 -5 -7 -10 -16 -10 -8 0 -12 5 -9 10 3 6 10 10 16 10 5
0 9 -4 9 -10z m6200 -20 c0 -5 -5 -12 -11 -16 -14 -8 -33 11 -25 25 7 11 36 4
36 -9z m-3850 -16 c0 -8 -4 -12 -10 -9 -5 3 -10 13 -10 21 0 8 5 12 10 9 6 -3
10 -13 10 -21z m-936 -6 c11 -15 12 -26 5 -40 -8 -15 -22 -18 -74 -18 -54 0
-66 3 -79 22 -20 28 -12 38 27 32 20 -4 39 0 52 10 28 22 51 20 69 -6z m4901
-19 c-4 -5 -13 -9 -22 -9 -13 0 -13 3 -3 15 13 15 35 11 25 -6z m3385 12 c0
-16 -29 -33 -52 -29 -22 3 -22 4 7 20 34 20 45 22 45 9z m-3199 -16 c-1 -15
-24 -12 -29 3 -3 9 2 13 12 10 10 -1 17 -7 17 -13z m1456 -7 c-3 -8 -6 -5 -6
6 -1 11 2 17 5 13 3 -3 4 -12 1 -19z m1056 -8 c-6 -22 -33 -28 -33 -7 0 17 10
27 26 27 7 0 10 -8 7 -20z m-7895 -32 c18 -48 10 -79 -27 -101 -43 -25 -79
-22 -91 8 -5 14 -21 30 -36 35 -30 12 -28 33 3 35 12 1 38 16 60 33 49 41 73
38 91 -10z m5113 -21 c-8 -8 -14 -8 -23 1 -7 7 -22 12 -35 12 -13 0 -26 7 -30
15 -9 24 4 30 32 15 22 -12 28 -12 43 4 16 16 17 16 20 -10 2 -14 -1 -31 -7
-37z m404 51 c31 -14 31 -21 0 -42 -29 -19 -75 -88 -75 -111 0 -11 7 -15 23
-13 15 2 25 -4 32 -19 5 -12 22 -24 37 -27 29 -6 40 -36 13 -36 -21 0 -55 -40
-55 -66 0 -16 13 -30 44 -48 53 -31 58 -43 41 -92 -13 -40 -11 -59 6 -48 17
10 39 -17 39 -48 0 -16 -7 -40 -16 -53 -19 -29 -11 -45 20 -45 40 0 49 -22 29
-65 -18 -37 -18 -38 4 -52 l23 -15 -32 -30 c-28 -26 -33 -28 -44 -14 -10 15
-15 15 -50 0 -65 -27 -74 -40 -74 -107 0 -61 -17 -97 -47 -97 -17 0 -17 -29 1
-36 17 -7 71 -82 64 -90 -5 -4 -42 2 -127 22 l-24 5 29 30 c20 21 25 32 17 40
-10 10 -144 32 -151 25 -1 -2 5 -19 14 -39 9 -19 14 -42 11 -51 -5 -13 -9 -13
-34 -1 -31 15 -141 18 -159 4 -7 -6 -26 21 -55 77 -24 47 -54 94 -66 104 -20
15 -21 19 -8 30 8 7 15 16 15 21 0 10 -53 39 -83 45 -23 4 -56 40 -57 61 0 6
-7 19 -16 28 -15 15 -18 15 -41 -1 -31 -20 -38 -12 -54 65 -14 66 -4 140 19
147 49 16 102 43 141 73 25 19 67 40 94 47 65 17 79 30 75 73 -2 30 1 36 21
41 33 7 37 25 10 43 -20 15 -20 17 -5 38 9 13 16 35 16 50 0 34 19 49 78 64
39 10 47 17 54 43 8 30 54 72 79 72 7 0 23 -10 36 -22 20 -19 27 -20 43 -10
11 7 30 12 43 12 13 0 32 7 43 15 23 18 27 18 59 3z m-3628 -18 c32 -19 59
-57 49 -67 -19 -19 -106 37 -106 68 0 24 17 24 57 -1z m-344 -33 c14 -18 18
-30 11 -37 -15 -15 -64 26 -64 51 0 28 28 21 53 -14z m-1846 -21 c-4 -9 -11
-16 -16 -16 -13 0 -24 37 -15 51 10 16 38 -16 31 -35z m2933 23 c0 -5 -7 -9
-15 -9 -15 0 -20 12 -9 23 8 8 24 -1 24 -14z m2970 11 c0 -5 -4 -10 -10 -10
-5 0 -10 5 -10 10 0 6 5 10 10 10 6 0 10 -4 10 -10z m1976 -3 c6 -17 -12 -52
-53 -101 -39 -48 -64 -45 -28 4 27 37 25 45 -16 55 -22 5 -27 2 -32 -17 -8
-30 -30 -10 -25 23 3 21 8 24 50 24 26 0 53 6 59 13 17 16 38 15 45 -1z m452
4 c18 -11 11 -45 -10 -49 -17 -3 -34 30 -23 48 7 12 16 12 33 1z m-7620 -34
c2 -10 -3 -17 -12 -17 -18 0 -29 16 -21 31 9 14 29 6 33 -14z m4474 -19 c-6
-6 -15 -9 -18 -5 -4 3 -4 14 0 23 5 13 9 15 18 6 9 -9 9 -15 0 -24z m3083 12
c0 -18 -33 -26 -48 -11 -9 9 -8 14 3 21 21 14 45 8 45 -10z m-970 -16 c21 -14
24 -14 34 3 10 17 12 17 31 -6 11 -13 20 -31 20 -40 0 -17 -57 -51 -85 -51
-21 0 -55 50 -55 81 0 33 18 38 55 13z m-2620 -44 c-3 -5 -10 -10 -16 -10 -5
0 -9 5 -9 10 0 6 7 10 16 10 8 0 12 -4 9 -10z m83 -18 c3 -19 10 -22 55 -22
61 0 83 -11 73 -35 -5 -14 -15 -16 -45 -12 -50 6 -66 -4 -57 -37 5 -22 2 -28
-18 -36 -17 -6 -29 -24 -40 -58 -20 -59 -66 -108 -90 -95 -9 5 -35 31 -57 58
l-41 49 22 18 c12 10 34 18 49 18 41 0 44 10 15 41 l-27 28 31 30 c18 19 41
31 56 31 19 0 29 7 36 26 12 30 34 27 38 -4z m3422 18 c0 -5 -7 -10 -15 -10
-8 0 -15 5 -15 10 0 6 7 10 15 10 8 0 15 -4 15 -10z m-700 -55 c0 -13 -10 -45
-22 -70 -12 -24 -19 -47 -16 -51 3 -3 23 -1 45 5 56 16 93 14 93 -5 0 -20 -17
-53 -42 -81 -11 -12 -17 -26 -14 -32 4 -5 2 -12 -3 -16 -6 -3 -15 4 -21 15 -6
11 -20 20 -31 20 -30 0 -112 45 -153 83 -54 51 -49 72 27 107 73 35 87 37 87
10 0 -31 17 -24 24 10 7 36 26 40 26 5z m568 3 c7 -7 12 -19 12 -27 0 -11 -4
-10 -20 4 -21 19 -26 35 -12 35 4 0 13 -5 20 -12z m-7993 -8 c8 -13 -5 -13
-25 0 -13 8 -13 10 2 10 9 0 20 -4 23 -10z m5075 -9 c-5 -11 -10 -31 -10 -45
0 -31 -28 -35 -53 -8 -19 20 -10 40 28 60 33 18 47 15 35 -7z m-953 -21 c2 -8
-2 -22 -7 -30 -9 -13 -12 -13 -25 3 -7 11 -11 25 -8 33 7 19 37 14 40 -6z
m-1477 -5 c-12 -15 -30 -12 -30 6 0 5 10 9 21 9 18 0 19 -2 9 -15z m2290 -7
c0 -12 -9 -61 -20 -108 -10 -47 -22 -102 -25 -122 -6 -40 -86 -138 -112 -138
-22 0 -10 81 17 125 24 39 27 70 5 61 -10 -3 -15 1 -15 14 0 11 8 20 21 22 14
2 25 15 33 38 7 23 19 36 35 40 32 7 36 22 11 45 -31 28 -25 45 15 45 29 0 35
-4 35 -22z m1168 6 c39 -27 22 -74 -27 -74 -32 0 -61 27 -61 56 0 35 49 46 88
18z m1442 -26 c0 -6 -7 -5 -15 2 -8 7 -15 17 -15 22 0 6 7 5 15 -2 8 -7 15
-17 15 -22z m-860 2 c0 -5 -4 -10 -10 -10 -5 0 -10 5 -10 10 0 6 5 10 10 10 6
0 10 -4 10 -10z m2044 -10 c17 -6 24 -14 20 -25 -7 -17 -37 -20 -65 -5 -24 13
-24 27 -1 33 9 3 18 5 19 6 1 0 13 -3 27 -9z m-6430 -17 c11 -26 -13 -42 -29
-19 -8 10 -12 23 -9 27 9 15 31 10 38 -8z m-66 -23 c10 -16 10 -20 -1 -20 -17
0 -37 20 -37 37 0 17 23 7 38 -17z m1597 11 c7 -12 -12 -24 -25 -16 -11 7 -4
25 10 25 5 0 11 -4 15 -9z m3845 -6 c0 -8 -4 -15 -10 -15 -5 0 -10 7 -10 15 0
8 5 15 10 15 6 0 10 -7 10 -15z m-6940 -20 c0 -14 -4 -25 -10 -25 -5 0 -10 11
-10 25 0 14 5 25 10 25 6 0 10 -11 10 -25z m5930 15 c0 -11 -40 -34 -47 -26
-3 3 -3 12 0 21 7 16 47 21 47 5z m-1550 -44 c0 -26 -8 -41 -39 -69 -51 -46
-77 -54 -102 -31 -54 48 16 131 114 133 24 1 27 -2 27 -33z m2638 9 c18 -40
14 -62 -15 -85 -29 -23 -41 -14 -24 19 6 11 11 36 11 55 0 42 12 46 28 11z
m-169 -12 c0 -16 -4 -37 -8 -47 -12 -31 -24 -1 -17 40 8 41 26 46 25 7z
m-2380 -46 c-23 -18 -24 -19 -28 -1 -2 10 7 26 20 37 23 18 24 19 28 1 2 -10
-7 -26 -20 -37z m-2869 34 c0 -12 -29 -23 -41 -15 -18 10 -9 24 16 24 14 0 25
-4 25 -9z m750 0 c0 -5 -7 -11 -15 -15 -15 -5 -20 5 -8 17 9 10 23 9 23 -2z
m2917 -8 c-9 -9 -19 -14 -23 -11 -10 10 6 28 24 28 15 0 15 -1 -1 -17z m140
-3 c3 -11 9 -20 14 -20 12 0 11 -37 -1 -61 -9 -15 -22 -19 -65 -19 -57 0 -75
11 -55 35 7 8 10 26 8 40 -5 23 -2 25 28 25 18 0 36 5 39 10 10 16 27 11 32
-10z m453 -5 c21 -25 1 -31 -22 -7 -18 18 -19 22 -6 22 8 0 21 -7 28 -15z
m-2100 -36 c0 -10 -4 -19 -9 -19 -12 0 -23 29 -15 41 8 14 24 0 24 -22z m2190
11 c-11 -21 -44 -27 -55 -10 -11 17 5 30 36 30 27 0 29 -2 19 -20z m-410 -80
c-13 -24 -47 -43 -60 -35 -19 12 -10 51 22 90 l32 39 8 -38 c5 -22 4 -45 -2
-56z m1648 63 c-2 -10 -10 -18 -18 -18 -8 0 -16 8 -18 18 -2 12 3 17 18 17 15
0 20 -5 18 -17z m-8211 -64 c17 -58 9 -80 -17 -46 -12 15 -20 40 -20 62 0 50
21 41 37 -16z m4693 26 c0 -8 -4 -15 -9 -15 -13 0 -22 16 -14 24 11 11 23 6
23 -9z m150 1 c0 -8 -4 -17 -9 -21 -12 -7 -24 12 -16 25 9 15 25 12 25 -4z
m2050 4 c0 -5 -7 -10 -16 -10 -8 0 -12 5 -9 10 3 6 10 10 16 10 5 0 9 -4 9
-10z m-4372 -22 c-3 -25 -34 -36 -51 -19 -14 14 9 41 35 41 14 0 19 -6 16 -22z
m6430 -10 c-2 -15 -11 -24 -25 -26 -25 -4 -31 16 -11 36 20 20 40 14 36 -10z
m-2128 -19 c0 -17 -32 -68 -47 -73 -16 -7 -17 18 -2 47 18 33 49 50 49 26z
m-2167 -49 c3 -11 2 -20 -3 -20 -4 0 -10 9 -13 20 -3 11 -2 20 3 20 4 0 10 -9
13 -20z m347 -20 c0 -21 -15 -27 -25 -10 -7 12 2 30 16 30 5 0 9 -9 9 -20z
m-4570 -11 c0 -6 -4 -7 -10 -4 -5 3 -10 11 -10 16 0 6 5 7 10 4 6 -3 10 -11
10 -16z m5889 6 c9 -10 -6 -14 -62 -21 -48 -6 -57 -4 -57 9 0 8 8 18 18 21 18
5 93 -2 101 -9z m-1714 -15 c-3 -5 -11 -10 -16 -10 -6 0 -7 5 -4 10 3 6 11 10
16 10 6 0 7 -4 4 -10z m4185 -16 c0 -16 -26 -19 -35 -4 -3 6 -4 14 0 20 8 13
35 1 35 -16z m-1859 -111 c-37 -188 -48 -213 -97 -213 -32 0 -41 38 -21 93 8
23 27 76 41 117 28 78 72 138 89 121 7 -7 2 -49 -12 -118z m-1951 82 c10 -12
9 -15 -8 -15 -11 0 -22 7 -26 15 -3 9 0 15 8 15 7 0 19 -7 26 -15z m1625 -20
c11 -19 17 -37 14 -39 -10 -10 -49 34 -49 54 0 30 15 24 35 -15z m-7187 2 c5
-24 -15 -21 -28 4 -10 18 -9 20 7 17 10 -2 19 -11 21 -21z m1712 14 c0 -12
-40 -41 -57 -41 -14 0 -18 32 -6 43 10 11 63 8 63 -2z m3598 -17 c2 -12 -4
-24 -12 -27 -19 -7 -40 18 -32 39 8 22 40 13 44 -12z m2054 6 c28 0 29 -2 23
-32 -12 -55 -47 -128 -61 -128 -14 0 -15 1 -19 36 -3 29 -13 44 -31 44 -8 0
-14 7 -14 16 0 23 43 74 58 68 8 -2 27 -4 44 -4z m-6072 -31 c0 -4 -7 -6 -15
-3 -8 4 -15 10 -15 15 0 4 7 6 15 3 8 -4 15 -10 15 -15z m-418 -1 c7 -18 -2
-39 -13 -32 -12 7 -12 44 0 44 5 0 11 -6 13 -12z m4518 -3 c26 -31 -11 -257
-49 -300 -24 -26 -32 -53 -21 -60 20 -12 10 -35 -14 -35 -29 0 -48 -17 -66
-59 -27 -67 -80 -44 -80 35 0 31 -7 51 -25 72 -42 50 -25 58 32 15 29 -22 38
-25 51 -15 10 7 25 15 35 18 23 8 22 26 -3 47 -22 18 -27 66 -9 84 15 15 -14
98 -34 98 -30 0 -29 14 2 30 17 8 31 21 31 28 0 9 13 11 40 9 33 -3 44 0 62
22 27 30 31 31 48 11z m150 -12 c0 -16 -9 -46 -19 -68 -35 -77 -91 -99 -91
-36 0 23 4 29 15 25 11 -4 15 1 15 17 0 35 36 89 60 89 15 0 20 -7 20 -27z
m1560 -33 c-11 -20 -40 -40 -59 -40 -22 0 -10 30 17 44 40 22 55 21 42 -4z
m-6852 -19 c5 -35 -11 -46 -47 -30 -35 16 -40 33 -13 48 28 17 57 9 60 -18z
m8437 -1 c-3 -5 -13 -10 -21 -10 -8 0 -12 5 -9 10 3 6 13 10 21 10 8 0 12 -4
9 -10z m-3001 -29 c3 -5 -3 -20 -14 -32 l-19 -24 -1 33 c0 31 21 45 34 23z
m1646 -84 c0 -19 -21 -37 -42 -37 -23 0 -23 26 0 39 24 14 42 13 42 -2z
m-1880 -15 c0 -4 -5 -13 -12 -20 -7 -7 -16 -12 -20 -12 -13 0 -9 28 5 33 19 8
27 8 27 -1z m1800 -67 c5 -14 18 -25 28 -25 9 0 28 -7 40 -16 30 -21 29 -93
-2 -244 -43 -203 -91 -312 -179 -406 -31 -34 -65 -64 -75 -66 -10 -3 -35 1
-54 9 -42 17 -61 53 -56 109 2 30 9 41 28 50 14 6 39 19 55 27 17 9 50 26 73
38 l44 21 -26 27 c-16 17 -26 38 -26 58 0 17 -6 36 -14 42 -18 15 -27 49 -14
57 5 4 26 -10 47 -30 43 -42 66 -47 56 -13 -21 67 -50 118 -74 130 -14 6 -36
30 -48 53 -19 34 -21 46 -12 77 11 40 24 48 34 20 3 -10 15 -29 26 -43 19 -22
22 -23 30 -7 6 9 17 17 25 17 11 0 13 6 9 19 -4 14 1 25 20 37 21 14 26 23 21
45 -9 45 28 57 44 14z m-6739 -28 c-8 -8 -11 -7 -11 4 0 20 13 34 18 19 3 -7
-1 -17 -7 -23z m5057 1 c-3 -28 1 -33 30 -41 34 -11 41 -24 17 -33 -43 -17
-85 24 -85 81 0 19 5 25 21 25 17 0 20 -5 17 -32z m111 -4 c-6 -16 -13 -24
-16 -17 -5 13 16 58 23 50 3 -2 -1 -17 -7 -33z m-5861 2 c3 -13 -1 -17 -14
-14 -11 2 -20 11 -22 22 -3 13 1 17 14 14 11 -2 20 -11 22 -22z m608 -15 c-22
-24 -56 -34 -56 -16 0 21 51 58 63 46 7 -7 5 -17 -7 -30z m5358 7 c5 -9 7 -20
3 -24 -8 -8 -57 23 -57 37 0 16 42 6 54 -13z m1046 -47 c0 -5 -11 -22 -24 -38
-13 -15 -26 -38 -30 -50 -4 -13 -13 -23 -19 -23 -17 1 -94 36 -100 47 -3 5 25
17 63 27 38 10 75 25 81 32 13 16 29 18 29 5z m-2116 -7 c24 -9 19 -24 -8 -24
-28 0 -43 16 -24 23 7 3 14 6 15 6 1 1 8 -2 17 -5z m987 -9 c-1 -15 -24 -12
-29 3 -3 9 2 13 12 10 10 -1 17 -7 17 -13z m77 3 c-3 -7 -11 -13 -18 -13 -7 0
-15 6 -17 13 -3 7 4 12 17 12 13 0 20 -5 18 -12z m-2631 -32 l25 -13 -28 -22
c-24 -19 -29 -20 -36 -6 -5 8 -22 22 -38 30 -44 23 -38 39 11 31 23 -4 53 -13
66 -20z m-2742 4 c-3 -5 -11 -10 -16 -10 -6 0 -7 5 -4 10 3 6 11 10 16 10 6 0
7 -4 4 -10z m4880 -50 c-3 -5 -10 -10 -16 -10 -5 0 -9 5 -9 10 0 6 7 10 16 10
8 0 12 -4 9 -10z m-1020 -30 c3 -5 -1 -10 -10 -10 -9 0 -13 5 -10 10 3 6 8 10
10 10 2 0 7 -4 10 -10z m-3135 -21 c-7 -11 -14 -18 -17 -15 -3 3 0 12 7 21 18
21 23 19 10 -6z m3962 -34 c3 -15 10 -19 28 -17 78 10 130 8 130 -5 0 -7 -25
-39 -56 -71 -31 -31 -65 -75 -76 -97 -23 -44 -37 -32 -18 15 14 33 7 93 -15
126 -13 20 -18 45 -16 74 1 19 18 1 23 -25z m-442 5 c0 -5 -4 -10 -10 -10 -5
0 -10 5 -10 10 0 6 5 10 10 10 6 0 10 -4 10 -10z m-4836 -36 c9 -22 7 -54 -2
-54 -15 0 -32 24 -32 47 0 26 25 31 34 7z m3258 -31 c24 -22 23 -35 -4 -31
-15 2 -24 11 -26 26 -4 26 5 28 30 5z m-134 -10 c2 -7 -4 -13 -14 -13 -16 0
-16 -1 1 -20 25 -28 14 -34 -29 -16 -37 16 -45 33 -24 54 16 16 60 12 66 -5z
m-3522 -28 c4 -8 3 -22 0 -31 -5 -13 -9 -14 -21 -4 -8 7 -15 21 -15 31 0 23
28 25 36 4z m4572 -18 c2 -9 -4 -20 -13 -23 -20 -8 -50 19 -40 36 10 17 49 8
53 -13z m1736 -41 c18 -38 22 -111 6 -121 -5 -3 -28 0 -50 6 -55 17 -77 -2
-31 -26 41 -21 30 -39 -20 -32 -29 4 -42 0 -55 -15 -13 -13 -25 -17 -42 -13
-22 5 -24 4 -18 -20 4 -17 0 -39 -13 -63 -30 -58 -53 -131 -47 -147 3 -8 12
-15 21 -15 22 0 19 -11 -16 -58 -16 -22 -33 -57 -36 -76 -11 -70 54 -118 79
-58 7 15 13 29 15 31 1 2 12 -8 23 -22 16 -20 31 -27 67 -29 37 -2 50 -9 67
-31 20 -28 20 -29 3 -42 -14 -10 -41 -12 -106 -8 -115 8 -132 -1 -283 -144
-66 -63 -138 -123 -159 -133 -38 -20 -38 -20 -49 -1 -5 11 -10 28 -10 38 -1
17 -1 17 -11 0 -8 -14 -14 -15 -24 -7 -19 16 -28 60 -15 75 9 10 4 24 -20 56
-50 70 -90 234 -90 373 0 62 33 130 81 171 32 26 64 34 56 13 -23 -64 -13 -82
29 -49 15 11 30 18 35 15 19 -11 8 -34 -23 -49 -39 -18 -108 -79 -108 -95 0
-23 32 -21 70 4 55 36 67 34 80 -16 15 -58 18 -66 19 -46 1 10 12 25 26 34 14
9 25 22 25 30 0 24 23 64 36 64 17 0 28 -42 21 -79 -4 -16 -1 -36 7 -46 12
-16 13 -16 29 0 9 9 17 25 17 36 0 12 10 23 25 29 14 5 25 11 25 13 0 16 -29
81 -57 127 -18 30 -33 65 -33 77 0 19 -6 22 -46 25 -81 5 -85 49 -11 133 44
49 45 50 65 32 20 -18 21 -18 32 2 13 25 26 26 46 6 9 -8 29 -15 45 -15 26 0
29 -3 29 -30 0 -16 4 -30 10 -30 15 0 50 42 57 68 5 22 10 23 52 19 25 -2 56
-8 68 -12 19 -6 23 -3 29 32 9 50 11 53 38 53 17 0 28 -10 40 -34z m-1229 -36
c0 -7 -6 -15 -12 -17 -8 -3 -13 4 -13 17 0 13 5 20 13 18 6 -3 12 -11 12 -18z
m2570 -20 c-3 -5 -10 -10 -16 -10 -5 0 -9 5 -9 10 0 6 7 10 16 10 8 0 12 -4 9
-10z m-525 -20 c0 -5 -7 -10 -16 -10 -8 0 -12 5 -9 10 3 6 10 10 16 10 5 0 9
-4 9 -10z m323 -25 c7 -16 -8 -29 -23 -20 -15 9 -12 35 4 35 8 0 16 -7 19 -15z
m-7089 -46 c-10 -16 -24 -9 -24 12 0 18 2 19 15 9 8 -7 12 -16 9 -21z m-263
-60 c37 -40 39 -82 5 -104 -29 -20 -45 -13 -96 39 -38 40 -36 59 11 83 36 19
48 16 80 -18z m1634 -29 c-3 -5 -15 -10 -26 -10 -11 0 -17 5 -14 10 3 6 15 10
26 10 11 0 17 -4 14 -10z m3955 -25 c0 -8 -4 -15 -10 -15 -5 0 -10 7 -10 15 0
8 5 15 10 15 6 0 10 -7 10 -15z m-5840 1 c0 -3 -4 -8 -10 -11 -5 -3 -10 -1
-10 4 0 6 5 11 10 11 6 0 10 -2 10 -4z m6010 -70 c0 -5 -11 1 -25 14 -14 13
-25 31 -25 39 1 11 9 6 25 -14 14 -16 25 -34 25 -39z m280 -41 c0 -8 -4 -15
-10 -15 -5 0 -10 7 -10 15 0 8 5 15 10 15 6 0 10 -7 10 -15z m-6198 -27 c-15
-15 -26 -4 -18 18 5 13 9 15 18 6 9 -9 9 -15 0 -24z m778 12 c0 -5 -7 -10 -16
-10 -8 0 -12 5 -9 10 3 6 10 10 16 10 5 0 9 -4 9 -10z m-466 -36 c14 -37 7
-54 -23 -54 -40 0 -84 18 -76 30 3 5 17 10 29 10 13 0 29 7 36 15 16 19 26 19
34 -1z m649 -36 c9 -11 17 -29 17 -40 0 -29 -44 -20 -48 10 -2 13 -14 28 -28
34 -13 6 -24 15 -24 20 0 16 64 -3 83 -24z m4315 10 c-5 -15 -48 -24 -48 -10
0 14 12 22 33 22 10 0 17 -5 15 -12z m-1380 -20 c-6 -18 -28 -21 -28 -4 0 9 7
16 16 16 9 0 14 -5 12 -12z m3684 -5 c9 -10 23 -33 33 -52 l17 -34 -53 6 c-41
5 -59 13 -77 33 -27 31 -25 46 9 55 40 12 55 10 71 -8z m-3609 -5 c37 -18 34
-25 -14 -33 -48 -8 -55 -4 -39 24 13 24 17 25 53 9z m-2535 -14 c-2 -9 -15
-26 -30 -37 -32 -24 -78 -17 -78 12 0 16 29 27 103 40 5 0 7 -6 5 -15z m421
-23 c21 -13 5 -41 -22 -41 -32 0 -57 28 -36 41 18 11 40 11 58 0z m3541 -17
c0 -33 -21 -114 -29 -114 -9 0 -41 55 -41 71 0 14 49 69 62 69 4 0 8 -12 8
-26z m-4260 1 c0 -9 -12 -21 -27 -27 -16 -6 -43 -27 -61 -47 -32 -35 -33 -36
-48 -16 -8 11 -14 31 -12 44 2 18 10 24 33 26 17 1 46 9 65 18 45 20 50 20 50
2z m165 -35 c-3 -5 -11 -10 -16 -10 -6 0 -7 5 -4 10 3 6 11 10 16 10 6 0 7 -4
4 -10z m5035 -10 c0 -26 -25 -36 -45 -20 -12 10 -13 16 -4 26 18 22 49 17 49
-6z m-5092 -31 c-4 -29 -29 -43 -61 -35 -52 13 -21 54 41 55 18 1 23 -4 20
-20z m6232 5 c0 -8 -4 -12 -10 -9 -5 3 -10 10 -10 16 0 5 5 9 10 9 6 0 10 -7
10 -16z m-3606 -58 c-7 -19 -34 -29 -34 -12 0 16 10 26 26 26 8 0 11 -6 8 -14z
m-2884 -11 c0 -8 -4 -15 -10 -15 -5 0 -10 7 -10 15 0 8 5 15 10 15 6 0 10 -7
10 -15z m5395 -5 c-10 -11 -20 -18 -23 -15 -7 6 18 35 31 35 5 0 2 -9 -8 -20z
m-5561 -65 c6 -16 -18 -20 -49 -9 -13 5 -14 8 -3 15 21 13 45 10 52 -6z m404
3 c16 -16 15 -28 -3 -28 -8 0 -15 2 -15 4 0 2 -3 11 -6 20 -7 19 7 21 24 4z
m880 -20 c-2 -15 -10 -23 -23 -23 -13 0 -21 8 -23 23 -3 18 1 22 23 22 22 0
26 -4 23 -22z m-622 -45 c-11 -11 -19 6 -11 24 8 17 8 17 12 0 3 -10 2 -21 -1
-24z m564 24 c0 -19 -21 -37 -42 -37 -23 0 -23 26 0 39 24 14 42 13 42 -2z
m978 -15 c3 -9 -2 -13 -14 -10 -9 1 -19 9 -22 16 -3 9 2 13 14 10 9 -1 19 -9
22 -16z m-808 -16 c0 -8 -4 -18 -10 -21 -5 -3 -10 -18 -10 -33 0 -37 -44 -58
-83 -39 -15 6 -27 17 -27 24 0 16 40 43 63 43 10 0 21 9 24 20 6 23 43 28 43
6z m-1009 -33 c6 -18 6 -30 -2 -39 -10 -12 -15 -9 -31 17 -15 24 -16 34 -7 45
14 17 27 10 40 -23z m2772 18 c8 -8 3 -19 -18 -41 -34 -35 -46 -37 -63 -10 -7
11 -21 20 -31 20 -46 0 -71 33 -33 44 28 8 133 -1 145 -13z m-3108 -11 c7 -11
-38 -60 -55 -60 -16 0 -12 15 11 44 22 28 34 32 44 16z m5385 -20 c0 -23 5
-30 19 -30 11 0 22 4 25 9 3 5 19 14 35 19 23 8 32 7 42 -4 9 -11 4 -17 -27
-30 -41 -17 -74 -42 -74 -55 0 -4 12 -22 27 -39 23 -28 25 -36 15 -62 -14 -39
9 -49 48 -19 16 11 36 21 45 21 21 0 68 25 84 44 12 14 8 18 -23 31 -20 8 -36
20 -36 25 0 14 10 13 61 -5 24 -9 55 -17 69 -19 14 -1 43 -12 65 -23 22 -11
70 -28 107 -38 55 -14 70 -15 83 -5 8 7 15 18 15 25 0 26 37 43 107 49 44 4
87 14 112 28 40 21 43 21 89 5 26 -9 66 -21 90 -27 23 -6 42 -16 42 -21 0 -18
-88 -216 -153 -344 -125 -245 -288 -444 -428 -520 -40 -22 -127 -78 -193 -124
-66 -46 -140 -93 -164 -103 -24 -11 -41 -25 -39 -31 8 -21 -22 -67 -44 -67
-26 0 -89 27 -112 48 -18 16 -20 15 -42 -12 -13 -16 -54 -87 -90 -157 -37 -71
-73 -133 -81 -140 -18 -15 -21 3 -34 175 -9 121 -15 149 -45 221 -69 168 -89
301 -90 610 0 196 2 234 17 260 9 17 54 62 100 101 45 38 98 90 116 113 57 75
139 120 220 121 40 0 42 -1 42 -30z m-5528 -15 c0 -5 -5 -11 -11 -13 -6 -2
-11 4 -11 13 0 9 5 15 11 13 6 -2 11 -8 11 -13z m4561 9 c11 -11 -5 -34 -23
-34 -18 0 -34 23 -23 34 4 3 14 6 23 6 9 0 19 -3 23 -6z m1307 -13 c0 -6 -4
-13 -10 -16 -5 -3 -10 1 -10 9 0 9 5 16 10 16 6 0 10 -4 10 -9z m140 -21 c0
-23 -4 -24 -31 -9 -23 12 -16 29 12 29 12 0 19 -7 19 -20z m218 1 c3 -8 -1
-12 -9 -9 -7 2 -15 10 -17 17 -3 8 1 12 9 9 7 -2 15 -10 17 -17z m-5860 -15
c2 -10 -1 -23 -7 -29 -16 -16 -34 6 -26 33 8 24 28 22 33 -4z m162 -16 c0 -16
-4 -30 -10 -30 -5 0 -10 14 -10 30 0 17 5 30 10 30 6 0 10 -13 10 -30z m360 6
c0 -7 10 -20 22 -28 l22 -15 -22 -12 c-24 -13 -42 -7 -42 14 0 7 -7 15 -15 19
-25 9 -18 36 10 36 15 0 25 -6 25 -14z m3634 -38 c8 -13 17 -42 21 -66 7 -45
27 -53 33 -13 2 13 19 39 38 57 l33 34 17 -25 c22 -34 29 -106 15 -147 -9 -26
-9 -35 2 -43 38 -28 54 -112 92 -462 14 -131 30 -271 36 -311 6 -41 8 -76 5
-80 -7 -6 -136 127 -136 140 0 4 -9 9 -20 13 -11 3 -19 9 -17 13 4 13 -97 155
-153 216 -79 85 -84 95 -69 161 15 67 9 81 -35 89 -40 8 -40 8 -24 52 9 25 8
39 -5 71 -13 34 -14 43 -2 64 8 13 17 29 21 36 3 7 -4 24 -15 39 -25 32 -14
54 28 54 41 0 75 40 66 79 -3 17 -4 35 0 41 11 18 54 11 69 -12z m-1671 -85
c-6 -16 -14 -36 -18 -45 -5 -14 -2 -18 14 -18 17 0 21 -6 21 -30 0 -17 7 -33
18 -40 16 -9 16 -11 -3 -22 -21 -12 -50 -43 -77 -79 -12 -17 -20 -21 -25 -12
-6 8 -14 9 -23 3 -8 -6 -36 -10 -62 -10 -74 0 -98 -13 -98 -53 0 -24 -8 -43
-27 -61 -28 -29 -68 -54 -61 -39 21 42 58 125 58 128 0 3 -10 5 -23 5 -23 0
-55 -27 -75 -65 -10 -18 -11 -18 -18 9 -10 40 6 80 34 84 16 3 22 10 22 29 0
15 13 38 35 60 37 37 34 37 146 17 21 -3 46 -1 58 6 20 10 21 17 15 69 -6 54
-5 58 20 74 21 14 25 22 20 50 l-6 32 33 -32 c30 -30 32 -35 22 -60z m-2585
50 c-3 -26 -52 -72 -64 -61 -11 12 39 88 58 88 5 0 8 -12 6 -27z m2940 15 c18
-18 15 -27 -20 -48 -39 -24 -48 -25 -48 -6 0 52 39 83 68 54z m-278 -48 c0
-42 -14 -54 -25 -20 -5 17 9 60 20 60 3 0 5 -18 5 -40z m-510 -59 c0 -15 -16
-22 -34 -15 -25 9 -19 24 9 24 14 0 25 -4 25 -9z m-2200 -92 c0 -24 -23 -21
-28 4 -2 10 3 17 12 17 10 0 16 -9 16 -21z m2878 -150 c2 -9 -9 -31 -24 -49
-25 -29 -29 -31 -35 -14 -7 18 -2 58 8 77 8 14 48 3 51 -14z m-423 -19 c0 -36
-29 -33 -33 3 -3 23 0 28 15 25 12 -2 18 -12 18 -28z m551 -2 c4 -6 7 -27 6
-46 -1 -20 3 -41 9 -48 13 -16 5 -44 -22 -78 -26 -34 -45 -33 -52 2 -3 15 -22
46 -42 69 l-36 42 43 19 c24 10 49 26 57 35 16 20 27 21 37 5z m-974 -20 c-7
-7 -12 -8 -12 -2 0 14 12 26 19 19 2 -3 -1 -11 -7 -17z m-75 -25 c-15 -15 -17
-15 -23 1 -8 21 16 40 30 26 7 -7 4 -16 -7 -27z m-157 -3 c0 -5 -7 -10 -16
-10 -8 0 -12 5 -9 10 3 6 10 10 16 10 5 0 9 -4 9 -10z m628 -38 c2 -14 -2 -22
-12 -22 -19 0 -28 14 -20 35 9 21 28 14 32 -13z m192 -12 c0 -5 -6 -10 -13
-10 -7 0 -26 -13 -42 -30 -38 -40 -65 -40 -65 0 0 25 5 31 33 39 44 13 87 13
87 1z m-648 -32 c-7 -7 -12 -8 -12 -2 0 14 12 26 19 19 2 -3 -1 -11 -7 -17z
m286 -5 c-3 -28 -32 -44 -48 -26 -14 14 8 53 30 53 17 0 21 -5 18 -27z m68
-34 c3 -6 15 -9 25 -6 28 8 23 -15 -10 -47 -38 -37 -42 -56 -21 -102 12 -29
14 -45 7 -61 -9 -21 -43 -40 -53 -31 -10 11 -15 205 -5 231 11 28 44 37 57 16z
m-521 -9 c10 -16 -16 -43 -28 -31 -11 11 -2 41 12 41 5 0 13 -5 16 -10z m245
-11 c-7 -11 -14 -19 -16 -16 -7 7 7 37 17 37 6 0 5 -9 -1 -21z m-351 -11 c-17
-34 -19 -34 -19 -5 0 18 5 27 15 27 13 0 14 -4 4 -22z m191 2 c0 -14 -31 -21
-48 -11 -15 8 -14 11 8 19 26 10 40 7 40 -8z m670 -20 c0 -25 -10 -50 -21 -50
-10 0 -12 63 -3 73 11 10 24 -3 24 -23z m1341 -50 c14 -45 3 -131 -17 -137
-14 -4 -50 69 -59 119 -6 29 -3 38 12 47 35 20 52 13 64 -29z m-371 -3 c0 -14
-20 -37 -32 -37 -12 0 -10 24 4 38 16 16 28 15 28 -1z m-149 -30 c-8 -8 -11
-7 -11 4 0 20 13 34 18 19 3 -7 -1 -17 -7 -23z m802 -53 c34 -48 92 -117 128
-153 40 -40 77 -89 94 -126 31 -65 65 -118 78 -124 31 -13 80 -71 111 -131 42
-80 66 -177 96 -400 46 -338 52 -991 11 -1132 -22 -77 -44 -233 -66 -486 -21
-231 -26 -243 -90 -203 -45 27 -130 261 -146 399 -42 380 -63 506 -114 682
-24 85 -51 182 -59 216 -22 86 -105 570 -118 684 -9 82 -25 467 -31 740 -3
150 17 156 106 34z m-2123 68 c0 -13 -12 -22 -22 -16 -10 6 -1 24 13 24 5 0 9
-4 9 -8z m-527 -26 c22 -32 32 -76 18 -76 -5 0 -15 -9 -20 -19 -14 -25 12 -37
33 -16 23 23 45 18 52 -12 8 -32 -20 -59 -72 -69 -66 -12 -73 1 -48 101 7 27
6 29 -10 16 -9 -8 -19 -11 -22 -8 -7 7 36 107 46 107 4 0 15 -11 23 -24z m635
2 c-3 -7 -11 -13 -18 -13 -7 0 -15 6 -17 13 -3 7 4 12 17 12 13 0 20 -5 18
-12z m-328 -52 c0 -17 -27 -29 -35 -16 -4 6 -3 15 0 20 9 15 35 12 35 -4z
m-415 -17 c11 -34 -11 -47 -36 -22 -12 11 -18 26 -15 32 12 19 44 12 51 -10z
m683 -10 c31 16 34 14 27 -20 -5 -22 -3 -34 6 -40 24 -15 -15 -41 -68 -46 -64
-6 -98 8 -118 51 -24 49 -14 69 28 61 24 -5 37 -2 47 10 12 14 15 14 36 -6 18
-17 26 -19 42 -10z m-408 -24 c0 -8 -4 -15 -8 -15 -13 0 -43 36 -36 43 10 10
44 -12 44 -28z m50 11 c0 -17 -14 -29 -23 -20 -8 8 3 34 14 34 5 0 9 -6 9 -14z
m1575 -45 c-9 -16 -25 -3 -18 15 4 10 9 12 15 6 6 -6 7 -15 3 -21z m-1887 -23
c-2 -6 -10 -14 -16 -16 -7 -2 -10 2 -6 12 7 18 28 22 22 4z m866 -33 c6 -17
-19 -45 -42 -45 -31 -1 -97 -37 -132 -73 -39 -41 -45 -44 -54 -22 -8 23 4 45
25 45 15 0 19 7 19 34 0 36 12 46 58 46 15 1 41 7 57 15 40 18 62 18 69 0z
m96 0 c17 -9 30 -19 30 -23 0 -17 -26 -41 -52 -48 -27 -6 -28 -5 -28 33 0 35
6 53 17 53 2 0 17 -7 33 -15z m-1422 -27 c-6 -18 -28 -21 -28 -4 0 9 7 16 16
16 9 0 14 -5 12 -12z m457 -26 c-8 -8 -25 10 -19 20 4 6 9 5 15 -3 4 -7 6 -15
4 -17z m595 18 c0 -5 -7 -10 -16 -10 -8 0 -12 5 -9 10 3 6 10 10 16 10 5 0 9
-4 9 -10z m-1533 -47 c5 -15 -36 -28 -49 -15 -6 6 -7 15 -3 22 9 14 47 9 52
-7z m1699 -48 c-3 -9 -11 -13 -16 -10 -8 5 -7 11 1 21 14 18 24 11 15 -11z
m184 -2 c0 -26 -12 -40 -42 -52 -29 -11 -38 -6 -38 21 0 11 13 24 33 32 43 19
47 19 47 -1z m-856 -39 c14 -38 7 -47 -31 -41 -43 7 -58 20 -50 41 9 22 73 22
81 0z m558 -176 c-16 -16 -37 4 -28 28 6 16 8 16 23 1 13 -13 15 -19 5 -29z
m3007 -312 c-9 -8 -10 -7 -5 7 3 10 7 24 7 30 1 7 3 4 6 -7 3 -10 -1 -23 -8
-30z"/>
<path d="M3144 2980 c-414 -44 -658 -401 -615 -898 33 -375 202 -607 499 -683
93 -24 251 -25 353 -4 242 51 430 249 485 510 7 33 9 64 5 68 -4 4 -50 6 -101
5 l-92 -3 -22 -75 c-30 -104 -70 -173 -138 -235 -72 -67 -143 -95 -258 -102
-211 -13 -360 70 -449 251 -54 109 -72 200 -72 361 0 134 9 203 38 290 78 242
278 366 537 334 169 -21 279 -108 332 -263 l16 -46 100 0 101 0 -7 46 c-17
125 -151 307 -275 373 -111 59 -284 87 -437 71z"/>
<path d="M600 2180 l0 -760 105 0 105 0 0 320 0 320 258 0 c281 0 359 8 442
46 210 96 295 398 177 630 -28 54 -99 124 -157 154 -93 47 -121 50 -537 50
l-393 0 0 -760z m767 570 c23 -7 61 -28 84 -48 57 -49 79 -105 79 -200 0 -140
-64 -224 -191 -251 -28 -6 -158 -11 -289 -11 l-240 0 0 266 0 266 258 -5 c160
-3 273 -9 299 -17z"/>
<path d="M2050 2180 l0 -760 105 0 105 0 0 760 0 760 -105 0 -105 0 0 -760z"/>
<path d="M6507 2933 c-4 -3 -7 -345 -7 -759 l0 -754 23 -5 c12 -3 58 -5 102
-3 l80 3 3 323 2 322 273 0 c287 0 367 9 443 48 59 30 110 81 149 147 49 83
67 151 67 255 -1 177 -68 301 -203 375 -97 52 -122 55 -540 55 -212 0 -389 -3
-392 -7z m771 -187 c105 -33 158 -122 155 -257 -2 -113 -43 -178 -137 -221
-49 -22 -64 -23 -318 -26 l-268 -3 0 259 c0 142 3 262 8 266 4 5 120 6 257 3
194 -4 262 -8 303 -21z"/>
<path d="M8197 2933 c-19 -31 -566 -1506 -562 -1513 4 -6 49 -10 101 -10 l95
0 14 34 c8 18 43 114 79 212 35 98 67 187 71 197 7 16 31 17 310 17 l303 0 73
-217 c39 -120 76 -224 82 -230 6 -9 42 -13 113 -13 76 0 104 3 104 13 0 6
-122 351 -272 764 l-273 753 -117 0 c-64 0 -119 -3 -121 -7z m227 -553 c58
-173 106 -321 106 -327 0 -10 -53 -13 -230 -13 -177 0 -230 3 -230 13 0 24
234 657 241 649 3 -4 54 -149 113 -322z"/>
<path d="M9202 2178 l3 -763 100 0 100 0 3 328 2 329 303 -4 c302 -3 303 -3
352 -29 40 -20 55 -36 78 -80 27 -52 29 -67 38 -235 12 -236 18 -281 35 -299
12 -12 42 -15 130 -15 133 0 145 8 96 64 -39 44 -49 98 -57 296 -10 240 -35
310 -130 366 -41 24 -58 44 -36 44 16 0 113 93 137 132 39 61 57 150 51 248
-12 200 -104 309 -303 360 -71 18 -111 20 -491 20 l-413 0 2 -762z m775 582
c40 -5 87 -17 104 -26 132 -68 163 -297 55 -409 -68 -71 -103 -77 -438 -83
l-288 -4 0 259 c0 143 3 263 7 266 10 10 478 8 560 -3z"/>
<path d="M10717 2933 c-4 -3 -7 -345 -7 -759 l0 -754 23 -5 c12 -3 58 -5 102
-3 l80 3 3 265 2 266 114 113 c70 69 120 112 128 109 8 -3 126 -167 263 -364
138 -198 258 -367 268 -376 14 -15 36 -18 136 -18 66 0 122 4 125 8 2 4 -139
208 -314 452 -176 245 -319 450 -320 455 0 6 140 146 311 310 l311 300 -143 3
-143 3 -368 -368 -368 -368 0 368 0 367 -98 0 c-54 0 -102 -3 -105 -7z"/>
<path d="M5857 2067 c-20 -56 -37 -105 -37 -109 0 -5 36 -8 79 -8 l80 0 -35
102 c-19 56 -38 106 -42 110 -4 4 -25 -38 -45 -95z"/>
</g>
</svg>
