<?xml version="1.0" standalone="no"?>
<!DOCTYPE svg PUBLIC "-//W3C//DTD SVG 20010904//EN"
 "http://www.w3.org/TR/2001/REC-SVG-20010904/DTD/svg10.dtd">
<svg version="1.0" xmlns="http://www.w3.org/2000/svg"
 width="1310.000000pt" height="1465.000000pt" viewBox="0 0 1310.000000 1465.000000"
 preserveAspectRatio="xMidYMid meet">

<g transform="translate(0.000000,1465.000000) scale(0.100000,-0.100000)"
fill="#000000" stroke="none">
<path d="M7920 14621 c0 -16 -8 -39 -18 -51 l-19 -23 -45 27 c-55 32 -112 35
-128 7 -13 -25 -13 -76 1 -125 14 -50 5 -97 -26 -130 -31 -33 -68 -34 -89 -1
-10 15 -26 25 -40 25 -12 0 -31 9 -41 20 -22 24 -77 27 -95 5 -21 -26 -28 -17
-22 30 4 39 1 50 -19 72 -13 14 -43 34 -66 45 -23 10 -45 23 -48 28 -4 6 -19
17 -35 25 -25 13 -32 13 -60 -1 -21 -11 -42 -14 -63 -9 -91 20 -145 -5 -166
-76 -11 -38 -11 -43 8 -61 25 -22 19 -38 -12 -38 -12 0 -44 -10 -70 -23 -59
-28 -167 -163 -167 -210 0 -41 19 -30 58 34 l34 54 -4 -58 c-3 -32 -10 -63
-16 -69 -7 -7 -33 -15 -60 -18 l-47 -5 2 -77 c2 -70 1 -76 -16 -71 -16 4 -20
-1 -23 -29 -3 -30 -6 -33 -40 -36 -42 -4 -51 8 -63 81 -4 23 -22 58 -48 90
-60 73 -60 73 -45 113 12 33 11 37 -10 54 -12 10 -41 21 -65 25 -23 3 -56 11
-72 16 -24 7 -39 5 -65 -9 -64 -33 -90 -54 -90 -73 0 -12 -7 -19 -20 -19 -11
0 -29 -13 -41 -30 l-23 -30 -62 65 c-34 36 -69 65 -77 65 -9 0 -25 -14 -37
-31 -16 -21 -27 -28 -39 -23 -9 3 -36 10 -61 15 -24 5 -62 21 -83 36 -46 32
-139 71 -187 79 -26 4 -55 -3 -110 -25 -82 -32 -84 -35 -101 -100 -6 -26 -23
-56 -40 -72 -23 -21 -29 -36 -29 -68 0 -35 -4 -43 -30 -56 -16 -8 -44 -15 -62
-15 -39 1 -122 28 -160 54 -34 23 -56 15 -69 -24 -9 -24 -17 -30 -39 -30 -15
0 -33 -6 -39 -14 -8 -9 -24 -12 -50 -9 -32 4 -41 1 -55 -18 -9 -13 -16 -43
-16 -66 0 -38 3 -43 23 -43 13 0 32 -6 42 -14 18 -13 18 -18 7 -48 -6 -19 -12
-43 -12 -54 0 -24 49 -74 71 -74 23 0 50 34 58 72 4 18 12 33 19 32 7 -1 35
-2 62 -2 59 -2 64 -15 20 -57 -16 -16 -30 -35 -30 -42 0 -8 -15 -20 -34 -28
-21 -9 -39 -27 -50 -50 -15 -31 -46 -49 -46 -26 0 18 -52 71 -68 71 -10 0 -42
20 -72 45 -37 31 -64 45 -84 45 -25 0 -110 -34 -179 -71 -13 -7 -25 -4 -46 11
-16 11 -36 20 -45 20 -9 0 -34 17 -57 37 -33 30 -49 37 -93 41 -45 4 -57 1
-74 -16 -19 -19 -25 -20 -54 -10 -18 6 -38 15 -44 19 -28 22 -34 -53 -6 -77
18 -15 18 -17 0 -52 -23 -45 -23 -68 0 -81 15 -10 13 -14 -20 -43 -129 -113
-142 -117 -203 -68 -25 20 -49 30 -71 30 -29 0 -38 -6 -62 -45 -16 -26 -44
-53 -63 -63 -40 -20 -49 -54 -23 -83 23 -26 52 -24 56 3 5 36 28 34 28 -3 0
-18 7 -40 16 -50 20 -22 12 -36 -26 -44 -34 -7 -50 -30 -50 -70 0 -33 15 -62
52 -102 17 -17 28 -36 24 -41 -9 -15 -89 -34 -153 -36 -54 -2 -58 -4 -61 -26
-2 -14 -16 -37 -30 -51 -15 -14 -35 -40 -44 -57 -12 -22 -27 -34 -47 -38 -23
-5 -31 -12 -33 -32 -2 -21 -10 -28 -39 -35 -33 -8 -37 -13 -45 -50 -9 -49 -6
-91 7 -95 24 -9 8 -66 -52 -172 -10 -19 -19 -54 -19 -77 0 -24 -3 -43 -7 -43
-21 2 -81 67 -103 113 -24 50 -26 52 -71 55 -60 4 -125 -36 -135 -82 -4 -19
-2 -32 5 -34 6 -2 11 -10 11 -18 0 -8 7 -17 15 -20 26 -10 17 -52 -20 -93 -19
-21 -35 -41 -35 -45 0 -3 15 -6 33 -7 29 0 30 -1 13 -12 -11 -7 -30 -23 -43
-36 -15 -15 -38 -25 -68 -29 -42 -4 -45 -7 -45 -33 0 -37 -35 -59 -54 -34 -8
12 -24 16 -56 13 l-45 -3 -3 -54 c-2 -39 1 -58 14 -72 15 -17 15 -18 -7 -23
-13 -3 -42 -7 -64 -8 -30 -2 -41 -8 -43 -21 -2 -11 -18 -32 -35 -47 -24 -21
-36 -26 -49 -19 -15 8 -18 6 -18 -11 0 -22 -10 -26 -27 -9 -8 8 -23 2 -57 -22
-25 -19 -45 -38 -46 -42 0 -5 16 -29 35 -54 39 -51 52 -101 36 -132 -14 -25 3
-104 26 -123 16 -13 74 -15 94 -2 7 4 58 9 113 10 56 1 125 5 153 9 62 8 74
-5 49 -54 -37 -71 2 -85 57 -20 26 30 41 40 59 37 20 -3 23 -9 26 -57 3 -44
-3 -66 -32 -128 -37 -77 -48 -136 -23 -115 10 8 22 -1 50 -39 20 -28 37 -54
37 -59 0 -5 -15 -17 -32 -26 -52 -26 -59 -34 -48 -54 7 -14 5 -20 -8 -25 -20
-8 -262 -19 -342 -16 -30 1 -89 -6 -131 -15 -58 -12 -81 -14 -97 -5 -29 16
-78 14 -96 -4 -8 -8 -22 -15 -31 -15 -9 0 -57 -10 -106 -21 -60 -15 -89 -26
-89 -36 0 -7 -8 -16 -17 -19 -114 -37 -153 -65 -153 -111 0 -30 -6 -29 -40 5
-31 31 -117 57 -136 41 -7 -6 -15 -21 -18 -34 -5 -19 -13 -25 -35 -25 -16 0
-34 -6 -41 -14 -6 -8 -17 -13 -25 -10 -21 8 -28 -16 -11 -35 23 -26 20 -39
-11 -43 -21 -2 -29 -10 -35 -36 -5 -19 -5 -40 1 -51 7 -13 6 -24 -4 -37 -14
-20 -4 -44 20 -44 14 0 77 -66 95 -100 7 -13 9 -41 5 -74 -6 -47 -4 -58 19
-94 35 -56 33 -75 -9 -95 -20 -9 -41 -17 -48 -17 -7 0 -32 -14 -56 -30 -49
-33 -71 -38 -71 -15 0 21 -45 65 -66 65 -13 0 -14 -3 -5 -14 17 -21 0 -27 -53
-20 l-45 7 15 29 c15 28 14 30 -17 59 -17 16 -34 29 -38 29 -6 0 -61 -93 -61
-104 0 -3 15 -6 34 -6 49 0 53 -16 16 -55 -28 -29 -32 -38 -26 -67 5 -28 2
-38 -19 -58 -32 -30 -32 -48 0 -60 14 -5 25 -16 25 -24 0 -8 7 -19 17 -24 26
-15 10 -37 -71 -96 -41 -31 -78 -61 -82 -67 -4 -7 -8 -33 -8 -59 -1 -35 -9
-55 -29 -79 -15 -18 -27 -37 -27 -41 0 -5 14 -19 30 -32 38 -27 38 -42 0 -85
-35 -39 -32 -53 13 -53 25 0 42 11 84 56 49 51 56 55 86 49 17 -4 45 -14 60
-22 16 -8 31 -12 34 -9 3 3 8 29 11 57 2 28 10 53 17 56 21 7 91 -34 130 -76
20 -22 49 -42 63 -46 55 -14 65 -41 36 -100 -10 -22 -28 -39 -54 -49 -45 -18
-54 -29 -45 -56 8 -26 41 -26 55 0 6 11 15 20 20 20 6 0 19 -9 30 -20 24 -24
48 -25 86 -5 37 19 67 21 43 2 -31 -24 -50 -66 -62 -139 -12 -69 -14 -73 -40
-76 -15 -2 -27 -5 -27 -7 0 -1 9 -22 19 -46 19 -42 19 -59 1 -59 -6 0 -25 31
-44 68 -47 92 -52 96 -133 87 -38 -4 -92 -7 -120 -7 l-53 0 0 -36 0 -35 -23
20 c-29 28 -96 45 -145 37 -39 -6 -66 8 -37 20 19 7 19 21 -1 40 -23 23 -65
21 -71 -4 -3 -11 -11 -20 -19 -20 -37 0 -37 -69 0 -99 18 -15 21 -47 6 -56 -6
-3 -10 -24 -10 -45 0 -37 -3 -40 -44 -59 -52 -23 -62 -46 -41 -96 8 -21 15
-39 15 -41 0 -9 -37 -3 -47 7 -13 13 -55 8 -60 -8 -4 -11 6 -22 40 -46 17 -12
15 -15 -20 -37 -21 -14 -39 -33 -41 -43 -2 -10 12 -35 32 -57 37 -41 41 -51
29 -64 -5 -4 -8 -18 -8 -29 0 -18 -5 -22 -30 -20 -17 1 -36 11 -44 23 -14 21
-55 27 -66 10 -3 -6 -22 -10 -41 -10 -26 0 -34 -4 -34 -18 0 -10 5 -23 10 -28
18 -18 0 -43 -33 -46 -29 -3 -32 -6 -35 -41 -3 -29 -9 -40 -27 -47 -30 -11
-39 -28 -25 -45 12 -15 5 -18 -63 -30 -23 -3 -40 -13 -44 -23 -3 -9 -13 -25
-21 -35 -12 -14 -13 -22 -4 -43 16 -34 15 -70 -4 -135 -19 -66 -34 -83 -102
-122 -63 -35 -120 -91 -129 -124 -4 -18 2 -32 21 -52 14 -15 26 -34 26 -43 0
-24 22 -37 86 -50 32 -6 61 -12 63 -14 2 -2 -11 -24 -28 -50 -36 -55 -40 -93
-11 -101 17 -4 20 -14 20 -54 0 -39 4 -51 18 -55 9 -3 24 -10 32 -15 8 -5 30
-16 48 -25 23 -10 39 -28 52 -58 11 -24 30 -47 44 -54 22 -10 28 -7 60 32 19
24 47 46 60 50 18 4 26 14 28 34 2 22 9 28 34 30 l32 3 -5 -44 c-5 -40 -3 -47
18 -58 13 -6 43 -29 67 -49 68 -60 122 -62 122 -5 0 18 3 40 6 49 9 22 57 20
79 -4 28 -31 52 -34 83 -10 35 28 42 7 13 -41 -27 -43 -26 -45 7 -61 21 -11
27 -20 27 -46 0 -18 2 -31 5 -29 37 21 61 29 74 24 13 -5 12 -14 -5 -67 -20
-57 -20 -62 -4 -86 20 -31 34 -27 60 14 13 21 33 35 57 42 44 13 54 36 44 111
-8 56 4 64 31 22 9 -16 23 -34 32 -40 13 -11 12 -16 -7 -36 -12 -13 -22 -28
-22 -34 0 -6 -7 -17 -16 -24 -9 -8 -27 -30 -39 -49 -12 -19 -43 -58 -69 -86
-25 -29 -46 -59 -46 -67 0 -20 38 -33 53 -18 22 22 37 12 37 -24 0 -34 1 -35
39 -35 21 0 53 -5 71 -11 27 -10 42 -9 81 5 55 20 69 16 69 -22 0 -18 -10 -36
-32 -54 -28 -23 -31 -29 -18 -38 19 -13 62 -13 96 0 18 7 30 7 40 -1 7 -6 18
-8 23 -5 6 4 19 -11 31 -34 21 -41 25 -43 74 -40 28 2 28 1 21 -36 -4 -21 -11
-47 -17 -58 -10 -19 -11 -19 -24 -2 -12 17 -16 16 -54 -24 -67 -69 -103 -152
-105 -237 l-2 -72 30 -7 c23 -5 34 -2 43 11 8 11 23 15 46 13 28 -3 33 -7 36
-33 2 -16 11 -34 19 -39 11 -6 13 -17 9 -41 -5 -27 -3 -35 13 -40 25 -7 33
-39 15 -62 -7 -10 -14 -26 -14 -37 0 -15 7 -12 38 16 38 34 128 75 140 64 13
-14 -43 -99 -95 -143 -54 -46 -54 -46 -34 -67 10 -12 28 -40 40 -64 24 -46 35
-48 46 -5 10 42 34 63 71 63 19 0 57 9 86 20 69 26 86 25 110 -5 23 -29 44
-32 70 -8 26 23 51 6 59 -39 3 -20 21 -54 42 -79 42 -49 47 -70 15 -66 -22 2
-48 -32 -63 -80 -9 -32 11 -29 30 5 l16 27 -4 -41 c-3 -25 -17 -58 -36 -84
-24 -33 -28 -46 -19 -52 24 -15 75 -8 119 15 24 13 61 27 81 31 21 4 40 12 44
18 4 6 13 50 20 97 14 97 25 111 89 111 43 0 105 -17 105 -28 0 -4 4 -13 9
-20 7 -12 14 -11 38 2 17 8 60 18 96 22 55 6 71 3 109 -16 56 -27 115 -25 110
5 -9 60 12 175 34 182 5 1 18 -12 29 -29 30 -47 43 -46 50 6 6 37 3 50 -15 76
-23 33 -21 60 5 60 9 0 23 16 31 37 9 21 27 53 41 71 l25 33 25 -23 c32 -30
56 -76 49 -94 -4 -9 -21 -14 -50 -14 -57 0 -59 -3 -55 -85 1 -11 -2 -37 -6
-57 l-7 -36 41 5 c37 5 41 4 41 -16 0 -31 29 -26 35 7 14 67 20 77 48 78 16 1
33 6 40 13 19 19 40 13 34 -9 -7 -28 9 -35 38 -16 20 13 25 25 25 56 0 43 12
57 30 35 17 -20 5 -61 -26 -92 -31 -31 -27 -43 28 -80 30 -20 44 -37 46 -55 4
-30 23 -50 38 -40 5 4 15 23 21 42 34 101 71 194 80 197 6 2 14 -17 17 -42 4
-25 9 -45 10 -45 2 0 17 7 32 15 16 8 53 15 82 15 45 0 57 4 78 27 l26 28 19
-23 19 -24 26 21 c53 41 60 -2 11 -63 -44 -53 -57 -79 -57 -110 0 -32 23 -34
44 -4 13 18 24 21 74 19 32 -1 72 3 88 9 l29 12 -28 24 c-15 13 -35 24 -43 24
-13 0 -13 4 1 30 8 16 15 36 15 45 0 18 21 20 37 4 9 -9 17 -3 32 22 29 48 27
59 -13 59 -19 0 -37 4 -40 9 -4 5 -9 37 -12 70 -8 71 3 91 50 91 30 0 56 15
56 32 0 4 -13 8 -30 8 -36 0 -37 7 -9 54 l21 35 -26 24 c-14 14 -26 27 -26 31
0 9 51 78 65 88 21 15 64 7 93 -17 45 -38 81 -33 125 15 23 26 44 40 60 40 29
0 95 46 128 90 56 73 98 100 134 86 9 -3 25 -21 36 -41 12 -20 29 -35 40 -35
17 0 19 -8 19 -59 0 -43 5 -65 20 -84 25 -31 25 -32 1 -56 -23 -23 -51 -110
-51 -157 l0 -32 36 13 c20 7 41 20 46 29 14 25 39 19 51 -14 14 -37 22 -38 44
-3 25 41 85 103 94 97 4 -2 -4 -29 -18 -60 -14 -30 -22 -58 -18 -62 4 -4 35
-7 68 -7 l61 0 7 -35 c9 -46 56 -155 66 -154 4 0 18 16 30 35 42 65 48 71 64
64 18 -7 96 -167 129 -265 31 -93 62 -326 65 -490 2 -134 5 -149 29 -196 14
-28 37 -92 50 -143 14 -50 34 -117 46 -148 19 -49 24 -90 31 -263 11 -262 24
-379 54 -510 14 -58 25 -127 25 -155 0 -59 12 -114 79 -372 27 -105 59 -245
71 -310 11 -65 27 -143 36 -173 32 -116 78 -258 110 -340 18 -47 38 -117 44
-155 7 -39 18 -95 26 -125 15 -61 28 -235 44 -590 6 -129 17 -336 25 -460 20
-311 19 -425 -10 -645 -13 -104 -23 -190 -21 -192 2 -2 189 -2 416 -1 l412 3
-41 50 c-73 87 -128 230 -150 385 -6 41 -18 221 -26 400 -17 346 -30 474 -69
665 -40 200 -48 313 -44 665 l4 325 33 100 c31 94 33 112 42 315 5 118 18 272
29 342 11 70 36 275 55 455 20 180 47 393 61 472 57 331 126 667 153 741 53
145 136 241 275 322 39 22 100 69 136 103 36 34 106 89 155 122 127 85 167
123 337 320 132 152 158 188 204 282 29 60 69 130 89 156 27 34 39 63 46 106
19 115 80 222 247 429 56 68 140 190 188 270 48 80 100 161 115 181 15 19 37
59 48 87 11 29 48 97 81 152 62 101 136 259 170 360 10 30 30 83 44 117 18 42
28 89 32 145 4 46 12 92 19 103 6 11 18 44 25 73 8 37 27 72 61 114 27 34 49
67 49 74 0 7 -16 29 -35 48 -38 39 -41 46 -23 64 18 18 24 15 38 -18 15 -36
19 -36 54 -9 30 24 32 36 9 61 -22 24 -9 35 22 18 20 -11 28 -10 50 4 32 21
32 51 0 72 -20 13 -23 20 -14 30 9 11 8 21 -1 44 -17 41 0 60 54 60 31 0 48 6
63 23 31 34 34 42 22 76 -9 26 -7 39 14 85 14 30 28 69 32 87 11 59 16 69 30
69 8 0 17 -23 24 -63 18 -103 16 -115 -24 -139 -50 -29 -43 -53 14 -53 28 0
46 -5 49 -13 9 -27 66 -84 129 -129 34 -24 63 -47 63 -50 0 -3 -20 -27 -44
-53 -51 -55 -77 -121 -58 -151 7 -10 12 -30 12 -44 0 -27 17 -34 26 -10 4 8
11 15 16 15 10 0 7 -24 -8 -77 -6 -20 -3 -23 23 -23 43 0 53 15 46 71 -6 51 4
62 27 34 16 -19 44 -19 59 -1 9 11 8 18 -5 30 -21 21 -12 44 21 52 38 9 59 -2
51 -29 -4 -12 -10 -46 -13 -76 -8 -66 13 -68 35 -3 17 51 42 57 42 10 -1 -18
-7 -44 -15 -58 -17 -29 -19 -50 -6 -50 19 0 71 53 71 72 0 30 22 17 50 -31 18
-32 36 -47 65 -57 22 -7 41 -14 43 -14 12 -1 -4 -32 -27 -54 -40 -38 -47 -71
-21 -103 29 -37 26 -53 -10 -53 -18 0 -33 -6 -36 -15 -4 -8 -17 -15 -31 -15
-16 0 -35 -12 -52 -31 -58 -68 -71 -79 -96 -79 -27 0 -48 -31 -27 -38 7 -2 12
-21 12 -42 0 -36 1 -38 41 -43 49 -6 69 -21 51 -39 -16 -16 -15 -28 3 -28 9 0
21 11 27 25 14 30 30 28 38 -6 7 -28 42 -37 76 -18 28 14 51 1 56 -33 2 -12 8
-23 15 -25 16 -5 53 55 53 84 0 13 11 30 24 39 14 8 26 25 28 37 2 14 11 23
26 25 19 3 22 -1 22 -28 0 -40 23 -48 67 -24 43 22 51 41 28 58 -14 10 -15 16
-6 34 21 39 121 23 121 -20 0 -22 25 1 30 28 5 27 9 30 70 40 104 17 126 37
118 109 -2 23 2 30 17 33 11 3 23 9 27 15 8 14 -9 37 -28 37 -17 0 -18 22 -2
38 9 9 7 16 -6 31 -10 11 -15 24 -12 30 4 6 0 23 -8 39 -19 36 -13 42 35 42
49 0 89 16 89 35 0 21 -47 30 -92 18 -29 -8 -42 -7 -58 4 -17 12 -24 12 -48
-1 -39 -20 -54 -41 -61 -84 -5 -32 -10 -37 -35 -40 -24 -3 -40 8 -110 82 -71
76 -116 105 -116 77 0 -5 -21 -24 -46 -41 -49 -32 -74 -29 -74 11 0 10 -4 20
-9 24 -5 3 -7 20 -4 39 7 43 -9 70 -57 101 -26 17 -40 33 -40 46 0 19 4 21 31
15 17 -3 38 -2 47 3 9 5 41 11 70 13 l52 5 0 -33 c0 -38 12 -48 44 -40 29 7
41 33 24 53 -10 12 -9 17 4 24 9 5 19 25 23 46 4 20 18 50 31 66 13 16 24 33
24 38 0 5 7 9 15 9 8 0 15 -4 15 -9 0 -14 32 -23 44 -11 6 6 3 17 -11 32 -26
30 -47 84 -39 103 3 8 14 15 25 15 27 0 106 51 117 75 7 15 17 19 41 18 25 -2
36 3 53 27 26 37 43 38 58 5 6 -14 18 -25 26 -25 20 0 66 58 66 83 0 12 12 40
26 61 23 33 25 42 15 59 -17 27 -8 31 27 13 16 -8 32 -13 35 -9 3 3 21 -4 40
-16 19 -11 51 -21 71 -21 39 0 47 -13 17 -30 -28 -14 -64 -12 -87 5 -10 8 -27
15 -37 15 -14 0 -15 -3 -6 -19 17 -26 4 -50 -31 -57 -34 -7 -41 -24 -10 -24
30 0 24 -25 -14 -54 -19 -14 -38 -35 -41 -47 -6 -18 -12 -20 -59 -14 -48 6
-55 4 -85 -21 -50 -42 -75 -114 -40 -114 5 0 18 15 29 33 18 30 24 32 77 34
32 1 69 3 83 5 22 3 25 0 24 -29 -1 -18 -11 -51 -23 -73 -20 -38 -28 -80 -16
-80 4 0 20 7 37 16 31 16 33 16 50 -6 23 -29 23 -52 -2 -68 -11 -6 -33 -39
-50 -72 -30 -59 -44 -72 -52 -48 -6 18 -26 0 -48 -42 -32 -63 -22 -100 28
-100 13 0 32 -5 42 -10 13 -7 21 -7 25 0 3 5 21 10 40 10 19 0 37 5 40 10 12
20 44 10 57 -17 11 -24 20 -28 58 -31 53 -3 84 12 60 28 -8 5 -27 10 -42 10
-38 0 -36 25 3 39 18 6 49 11 69 11 30 0 39 4 43 21 5 20 7 20 46 -12 36 -28
44 -31 66 -21 35 16 31 38 -7 52 -18 6 -57 32 -85 58 l-53 47 21 43 22 43 -22
30 c-13 17 -20 37 -17 45 7 18 66 54 88 54 10 0 30 14 45 30 22 25 34 30 74
30 68 0 124 25 150 66 16 26 28 34 49 34 20 0 35 9 50 30 26 36 32 37 45 8 7
-15 23 -25 49 -30 47 -10 59 -1 29 19 -32 21 -29 57 7 95 17 17 30 36 30 43 0
18 24 35 36 27 6 -4 16 -17 23 -30 8 -16 20 -22 34 -20 19 3 22 9 22 54 0 50
16 84 40 84 6 0 17 -26 24 -57 19 -90 30 -113 56 -113 29 0 38 22 20 47 -19
25 -19 69 1 77 9 3 52 6 96 6 65 0 85 -4 105 -20 31 -24 71 -26 80 -4 8 22 -9
48 -34 52 -11 2 -25 14 -31 27 -12 25 -23 30 -95 40 -51 7 -59 25 -16 35 59
14 16 67 -47 57 -45 -7 -44 7 3 55 29 30 34 41 25 50 -18 18 -15 35 8 41 11 3
20 10 20 16 0 19 -30 25 -54 11 -19 -9 -28 -9 -47 0 -67 35 -78 70 -21 68 26
-1 51 8 86 30 85 54 119 41 134 -51 5 -28 13 -43 25 -45 13 -3 17 3 17 24 0
15 6 43 12 62 12 31 11 36 -10 52 -27 22 -28 32 -2 55 11 10 20 23 20 30 0 13
-90 100 -129 126 -31 20 -22 49 14 49 14 0 25 5 25 10 0 6 7 10 15 10 10 0 15
-11 15 -35 0 -38 5 -42 34 -20 10 8 38 17 61 21 49 7 53 15 47 87 -3 39 -8 48
-27 53 -13 3 -26 11 -28 17 -9 23 5 76 22 81 29 9 93 -12 125 -41 28 -26 76
-59 131 -90 17 -9 20 -19 17 -62 -5 -89 41 -78 95 22 20 36 34 50 55 54 l29 6
-22 23 c-11 12 -35 28 -52 35 -18 7 -42 19 -55 27 -21 14 -22 16 -7 38 27 41
17 129 -16 137 -10 3 -27 19 -36 36 -18 30 -84 61 -133 61 -45 0 -220 -151
-220 -189 0 -19 -29 -12 -40 10 -8 14 -19 19 -38 17 -26 -3 -27 -5 -30 -78 -3
-86 -9 -111 -21 -92 -10 17 -71 -16 -71 -39 0 -9 -19 -36 -42 -59 -39 -38 -43
-40 -55 -24 -17 24 -17 30 7 54 26 26 26 94 0 178 -22 71 -25 117 -10 157 14
36 35 29 147 -50 21 -15 39 16 47 81 3 31 13 68 21 84 13 24 13 39 0 116 -8
49 -15 110 -15 136 0 41 -4 50 -29 69 -16 12 -32 30 -34 40 -7 24 -49 40 -87
33 -29 -6 -30 -5 -30 28 0 19 -6 43 -14 53 -12 16 -16 17 -30 6 -14 -12 -16
-9 -16 32 0 45 0 45 -63 80 -34 20 -71 45 -81 56 -11 12 -27 21 -36 21 -10 0
-23 6 -29 14 -14 17 -101 45 -151 48 l-35 3 -9 67 c-11 81 -7 92 39 114 71 33
68 74 -10 170 -25 31 -45 62 -45 69 0 8 -10 30 -22 51 -17 29 -19 40 -10 55
15 24 16 80 1 76 -6 -1 -18 21 -26 48 -8 28 -21 57 -29 66 -8 8 -14 29 -14 45
0 51 -21 77 -70 89 -38 9 -48 17 -63 48 -11 24 -24 37 -36 37 -11 0 -23 5 -26
10 -4 6 -15 8 -26 5 -10 -4 -19 -2 -19 3 0 5 -13 12 -29 15 -25 5 -32 14 -43
54 -11 38 -22 53 -56 76 -51 34 -55 62 -11 72 62 14 46 59 -34 99 -30 14 -62
23 -71 20 -12 -5 -16 0 -16 19 0 20 -8 28 -40 41 -22 9 -47 16 -56 16 -16 0
-17 -3 -34 -67 -12 -47 -51 -76 -88 -66 -16 4 -35 -8 -75 -46 -51 -48 -55 -50
-70 -33 -30 33 -38 70 -23 101 8 15 22 33 30 40 20 17 13 28 -28 45 -18 8 -42
24 -54 36 -12 14 -22 18 -27 11 -10 -16 -45 -13 -45 4 0 8 5 15 10 15 6 0 10
15 10 33 0 45 17 63 65 70 48 8 80 40 65 67 -14 27 -13 30 14 30 34 0 66 48
66 98 0 58 26 75 102 66 56 -6 58 -6 68 21 8 20 8 44 0 81 -24 113 -81 135
-163 62 -42 -38 -51 -42 -92 -39 -39 2 -45 0 -45 -17 0 -11 -13 -36 -30 -57
-16 -21 -30 -42 -30 -46 0 -5 -7 -9 -15 -9 -17 0 -20 16 -5 25 6 3 10 13 10
22 0 12 -3 13 -14 4 -11 -9 -15 -3 -21 36 -9 63 -13 68 -37 46 -19 -17 -20
-17 -13 18 9 47 -24 115 -63 130 -15 6 -70 10 -122 9 -52 -1 -110 1 -128 5
-29 6 -33 11 -27 29 4 11 9 37 12 56 3 19 12 44 19 55 39 56 -5 117 -69 96
-19 -7 -43 -21 -52 -31 -14 -16 -31 -20 -76 -20 -54 0 -59 -2 -87 -35 -16 -20
-44 -40 -63 -45 -47 -14 -51 -13 -38 11 10 20 9 21 -32 17 -27 -2 -44 1 -46
10 -3 7 4 12 15 12 34 0 102 57 102 85 0 52 26 92 67 105 58 19 63 26 56 77
-5 40 -3 48 17 63 22 16 22 20 10 49 -7 18 -20 35 -29 40 -12 6 -226 8 -264 2
-4 0 -16 -15 -27 -33 l-19 -32 -9 25 c-5 13 -13 51 -16 84 -8 68 -17 84 -66
114 -25 15 -52 21 -91 21 -55 0 -57 -1 -62 -30 -4 -16 -12 -30 -19 -30 -8 0
-35 18 -62 40 -39 33 -56 40 -90 40 -23 0 -47 5 -53 11 -19 19 -41 3 -64 -44
-13 -27 -34 -51 -55 -62 -31 -16 -46 -16 -99 -1 -11 4 -27 2 -35 -4 -13 -8
-13 -13 -2 -31 21 -33 0 -42 -31 -13 -38 35 -36 72 7 107 19 15 39 27 44 27
12 0 22 24 22 53 0 37 -43 156 -59 162 -21 8 -194 24 -264 25 -42 0 -59 4 -63
15 -4 8 -13 15 -20 15 -38 0 -40 101 -3 120 15 8 19 22 19 60 0 49 -15 75 -26
46 -8 -21 -24 -10 -24 15 0 13 -12 25 -35 35 -49 20 -58 18 -75 -19 -9 -19
-30 -39 -52 -50 -30 -15 -38 -24 -38 -46 0 -36 -26 -70 -66 -87 -48 -20 -68
-18 -105 14 -27 22 -45 28 -103 32 l-70 5 -8 39 c-11 54 -21 63 -80 75 -27 6
-62 20 -75 31 -35 27 -43 25 -43 -9z m-840 -142 c0 -5 -4 -9 -10 -9 -5 0 -10
7 -10 16 0 8 5 12 10 9 6 -3 10 -10 10 -16z m280 -84 c7 -9 10 -18 7 -21 -10
-11 -37 5 -37 21 0 19 14 19 30 0z m170 -89 c0 -8 -4 -17 -9 -21 -12 -7 -24
12 -16 25 9 15 25 12 25 -4z m220 -76 c0 -38 -15 -76 -33 -83 -19 -7 -82 26
-82 44 0 8 10 15 21 17 12 2 34 16 49 32 32 34 45 31 45 -10z m-2336 -69 c3
-4 3 -11 0 -14 -8 -8 -34 3 -34 14 0 11 27 12 34 0z m716 -51 c0 -5 -4 -10
-10 -10 -5 0 -10 5 -10 10 0 6 5 10 10 10 6 0 10 -4 10 -10z m1610 -30 c0 -5
-7 -10 -16 -10 -8 0 -12 5 -9 10 3 6 10 10 16 10 5 0 9 -4 9 -10z m1030 -9 c0
-6 -16 -22 -35 -37 -38 -29 -60 -23 -53 12 4 24 88 48 88 25z m540 -31 c0 -5
-4 -10 -10 -10 -5 0 -10 5 -10 10 0 6 5 10 10 10 6 0 10 -4 10 -10z m-403
-147 c5 -15 -36 -28 -49 -15 -6 6 -7 15 -3 22 9 14 47 9 52 -7z m-1137 -60 c0
-18 -47 -28 -65 -13 -18 15 -19 34 -4 62 11 20 11 19 40 -8 16 -15 29 -34 29
-41z m2230 -2 c0 -6 -4 -13 -10 -16 -5 -3 -10 1 -10 9 0 9 5 16 10 16 6 0 10
-4 10 -9z m-5153 -23 c-3 -8 -6 -5 -6 6 -1 11 2 17 5 13 3 -3 4 -12 1 -19z
m4606 -122 c25 -19 21 -26 -13 -26 -23 0 -30 4 -30 20 0 23 17 25 43 6z
m-5303 -112 c0 -9 -7 -14 -17 -12 -25 5 -28 28 -4 28 12 0 21 -6 21 -16z
m3640 -40 c0 -14 -4 -23 -10 -19 -5 3 -10 15 -10 26 0 10 5 19 10 19 6 0 10
-12 10 -26z m2525 -24 c-3 -5 -10 -10 -16 -10 -5 0 -9 5 -9 10 0 6 7 10 16 10
8 0 12 -4 9 -10z m-2571 -21 c40 -23 46 -39 17 -39 -30 0 -51 11 -51 26 0 8
-4 14 -10 14 -5 0 -10 5 -10 10 0 15 15 12 54 -11z m1986 -5 c32 -13 43 -14
55 -4 12 10 18 10 30 0 22 -18 19 -28 -14 -45 -27 -14 -33 -13 -85 14 -42 21
-53 30 -44 39 15 15 10 15 58 -4z m-316 -56 c-36 -37 -64 -53 -64 -37 0 19 83
96 88 81 2 -8 -9 -27 -24 -44z m821 31 c0 -7 -8 -15 -17 -17 -18 -3 -25 18
-11 32 10 10 28 1 28 -15z m-688 -5 c5 -14 -11 -34 -27 -34 -3 0 -11 4 -19 9
-19 12 -6 41 19 41 11 0 23 -7 27 -16z m-273 -27 c15 -11 17 -17 7 -35 -16
-30 -39 -28 -51 4 -16 42 7 58 44 31z m-1505 -26 c7 -5 11 -14 7 -19 -9 -15
-36 -4 -36 14 0 16 9 18 29 5z m2201 -245 c0 -8 -7 -19 -15 -26 -12 -10 -16
-9 -21 4 -7 18 13 49 27 40 5 -3 9 -11 9 -18z m654 -71 c7 -28 -2 -75 -14 -75
-12 0 -33 68 -26 85 9 24 33 17 40 -10z m-4399 -76 c4 -6 5 -12 2 -15 -7 -7
-37 7 -37 17 0 13 27 11 35 -2z m3149 -5 c24 -9 19 -24 -8 -24 -26 0 -40 12
-29 24 8 8 17 8 37 0z m-613 -234 c12 -58 -22 -69 -50 -17 -12 22 -12 29 -1
42 20 25 43 13 51 -25z m-397 -82 c22 -31 20 -58 -3 -58 -48 0 -62 21 -41 61
14 25 25 24 44 -3z m-4346 -40 c3 -22 -1 -28 -16 -28 -25 0 -46 25 -38 46 10
27 51 13 54 -18z m2672 -7 c-5 -11 -15 -23 -22 -27 -7 -5 -8 -2 -3 7 21 37 44
55 25 20z m-926 -22 c36 -43 34 -98 -3 -64 -9 8 -26 23 -38 35 -13 11 -23 29
-23 40 0 30 34 25 64 -11z m1584 19 c-3 -7 -11 -13 -18 -13 -7 0 -15 6 -17 13
-3 7 4 12 17 12 13 0 20 -5 18 -12z m156 -27 c15 -16 15 -20 1 -31 -19 -16
-45 -6 -45 18 0 35 19 41 44 13z m904 -33 c7 -7 12 -18 12 -25 0 -19 -64 -47
-87 -38 -16 7 -15 9 10 18 34 13 35 25 2 33 -14 3 -25 10 -25 15 0 13 74 11
88 -3z m-4130 -121 c7 -33 -7 -67 -27 -67 -21 0 -31 19 -31 55 0 37 51 47 58
12z m-617 3 c18 -10 27 -40 12 -40 -10 0 -43 32 -43 42 0 11 7 10 31 -2z
m6439 -50 c0 -15 -137 -103 -152 -98 -7 3 8 17 35 34 27 16 60 39 73 52 27 23
44 28 44 12z m-6299 -10 c10 -6 19 -18 19 -27 0 -9 7 -25 17 -35 13 -15 14
-23 5 -43 -14 -30 -32 -33 -32 -6 0 11 -22 39 -50 64 -27 24 -46 47 -43 51 10
10 62 7 84 -4z m6155 -29 c-8 -13 -36 -15 -36 -3 0 4 5 13 12 20 14 14 34 0
24 -17z m854 -6 c7 -8 19 -15 26 -15 8 0 14 -4 14 -10 0 -5 -8 -10 -17 -10
-18 0 -53 28 -53 42 0 13 16 9 30 -7z m-214 -20 c4 -8 3 -22 0 -31 -5 -13 -9
-14 -21 -4 -8 7 -15 21 -15 31 0 23 28 25 36 4z m-2621 -5 c-3 -5 -10 -10 -16
-10 -5 0 -9 5 -9 10 0 6 7 10 16 10 8 0 12 -4 9 -10z m-5025 -20 c0 -21 -24
-28 -35 -10 -8 14 3 30 21 30 8 0 14 -9 14 -20z m967 -57 c-4 -17 -4 -17 -12
0 -4 9 -4 25 0 35 8 16 8 16 12 0 3 -10 3 -26 0 -35z m4172 13 c9 -10 9 -16 1
-21 -12 -7 -40 11 -40 26 0 14 26 10 39 -5z m2841 -29 c0 -20 -25 1 -28 24 -2
23 -2 23 13 5 8 -11 15 -24 15 -29z m-900 3 c12 -8 9 -10 -12 -10 -15 0 -30 5
-33 10 -8 13 25 13 45 0z m571 -17 c-8 -15 -10 -15 -11 -2 0 17 10 32 18 25 2
-3 -1 -13 -7 -23z m-7221 -85 c0 -11 -39 -20 -60 -13 -19 6 -28 44 -14 57 6 7
73 -33 74 -44z m4580 3 c0 -15 -29 -33 -45 -27 -28 10 -17 36 15 36 17 0 30
-4 30 -9z m388 -88 c2 -8 -6 -13 -22 -13 -25 0 -33 10 -19 24 10 10 36 3 41
-11z m-4918 -19 c0 -8 -4 -12 -10 -9 -5 3 -10 10 -10 16 0 5 5 9 10 9 6 0 10
-7 10 -16z m2940 9 c-1 -19 -19 -35 -34 -30 -21 8 -9 37 15 37 10 0 19 -3 19
-7z m5249 -16 c13 -16 5 -27 -21 -27 -11 0 -18 7 -18 20 0 23 22 27 39 7z
m-8139 -38 c0 -6 -4 -7 -10 -4 -5 3 -10 11 -10 16 0 6 5 7 10 4 6 -3 10 -11
10 -16z m48 -20 c-2 -6 -8 -10 -13 -10 -5 0 -11 4 -13 10 -2 6 4 11 13 11 9 0
15 -5 13 -11z m1842 -8 c0 -6 -4 -13 -10 -16 -5 -3 -10 1 -10 9 0 9 5 16 10
16 6 0 10 -4 10 -9z m-60 -11 c0 -5 -7 -10 -15 -10 -8 0 -15 5 -15 10 0 6 7
10 15 10 8 0 15 -4 15 -10z m-106 -78 c-30 -51 -46 -53 -32 -5 13 50 28 67 42
53 8 -8 5 -21 -10 -48z m3940 42 c7 -19 -10 -44 -30 -44 -16 0 -16 5 -8 38 7
26 29 29 38 6z m-6527 -26 c-3 -8 -6 -5 -6 6 -1 11 2 17 5 13 3 -3 4 -12 1
-19z m6293 -18 c5 -19 17 -31 48 -47 2 -1 -1 -10 -7 -21 -14 -26 -107 -85
-121 -77 -17 11 -11 49 14 86 14 20 28 48 32 63 8 32 26 29 34 -4z m-5132 -46
c30 -20 28 -34 -5 -34 -16 0 -37 -3 -48 -6 -28 -7 -58 42 -35 57 18 11 56 4
88 -17z m1517 6 c-10 -11 -20 -18 -23 -15 -7 6 18 35 31 35 5 0 2 -9 -8 -20z
m-1417 -27 c6 -19 -25 -16 -32 3 -4 11 -1 14 11 12 9 -2 18 -9 21 -15z m7832
-2 c0 -6 -4 -13 -10 -16 -5 -3 -10 1 -10 9 0 9 5 16 10 16 6 0 10 -4 10 -9z
m-3013 -63 c-3 -8 -6 -5 -6 6 -1 11 2 17 5 13 3 -3 4 -12 1 -19z m-4757 -23
c0 -9 -11 -27 -24 -40 -23 -23 -29 -24 -100 -18 -73 6 -76 5 -76 -15 0 -12 8
-25 18 -31 22 -13 5 -44 -27 -49 -12 -2 -21 -11 -21 -21 0 -10 -7 -25 -16 -32
-14 -11 -20 -9 -43 19 -28 34 -51 42 -51 17 0 -22 -17 -18 -30 5 -14 26 -7 37
35 54 22 10 35 22 37 38 2 17 18 31 58 51 50 25 62 27 132 22 47 -3 79 -1 83
5 9 15 25 12 25 -5z m2360 -11 c0 -9 -5 -14 -12 -12 -18 6 -21 28 -4 28 9 0
16 -7 16 -16z m2060 6 c0 -5 -12 -10 -26 -10 -14 0 -23 4 -19 10 3 6 15 10 26
10 10 0 19 -4 19 -10z m-3538 -42 c-15 -15 -26 -4 -18 18 5 13 9 15 18 6 9 -9
9 -15 0 -24z m3963 2 c-3 -5 -10 -10 -16 -10 -5 0 -9 5 -9 10 0 6 7 10 16 10
8 0 12 -4 9 -10z m-6405 -29 c0 -14 -18 -23 -30 -16 -6 4 -8 11 -5 16 8 12 35
12 35 0z m3174 -34 c12 -19 3 -32 -19 -24 -17 7 -21 51 -3 45 6 -2 16 -12 22
-21z m-2224 -42 c7 -8 22 -15 34 -15 33 0 75 -23 82 -44 4 -11 -2 -30 -15 -47
-12 -15 -21 -40 -21 -54 0 -14 -4 -25 -8 -25 -11 0 -124 68 -142 86 -11 11
-11 17 -2 26 7 7 12 29 12 50 0 33 3 38 24 38 13 0 29 -7 36 -15z m5395 -10
c-20 -17 -33 -21 -40 -14 -13 13 20 39 49 39 19 -1 18 -3 -9 -25z m1515 15 c0
-5 -9 -10 -21 -10 -11 0 -17 5 -14 10 3 6 13 10 21 10 8 0 14 -4 14 -10z
m-7078 -37 c25 -24 37 -53 23 -53 -16 0 -63 31 -69 45 -16 43 5 47 46 8z
m-237 -83 c9 -8 38 -15 64 -16 37 -2 46 -5 46 -20 0 -16 -9 -19 -55 -22 -59
-2 -103 14 -108 39 -1 9 2 29 9 45 10 27 12 28 19 9 4 -12 16 -27 25 -35z
m3303 -9 c3 -20 0 -22 -20 -16 -31 10 -33 12 -18 30 17 21 34 14 38 -14z
m-152 -13 c8 -12 -21 -38 -43 -38 -16 0 -17 22 -1 38 15 15 35 15 44 0z
m-2795 -19 c39 -17 51 -28 57 -52 5 -21 16 -33 32 -37 13 -3 28 -14 34 -25 6
-11 30 -43 54 -72 23 -28 42 -56 42 -62 0 -38 -44 -81 -75 -72 -5 2 -33 3 -60
2 -81 -1 -103 27 -45 56 43 22 54 65 21 83 -12 6 -30 28 -41 50 -24 47 -58 60
-95 36 -22 -15 -28 -15 -60 -2 -39 17 -50 35 -41 69 12 49 95 61 177 26z
m5887 -6 c-18 -18 -91 -24 -96 -8 -3 10 39 21 88 24 23 1 23 0 8 -16z m2119
-10 c3 -6 -10 -19 -26 -28 -26 -13 -31 -22 -31 -50 0 -19 -4 -35 -10 -35 -5 0
-10 7 -10 15 0 19 -31 35 -70 35 -46 0 -34 20 30 53 56 28 110 33 117 10z
m-3787 -23 c34 -23 56 -30 93 -30 49 0 58 -9 32 -30 -17 -14 -20 -40 -6 -40 6
0 13 5 17 11 4 7 9 8 17 0 14 -14 -2 -32 -63 -71 -34 -22 -51 -40 -55 -60 -9
-39 -27 -52 -72 -48 -35 3 -40 7 -65 58 -15 30 -28 60 -28 66 0 6 18 14 40 18
31 5 43 12 50 32 16 41 12 70 -12 86 -12 8 -18 19 -14 26 10 17 16 15 66 -18z
m-1370 -5 c8 -9 10 -26 5 -47 -4 -18 -7 -50 -7 -70 0 -35 -3 -38 -46 -52 -56
-20 -58 -20 -41 0 9 11 13 37 11 75 -3 51 0 62 22 84 29 29 39 31 56 10z
m2858 -42 c-5 -27 -88 -38 -88 -12 0 12 38 28 68 28 17 1 23 -4 20 -16z m1832
7 c0 -5 -4 -10 -9 -10 -6 0 -13 5 -16 10 -3 6 1 10 9 10 9 0 16 -4 16 -10z
m331 -30 c10 -6 19 -20 19 -30 0 -15 -7 -20 -28 -20 -16 0 -36 6 -47 13 -17
13 -17 15 6 30 28 20 25 20 50 7z m-2111 -25 c15 -18 5 -35 -21 -35 -14 0 -19
7 -19 25 0 28 21 33 40 10z m1835 -6 c9 -9 13 -23 9 -32 -7 -19 -35 -22 -51
-6 -7 7 -21 6 -48 -5 -21 -9 -42 -16 -46 -16 -13 0 -31 51 -24 68 7 20 139 13
160 -9z m-2329 -56 c-2 -3 -9 -2 -15 1 -7 5 -6 16 2 34 l12 27 3 -29 c2 -15 1
-30 -2 -33z m2964 32 c0 -8 -4 -15 -10 -15 -5 0 -10 7 -10 15 0 8 5 15 10 15
6 0 10 -7 10 -15z m-2652 -38 c2 -27 -1 -37 -11 -37 -15 0 -27 28 -27 63 0 12
6 17 18 15 12 -2 18 -14 20 -41z m72 7 c0 -15 -6 -24 -15 -24 -16 0 -19 17 -9
44 9 22 24 10 24 -20z m-230 -2 c0 -14 -23 -32 -42 -32 -21 0 -23 11 -6 28 13
13 48 16 48 4z m1860 -22 c0 -5 -4 -10 -10 -10 -5 0 -10 5 -10 10 0 6 5 10 10
10 6 0 10 -4 10 -10z m-2727 -39 c15 -15 -3 -50 -34 -67 -35 -17 -56 -10 -34
12 13 14 13 19 -1 46 l-16 31 38 -6 c20 -4 41 -10 47 -16z m97 9 c0 -5 -4 -10
-9 -10 -6 0 -13 5 -16 10 -3 6 1 10 9 10 9 0 16 -4 16 -10z m2930 -17 c19 -24
19 -28 5 -42 -20 -20 -198 -22 -217 -3 -16 16 -11 19 63 47 87 32 122 32 149
-2z m-2242 -5 c-3 -22 -93 -94 -102 -80 -10 17 24 69 55 85 45 22 51 21 47 -5z
m120 0 c-3 -7 -13 -15 -24 -17 -16 -3 -17 -1 -5 13 16 19 34 21 29 4z m297 2
c3 -5 0 -28 -7 -52 -9 -32 -10 -42 0 -46 20 -6 14 -27 -23 -82 -26 -39 -35
-62 -35 -95 0 -39 -2 -43 -30 -49 -17 -3 -33 -13 -37 -22 -8 -21 35 -56 60
-48 30 9 5 -28 -40 -59 -47 -33 -51 -33 -80 -6 -26 25 -31 19 -35 -46 -3 -39
-4 -40 -48 -47 -75 -13 -79 -17 -46 -43 34 -27 29 -39 -22 -55 -43 -14 -64
-30 -39 -30 13 0 17 -9 17 -33 0 -68 -51 -90 -65 -28 -4 17 -12 31 -19 31 -21
0 -96 -70 -96 -90 0 -30 23 -42 48 -24 19 13 22 13 32 -6 25 -46 -23 -85 -76
-62 -29 14 -45 9 -62 -19 -17 -26 0 -49 34 -49 45 0 28 -17 -65 -67 -41 -22
-45 -23 -68 -8 -15 10 -34 14 -49 11 -23 -6 -24 -4 -24 48 0 30 -5 67 -12 81
-17 37 0 48 77 53 67 4 71 7 56 31 -6 10 -5 22 5 35 13 19 11 24 -23 58 -29
29 -34 40 -25 51 7 8 9 27 6 46 -5 23 -2 37 12 52 18 20 18 21 -1 35 -10 8
-31 14 -47 14 -27 0 -27 1 -22 43 5 32 2 46 -10 56 -26 21 -19 34 35 66 28 17
57 42 65 58 14 26 44 38 44 16 0 -6 12 -9 27 -7 24 3 29 9 34 43 5 28 16 48
40 68 64 54 283 152 404 180 37 9 104 7 110 -3z m-5947 -18 c3 -9 -2 -13 -14
-10 -9 1 -19 9 -22 16 -3 9 2 13 14 10 9 -1 19 -9 22 -16z m1891 -14 c11 -6
26 -27 35 -46 11 -22 22 -32 31 -28 21 8 31 -15 11 -26 -24 -13 -20 -37 9 -50
27 -12 24 -28 -6 -28 -14 0 -19 -7 -19 -26 0 -52 -41 -91 -81 -79 -24 8 -77
116 -81 162 -2 36 7 52 39 64 l24 9 -30 26 c-17 14 -31 30 -31 36 0 13 73 3
99 -14z m5621 7 c0 -9 -51 -25 -61 -19 -17 10 1 24 32 24 16 0 29 -2 29 -5z
m420 -20 c0 -14 -4 -25 -9 -25 -12 0 -23 29 -15 41 10 18 24 9 24 -16z m-6405
-14 c3 -5 1 -13 -5 -16 -15 -9 -43 3 -35 15 8 13 32 13 40 1z m-329 -28 c-3
-16 -2 -35 3 -43 8 -12 13 -12 30 4 17 15 21 16 21 5 0 -28 -24 -39 -87 -39
-61 0 -63 1 -63 25 0 34 42 75 75 75 24 0 26 -3 21 -27z m3779 -13 c23 -51 29
-55 59 -34 24 15 27 15 55 -5 18 -13 32 -17 36 -11 4 7 12 7 25 0 10 -5 32
-10 49 -10 20 0 31 -5 31 -15 0 -7 8 -19 18 -25 15 -9 12 -14 -26 -49 -23 -21
-58 -46 -78 -56 -35 -16 -37 -16 -65 4 -15 12 -38 21 -49 21 -36 0 -59 19 -90
73 -33 58 -37 85 -14 94 11 4 14 13 10 29 -11 41 19 28 39 -16z m-4766 7 c13
-16 5 -27 -21 -27 -11 0 -18 7 -18 20 0 23 22 27 39 7z m281 -44 c0 -21 -28
-15 -40 8 -7 11 -9 28 -5 37 5 15 9 13 25 -8 11 -14 20 -31 20 -37z m4094 51
c9 -3 16 -10 16 -16 0 -14 -43 -5 -48 10 -4 13 7 15 32 6z m231 -5 c10 -15 -1
-23 -20 -15 -9 3 -13 10 -10 16 8 13 22 13 30 -1z m-4155 -24 c0 -8 -7 -15
-15 -15 -16 0 -20 12 -8 23 11 12 23 8 23 -8z m7230 -24 c0 -22 5 -43 10 -46
6 -3 10 -15 10 -26 0 -14 -7 -19 -30 -19 -41 0 -63 34 -51 78 13 44 19 52 42
52 16 0 19 -7 19 -39z m-3625 19 c-3 -5 -19 -10 -36 -10 -16 0 -29 5 -29 10 0
6 16 10 36 10 21 0 33 -4 29 -10z m-3677 -33 c16 -27 16 -29 0 -41 -10 -7 -18
-20 -18 -29 0 -20 -54 -77 -73 -77 -8 0 -25 9 -38 20 -23 19 -23 20 -5 35 10
8 22 16 25 17 12 6 51 68 51 81 0 37 35 33 58 -6z m6902 14 c0 -10 -7 -24 -16
-32 -13 -10 -17 -10 -24 1 -7 12 -12 11 -28 -3 -21 -19 -32 -22 -32 -7 0 12
70 60 87 60 7 0 13 -8 13 -19z m-5975 -21 c-5 -8 -11 -8 -17 -2 -6 6 -7 16 -3
22 5 8 11 8 17 2 6 -6 7 -16 3 -22z m-1425 10 c0 -5 -4 -10 -9 -10 -6 0 -13 5
-16 10 -3 6 1 10 9 10 9 0 16 -4 16 -10z m1360 -24 c0 -32 -27 -55 -36 -31 -8
20 13 68 26 60 6 -3 10 -17 10 -29z m-1025 14 c3 -6 -1 -13 -10 -16 -19 -8
-30 0 -20 15 8 14 22 14 30 1z m946 -43 c-8 -8 -11 -5 -11 9 0 27 14 41 18 19
2 -9 -1 -22 -7 -28z m-1059 7 c10 -21 9 -31 -3 -53 -11 -19 -14 -45 -11 -86 2
-33 -1 -72 -7 -87 -9 -24 -16 -28 -50 -28 -35 0 -43 4 -56 30 -23 45 -19 56
19 56 63 0 87 50 47 100 -19 25 -19 25 5 49 13 13 24 29 24 35 0 20 21 10 32
-16z m952 0 c23 -9 20 -37 -8 -63 -25 -24 -46 -21 -46 5 0 8 -9 22 -19 31 -11
9 -18 20 -15 25 6 9 65 11 88 2z m429 -26 c17 -22 18 -30 7 -43 -14 -17 -85
-21 -95 -5 -4 6 6 10 22 10 l28 1 -30 24 c-25 21 -28 27 -15 35 25 17 62 7 83
-22z m3042 12 c0 -7 -6 -15 -12 -17 -8 -3 -13 4 -13 17 0 13 5 20 13 18 6 -3
12 -11 12 -18z m2973 -8 c2 -7 -9 -17 -24 -22 -51 -20 -71 10 -20 30 25 10 38
8 44 -8z m-3428 -2 c0 -5 -7 -10 -16 -10 -8 0 -12 5 -9 10 3 6 10 10 16 10 5
0 9 -4 9 -10z m3240 -28 c0 -14 -23 -32 -42 -32 -21 0 -23 11 -6 28 13 13 48
16 48 4z m-6824 -31 c-8 -13 -36 -15 -36 -3 0 4 5 13 12 20 14 14 34 0 24 -17z
m6942 -35 c3 -22 0 -26 -22 -26 -19 0 -27 7 -32 24 -8 34 2 47 29 37 14 -5 23
-18 25 -35z m-7820 1 c4 -20 -25 -34 -39 -20 -14 14 1 45 20 41 9 -2 17 -11
19 -21z m1530 6 c5 -18 -10 -16 -34 2 -18 15 -18 15 5 13 14 -2 26 -9 29 -15z
m5967 3 c18 -13 17 -14 -13 -21 -32 -7 -52 -1 -52 15 0 7 12 13 41 19 3 0 14
-5 24 -13z m-2782 -18 c6 -17 -11 -48 -25 -48 -21 0 -58 -43 -58 -66 0 -34
-20 -41 -42 -14 -27 34 -23 58 15 74 17 8 46 26 62 40 34 29 42 31 48 14z
m4787 2 c0 -5 -7 -10 -16 -10 -8 0 -12 5 -9 10 3 6 10 10 16 10 5 0 9 -4 9
-10z m-7630 -15 c0 -9 9 -15 25 -15 30 0 31 -7 4 -36 -33 -36 -1 -100 44 -88
29 7 92 -35 92 -61 0 -31 -51 -31 -109 0 -27 14 -51 23 -54 20 -3 -3 4 -18 16
-35 32 -42 10 -46 -27 -5 -20 23 -31 46 -31 65 0 33 -2 35 -29 18 -30 -18 -51
-3 -51 37 0 39 -7 42 -36 20 -27 -20 -51 -18 -64 5 -13 25 -5 40 20 40 10 0
25 7 34 15 8 9 41 19 73 24 86 13 93 12 93 -4z m5340 -5 c0 -10 -26 -20 -53
-20 l-22 1 23 19 c21 18 52 18 52 0z m-6440 -21 c0 -5 -4 -9 -10 -9 -5 0 -10
7 -10 16 0 8 5 12 10 9 6 -3 10 -10 10 -16z m5630 6 c19 -23 4 -48 -25 -41
-17 4 -30 0 -44 -15 -24 -26 -19 -39 14 -39 39 0 55 -11 55 -36 0 -24 23 -33
35 -14 11 18 26 10 36 -20 13 -35 34 -39 49 -10 11 20 12 20 40 3 29 -16 30
-16 45 2 17 23 19 8 5 -30 -13 -35 0 -56 42 -70 19 -7 38 -23 46 -38 7 -15 21
-27 31 -27 10 0 21 -9 24 -20 3 -11 13 -23 24 -27 10 -3 24 -11 31 -17 8 -5
26 -10 40 -11 37 0 35 -26 -2 -36 -38 -10 -47 -26 -40 -67 5 -25 1 -40 -20
-67 -31 -40 -60 -45 -97 -17 -13 10 -38 24 -55 31 -48 19 -70 76 -82 210 -6
62 -15 118 -20 123 -20 20 -36 -35 -35 -117 0 -44 -4 -86 -10 -93 -7 -9 -7
-16 1 -24 7 -7 12 -18 12 -25 0 -17 -35 -34 -55 -27 -17 7 -17 17 0 71 6 18 0
29 -24 52 -26 25 -29 30 -16 41 8 7 15 16 15 21 0 16 -30 10 -73 -15 -51 -29
-94 -40 -102 -26 -4 6 -1 17 5 25 10 12 9 15 -4 15 -11 0 -16 9 -16 28 0 15
-7 36 -15 46 -8 11 -15 28 -15 38 0 15 -8 18 -50 18 -41 0 -56 5 -82 29 -37
33 -34 48 6 30 33 -15 40 -9 25 23 -8 19 -8 31 0 47 13 24 25 27 133 40 52 6
87 16 105 30 34 25 47 26 63 6z m-4280 -10 c0 -8 -7 -15 -15 -15 -16 0 -20 12
-8 23 11 12 23 8 23 -8z m3000 -3 c0 -13 -12 -22 -22 -16 -10 6 -1 24 13 24 5
0 9 -4 9 -8z m-3980 -23 c0 -5 -4 -9 -10 -9 -5 0 -10 7 -10 16 0 8 5 12 10 9
6 -3 10 -10 10 -16z m6215 -11 c-10 -45 -22 -56 -42 -36 -15 16 -15 19 1 42 9
14 23 26 32 26 12 0 14 -7 9 -32z m-7307 -20 c-18 -26 -38 -35 -38 -16 0 18
20 38 38 38 12 0 12 -3 0 -22z m4694 -13 c0 -5 -5 -11 -11 -13 -6 -2 -11 4
-11 13 0 9 5 15 11 13 6 -2 11 -8 11 -13z m2678 -6 c0 -5 -7 -9 -15 -9 -15 0
-20 12 -9 23 8 8 24 -1 24 -14z m-6253 -5 c-3 -3 -12 -4 -19 -1 -8 3 -5 6 6 6
11 1 17 -2 13 -5z m7829 -4 c26 -10 26 -12 10 -28 -15 -15 -19 -15 -43 -2 -55
31 -30 54 33 30z m-2131 -10 c7 -11 -23 -60 -36 -60 -13 0 -11 44 3 58 15 15
25 15 33 2z m-6295 -8 c0 -10 -22 -32 -32 -32 -13 0 -9 28 5 33 19 8 27 8 27
-1z m-250 -60 c0 -10 7 -27 15 -39 17 -24 2 -44 -18 -24 -6 6 -24 11 -40 11
-24 0 -28 4 -25 22 2 12 14 28 28 35 34 17 40 16 40 -5z m768 -29 c2 -8 -5
-13 -17 -13 -12 0 -21 6 -21 16 0 18 31 15 38 -3z m-985 -53 c32 -30 46 -50
36 -50 -8 0 -26 11 -39 25 -13 14 -27 25 -30 25 -4 0 -13 -20 -20 -44 -9 -34
-9 -49 0 -66 16 -29 8 -35 -15 -10 -12 13 -31 20 -57 20 -21 0 -38 5 -38 10 0
6 8 10 18 10 10 0 27 6 38 14 19 14 19 15 -4 45 l-22 30 22 21 c33 30 55 25
111 -30z m115 38 c-6 -18 -28 -21 -28 -4 0 9 7 16 16 16 9 0 14 -5 12 -12z
m3630 1 c-2 -6 -8 -10 -13 -10 -5 0 -11 4 -13 10 -2 6 4 11 13 11 9 0 15 -5
13 -11z m3122 -8 c0 -6 -4 -13 -10 -16 -5 -3 -10 1 -10 9 0 9 5 16 10 16 6 0
10 -4 10 -9z m-2818 -26 c0 -5 -5 -11 -11 -13 -6 -2 -11 4 -11 13 0 9 5 15 11
13 6 -2 11 -8 11 -13z m3032 6 c3 -4 -6 -19 -19 -31 -24 -22 -25 -22 -25 -4 0
31 31 56 44 35z m-6151 -34 c15 -10 27 -26 27 -37 0 -32 -24 -23 -53 20 -16
23 -25 67 -9 45 4 -6 19 -18 35 -28z m2712 13 c-3 -5 -10 -10 -16 -10 -5 0 -9
5 -9 10 0 6 7 10 16 10 8 0 12 -4 9 -10z m-595 -16 c0 -13 -21 -44 -30 -44
-14 0 -12 24 2 38 13 13 28 16 28 6z m3781 -37 c-17 -17 -24 -1 -10 25 12 21
14 21 17 4 2 -10 -1 -23 -7 -29z m-8104 7 c8 -22 -14 -33 -48 -24 -15 5 -30 6
-33 2 -3 -3 -6 0 -6 7 0 27 77 40 87 15z m8028 -5 c9 -29 -4 -38 -21 -15 -18
25 -18 36 0 36 8 0 18 -9 21 -21z m927 -41 c3 -20 8 -23 40 -20 20 1 39 -2 43
-8 3 -5 15 -10 26 -10 26 0 24 -26 -4 -45 -19 -12 -42 -14 -115 -9 -95 7 -112
15 -126 61 -6 17 -1 25 22 37 16 8 34 22 41 30 12 14 16 14 41 1 16 -8 30 -25
32 -37z m-657 32 c3 -5 -1 -10 -9 -10 -8 0 -18 5 -21 10 -3 6 1 10 9 10 8 0
18 -4 21 -10z m-1315 -31 c0 -5 -7 -9 -15 -9 -15 0 -20 12 -9 23 8 8 24 -1 24
-14z m4040 -10 c0 -6 -4 -7 -10 -4 -5 3 -10 11 -10 16 0 6 5 7 10 4 6 -3 10
-11 10 -16z m-8430 -20 c9 -37 65 -47 133 -24 95 32 116 -5 23 -40 -24 -9 -52
-15 -62 -13 -14 2 -20 -4 -22 -23 -2 -19 4 -31 25 -44 33 -21 72 -65 73 -82 0
-7 18 -24 40 -38 22 -14 39 -31 37 -37 -4 -23 34 -19 63 6 32 26 63 25 58 -3
-2 -9 -13 -17 -26 -19 -14 -2 -22 -10 -22 -23 0 -11 -5 -29 -10 -40 -9 -15
-15 -17 -30 -9 -19 10 -20 7 -20 -39 0 -34 -6 -56 -20 -72 l-19 -24 -1 22 c0
12 5 25 10 28 18 11 11 35 -10 35 -14 0 -25 -11 -34 -30 -7 -18 -27 -38 -47
-48 -19 -9 -35 -25 -37 -34 -3 -15 4 -18 41 -18 25 0 52 -3 61 -6 23 -9 20
-46 -6 -79 -17 -22 -19 -31 -10 -46 18 -28 15 -37 -18 -54 -22 -12 -35 -13
-49 -5 -11 5 -31 10 -45 10 -30 0 -58 34 -82 98 -10 26 -26 57 -36 69 -11 11
-22 39 -25 61 -5 36 -2 42 23 58 16 10 37 27 46 38 16 20 17 20 37 2 24 -21
41 -14 41 19 0 18 -4 22 -19 18 -10 -3 -32 2 -47 10 -27 14 -27 16 -9 22 51
17 70 41 38 51 -10 3 -31 11 -48 19 -16 7 -46 18 -66 25 -20 6 -47 22 -59 35
-13 14 -29 25 -35 25 -16 0 -50 38 -41 47 3 4 31 -1 62 -12 33 -11 58 -15 63
-9 5 5 11 47 13 92 3 69 7 86 23 98 25 18 38 13 45 -17z m494 25 c9 -3 16 -10
16 -15 0 -14 -26 -10 -40 6 -13 16 -3 20 24 9z m7141 -14 c-3 -5 -10 -10 -16
-10 -5 0 -9 5 -9 10 0 6 7 10 16 10 8 0 12 -4 9 -10z m-287 -42 c7 -7 12 -20
12 -30 0 -13 -8 -18 -30 -18 -34 0 -49 22 -30 45 15 18 32 19 48 3z m-9068
-29 c0 -11 -4 -17 -10 -14 -5 3 -10 13 -10 21 0 8 5 14 10 14 6 0 10 -9 10
-21z m3720 12 c48 -14 16 -101 -37 -101 -36 0 -60 16 -67 45 -14 56 28 78 104
56z m-982 -39 c3 -17 -2 -22 -18 -22 -25 0 -38 29 -19 41 20 13 34 6 37 -19z
m1272 19 c0 -13 -28 -22 -35 -11 -3 4 1 11 7 13 20 8 28 8 28 -2z m3350 -17
c0 -8 -4 -12 -10 -9 -5 3 -10 10 -10 16 0 5 5 9 10 9 6 0 10 -7 10 -16z m960
6 c0 -5 -11 -10 -25 -10 -14 0 -25 5 -25 10 0 6 11 10 25 10 14 0 25 -4 25
-10z m-6708 -42 c-15 -15 -24 -6 -16 16 5 12 10 14 17 7 8 -8 8 -14 -1 -23z
m508 3 c0 -6 -4 -13 -10 -16 -5 -3 -10 1 -10 9 0 9 5 16 10 16 6 0 10 -4 10
-9z m-1980 -20 c0 -6 -4 -13 -10 -16 -5 -3 -10 -19 -10 -36 0 -33 -10 -37 -32
-11 -25 29 -29 51 -10 61 22 13 62 14 62 2z m-420 -38 c6 -16 17 -39 24 -53
19 -34 4 -65 -18 -37 -7 9 -22 17 -32 17 -28 0 -64 28 -64 50 0 51 74 69 90
23z m6698 5 c16 -16 15 -45 -2 -51 -19 -7 -36 12 -36 40 0 25 19 30 38 11z
m1310 0 c11 -14 15 -38 13 -75 -1 -16 -7 -23 -21 -23 -14 0 -22 11 -31 39 -6
22 -9 47 -6 55 8 19 31 21 45 4z m540 -6 c3 -9 -2 -13 -14 -10 -9 1 -19 9 -22
16 -3 9 2 13 14 10 9 -1 19 -9 22 -16z m-2008 -28 c0 -18 -14 -18 -30 1 -16
19 -3 40 16 24 8 -6 14 -18 14 -25z m2080 22 c0 -15 -62 -66 -80 -66 -6 0 4
18 21 40 32 40 59 52 59 26z m-3507 -35 c2 -11 0 -24 -5 -29 -9 -9 -48 -5 -48
5 0 2 5 13 10 24 14 24 36 25 43 0z m2765 -5 c6 -13 20 -27 32 -31 31 -10 11
-29 -74 -72 -90 -45 -168 -95 -228 -145 -47 -39 -68 -42 -68 -10 0 9 -16 -7
-35 -35 -33 -50 -60 -73 -84 -73 -18 0 -12 18 14 43 32 29 25 51 -25 77 -20
10 -51 31 -68 45 l-32 26 34 35 c18 18 49 41 69 49 29 12 37 21 37 41 0 23 2
25 17 13 9 -8 22 -29 30 -46 11 -27 19 -33 44 -33 45 0 123 37 148 70 29 40
87 69 137 70 34 0 43 -4 52 -24z m-1465 -24 c-22 -5 -27 6 -12 24 12 15 14 14
20 -3 4 -12 1 -19 -8 -21z m2080 31 c9 -9 -13 -34 -24 -27 -14 8 -11 34 4 34
8 0 17 -3 20 -7z m-8319 -19 c20 -19 21 -54 2 -54 -17 0 -21 5 -30 43 -7 30 4
35 28 11z m9046 1 c0 -8 -7 -15 -16 -15 -14 0 -14 3 -4 15 7 8 14 15 16 15 2
0 4 -7 4 -15z m-5775 -41 c19 -19 15 -38 -8 -42 -11 -2 -21 6 -26 20 -15 39 5
51 34 22z m1455 -25 c0 -24 16 -25 29 -2 5 10 13 14 17 10 11 -10 -9 -41 -28
-45 -8 -2 -25 6 -39 16 -20 17 -21 22 -10 36 16 19 31 12 31 -15z m1910 16 c0
-8 -4 -15 -10 -15 -5 0 -10 7 -10 15 0 8 5 15 10 15 6 0 10 -7 10 -15z m-3065
-40 c24 -23 34 -65 16 -65 -8 0 -46 46 -65 78 -13 22 24 13 49 -13z m-3298 9
c-3 -3 -12 -4 -19 -1 -8 3 -5 6 6 6 11 1 17 -2 13 -5z m7508 -11 c-4 -10 -10
-28 -12 -40 -6 -26 -11 -27 -47 -13 -36 13 -33 38 7 55 45 20 61 19 52 -2z
m-2044 -16 c-13 -13 -26 -3 -16 12 3 6 11 8 17 5 6 -4 6 -10 -1 -17z m-6703
-15 c2 -7 -3 -12 -12 -12 -9 0 -16 7 -16 16 0 17 22 14 28 -4z m6362 -1 c0
-11 -7 -27 -16 -35 -18 -18 -17 -18 -38 -10 -23 9 -20 30 6 48 30 21 48 20 48
-3z m-2542 -38 c4 -41 -20 -45 -44 -8 -19 29 -11 47 19 43 17 -2 23 -11 25
-35z m512 21 c0 -8 -4 -12 -10 -9 -5 3 -10 10 -10 16 0 5 5 9 10 9 6 0 10 -7
10 -16z m670 -25 c0 -24 -12 -24 -34 0 -13 15 -14 20 -4 23 21 8 38 -3 38 -23z
m3630 12 c0 -27 -27 -51 -56 -51 -31 0 -55 -13 -117 -62 -27 -21 -59 -38 -70
-38 -22 1 -22 1 2 18 13 9 44 36 70 59 53 48 128 93 154 93 10 0 17 -8 17 -19z
m-5880 -13 c0 -13 -23 -5 -28 10 -2 7 2 10 12 6 9 -3 16 -11 16 -16z m1670 9
c0 -8 -9 -22 -20 -32 -27 -24 -47 -8 -31 24 13 23 51 29 51 8z m1338 2 c-2 -6
-8 -10 -13 -10 -5 0 -11 4 -13 10 -2 6 4 11 13 11 9 0 15 -5 13 -11z m-1778
-8 c0 -6 -4 -13 -10 -16 -5 -3 -10 1 -10 9 0 9 5 16 10 16 6 0 10 -4 10 -9z
m940 -16 c0 -8 12 -22 28 -32 32 -21 43 -34 36 -45 -10 -15 -43 -8 -70 15 -22
19 -26 29 -20 50 7 29 26 37 26 12z m-900 -11 c0 -17 -22 -14 -28 4 -2 7 3 12
12 12 9 0 16 -7 16 -16z m-120 -4 c0 -5 -4 -10 -10 -10 -5 0 -10 5 -10 10 0 6
5 10 10 10 6 0 10 -4 10 -10z m360 -10 c0 -20 -25 -38 -36 -27 -7 6 18 47 28
47 5 0 8 -9 8 -20z m-3934 -25 c-8 -23 -25 -9 -19 16 4 13 9 17 16 10 5 -5 7
-17 3 -26z m5802 -11 c-4 -33 -32 -54 -50 -36 -9 9 -7 17 12 37 30 32 42 32
38 -1z m-5383 -4 c3 -5 -3 -10 -14 -10 -12 0 -21 5 -21 10 0 6 6 10 14 10 8 0
18 -4 21 -10z m5220 -8 c0 -18 -20 -15 -23 4 -3 10 1 15 10 12 7 -3 13 -10 13
-16z m4840 8 c-3 -5 -13 -10 -21 -10 -8 0 -12 5 -9 10 3 6 13 10 21 10 8 0 12
-4 9 -10z m-6137 -23 c3 -16 1 -17 -17 -7 -25 13 -28 33 -4 28 10 -2 19 -11
21 -21z m-68 4 c0 -4 -9 -20 -21 -35 -14 -18 -19 -34 -15 -51 5 -20 3 -25 -12
-25 -21 0 -62 27 -62 41 0 5 7 9 15 9 8 0 21 13 30 29 8 16 20 31 27 34 21 9
38 8 38 -2z m1690 -12 c0 -5 -7 -9 -15 -9 -15 0 -20 12 -9 23 8 8 24 -1 24
-14z m1634 -15 c9 -24 7 -28 -9 -14 -17 14 -20 30 -6 30 5 0 12 -7 15 -16z
m1706 -26 c0 -17 -3 -18 -15 -8 -8 7 -15 21 -15 32 0 17 3 18 15 8 8 -7 15
-21 15 -32z m-8744 5 c6 -22 2 -31 -22 -49 -46 -37 -79 -40 -119 -9 -38 29
-46 55 -16 55 13 0 21 -8 23 -22 3 -22 11 -24 57 -14 8 1 17 9 19 17 6 18 33
49 43 49 5 0 12 -12 15 -27z m254 -44 c0 -11 -11 -37 -25 -59 -14 -22 -25 -46
-25 -55 0 -20 -85 -21 -97 -1 -4 8 -19 16 -33 18 -24 3 -22 5 24 41 27 20 59
37 71 37 12 0 28 7 35 15 10 13 9 19 -6 36 -16 17 -16 22 -4 30 18 11 60 -32
60 -62z m3270 41 c0 -11 -4 -20 -10 -20 -5 0 -10 2 -10 4 0 2 -3 11 -6 20 -4
11 -1 16 10 16 9 0 16 -8 16 -20z m1549 7 c12 -15 5 -27 -16 -27 -7 0 -13 9
-13 20 0 23 13 26 29 7z m61 -2 c7 -8 23 -15 36 -15 21 0 24 -5 24 -40 0 -36
3 -40 24 -40 18 0 27 8 35 30 12 36 22 37 56 8 16 -15 28 -39 34 -71 5 -27 19
-59 32 -73 24 -25 24 -26 5 -40 -11 -8 -36 -14 -56 -14 -34 0 -40 -5 -84 -69
-51 -75 -70 -89 -95 -67 -9 7 -32 17 -51 21 -19 4 -47 13 -61 21 -22 11 -29
11 -48 -2 -27 -19 -27 -50 0 -64 16 -9 25 -8 40 6 20 18 13 21 108 -43 2 -1
-15 -21 -38 -43 -40 -39 -51 -60 -31 -60 6 0 10 -5 10 -11 0 -7 -11 -9 -30 -5
-23 4 -36 0 -50 -14 -35 -35 -25 -42 53 -34 l72 7 -47 -42 c-25 -22 -62 -65
-81 -94 -20 -30 -43 -60 -52 -67 -10 -8 -21 -24 -26 -37 -10 -27 -22 -29 -39
-8 -10 12 -9 20 4 40 20 30 8 32 -39 6 -29 -15 -41 -17 -65 -8 l-29 11 25 29
c35 42 31 78 -11 116 -59 52 -103 37 -148 -49 -15 -29 -31 -46 -45 -48 -52 -8
-3 115 63 158 22 14 40 17 77 13 55 -7 60 2 23 37 -31 29 -30 64 3 68 28 4 30
42 2 49 -27 7 -25 22 7 55 37 39 57 36 76 -13 19 -48 31 -45 57 17 17 38 23
44 50 44 28 0 30 2 30 40 0 43 12 50 41 24 16 -14 19 -14 34 10 22 34 35 25
28 -19 -6 -35 -5 -35 32 -35 l37 0 -7 58 c-12 110 -16 272 -7 272 5 0 15 -7
22 -15z m3860 -6 c0 -5 -4 -9 -10 -9 -5 0 -10 7 -10 16 0 8 5 12 10 9 6 -3 10
-10 10 -16z m-6205 0 c12 -19 -5 -23 -22 -6 -16 16 -16 17 -1 17 9 0 20 -5 23
-11z m2083 -12 c5 -26 -24 -55 -62 -62 -17 -3 -46 -14 -63 -23 -27 -14 -35
-14 -45 -3 -10 10 -10 15 -1 18 7 2 34 21 60 42 70 55 104 64 111 28z m-3045
-15 c9 -8 17 -22 17 -30 0 -8 22 -61 49 -116 92 -190 120 -304 79 -330 -24
-15 -71 22 -78 60 -5 26 -10 29 -60 37 -76 10 -103 33 -114 93 -4 27 -7 66 -7
87 1 22 -9 63 -25 97 -25 55 -26 80 -3 80 5 0 9 -8 7 -17 -2 -10 4 -19 14 -21
12 -2 22 8 32 31 23 56 48 64 89 29z m2772 18 c3 -5 -1 -10 -9 -10 -9 0 -16 5
-16 10 0 6 4 10 9 10 6 0 13 -4 16 -10z m-525 -10 c0 -12 -28 -25 -36 -17 -9
9 6 27 22 27 8 0 14 -5 14 -10z m434 -24 c-4 -17 2 -33 25 -59 17 -19 31 -40
31 -46 0 -6 9 -25 20 -43 11 -18 20 -45 20 -60 0 -20 6 -27 22 -30 33 -5 32
-24 -1 -44 -17 -10 -31 -25 -31 -32 0 -27 -40 -80 -75 -101 -40 -23 -44 -36
-14 -44 12 -3 18 -10 14 -16 -3 -6 -10 -9 -15 -6 -5 3 -26 -4 -47 -15 -49 -26
-55 -25 -41 5 9 21 7 30 -16 63 -15 22 -28 52 -29 68 -2 25 1 29 21 26 33 -5
27 20 -11 43 -26 17 -32 27 -32 55 0 28 6 38 34 57 39 26 71 30 71 8 0 -22 22
-28 53 -16 36 14 35 40 -3 47 -39 8 -55 27 -36 43 11 9 12 18 3 41 -10 26 -8
33 13 55 29 31 32 31 24 1z m3056 3 c0 -6 -4 -7 -10 -4 -5 3 -10 11 -10 16 0
6 5 7 10 4 6 -3 10 -11 10 -16z m-2182 -1 c-6 -18 -28 -21 -28 -4 0 9 7 16 16
16 9 0 14 -5 12 -12z m2086 -4 c12 -5 14 -15 10 -49 -4 -26 -2 -45 5 -49 20
-13 11 -26 -34 -48 -53 -26 -72 -16 -31 17 l28 22 -31 11 c-49 17 -38 74 19
95 8 3 16 6 17 6 1 1 8 -2 17 -5z m-8437 -10 c-3 -3 -12 -4 -19 -1 -8 3 -5 6
6 6 11 1 17 -2 13 -5z m283 -29 c0 -28 -4 -35 -19 -35 -10 0 -24 7 -31 15 -10
13 -10 19 5 35 28 31 45 25 45 -15z m475 23 c27 -12 44 -53 28 -69 -5 -5 -23
-11 -40 -15 l-32 -6 3 48 c5 64 1 60 41 42z m9255 -12 c0 -18 -26 -40 -34 -27
-9 14 4 41 20 41 8 0 14 -6 14 -14z m-10035 -44 c0 -18 -20 -15 -23 4 -3 10 1
15 10 12 7 -3 13 -10 13 -16z m5655 -67 c0 -18 -2 -18 -35 -3 -27 12 -42 48
-29 69 9 15 64 -42 64 -66z m1908 37 c5 -16 -21 -15 -36 0 -7 7 -12 18 -12 26
0 12 3 12 22 0 12 -8 24 -20 26 -26z m142 -13 c0 -28 -4 -39 -12 -37 -18 6
-22 46 -8 64 18 21 20 18 20 -27z m-4529 21 c18 -10 27 -40 11 -40 -13 0 -52
30 -52 41 0 12 17 12 41 -1z m2011 -25 c-5 -50 -44 -120 -67 -120 -16 0 -21 8
-23 41 -3 34 2 47 30 78 39 44 64 44 60 1z m1431 20 c1 -5 -6 -11 -15 -13 -11
-2 -18 3 -18 13 0 17 30 18 33 0z m2017 -5 c0 -5 -4 -10 -9 -10 -6 0 -13 5
-16 10 -3 6 1 10 9 10 9 0 16 -4 16 -10z m-60 -14 c0 -3 -4 -8 -10 -11 -5 -3
-10 -1 -10 4 0 6 5 11 10 11 6 0 10 -2 10 -4z m-8870 -16 c0 -5 -9 -10 -20
-10 -11 0 -20 5 -20 10 0 6 9 10 20 10 11 0 20 -4 20 -10z m7148 -2 c9 -9 8
-16 -5 -30 -21 -23 -43 -23 -43 0 0 17 18 42 30 42 3 0 11 -5 18 -12z m-3694
-31 c6 -15 7 -30 3 -33 -12 -12 -37 18 -37 43 0 32 22 25 34 -10z m-2389 13
c3 -5 -3 -10 -14 -10 -12 0 -21 5 -21 10 0 6 6 10 14 10 8 0 18 -4 21 -10z
m5113 -12 c-7 -20 -34 -32 -54 -23 -18 8 -18 8 1 13 11 2 24 8 30 13 13 13 27
11 23 -3z m2363 -11 c-13 -13 -26 -3 -16 12 3 6 11 8 17 5 6 -4 6 -10 -1 -17z
m-4903 -8 c2 -12 -4 -15 -26 -11 -20 3 -37 -4 -59 -22 -35 -29 -43 -32 -43
-13 0 44 120 87 128 46z m-2408 -14 c9 -11 5 -18 -14 -30 -29 -19 -53 -14 -63
11 -14 36 50 51 77 19z m2088 -11 c43 -28 20 -52 -33 -34 -28 9 -35 17 -35 36
0 22 3 24 23 19 12 -4 32 -13 45 -21z m4344 11 c0 -5 -5 -11 -11 -13 -6 -2
-11 4 -11 13 0 9 5 15 11 13 6 -2 11 -8 11 -13z m1182 -38 c16 -8 7 -15 -63
-50 l-81 -40 -30 28 c-33 32 -34 34 -21 54 18 28 146 34 195 8z m2330 0 c15
-25 -24 -57 -70 -57 -41 0 -45 22 -12 57 26 28 65 27 82 0z m-7564 -7 c0 -5
-7 -10 -16 -10 -8 0 -12 5 -9 10 3 6 10 10 16 10 5 0 9 -4 9 -10z m7144 -5 c6
-18 -2 -45 -15 -45 -5 0 -9 14 -9 30 0 32 14 40 24 15z m-6411 -22 c23 -46 29
-83 14 -83 -15 0 -57 69 -57 94 0 26 28 18 43 -11z m4711 -14 c-7 -12 -54 -12
-54 0 0 11 30 19 47 13 7 -2 10 -8 7 -13z m-7810 -48 c0 -29 -7 -48 -22 -61
-40 -37 -59 -17 -21 21 13 13 19 28 16 41 -7 26 2 50 17 45 6 -2 11 -23 10
-46z m5456 -16 c0 -16 -6 -25 -15 -25 -18 0 -20 21 -3 38 17 17 18 16 18 -13z
m-3905 -15 c0 -7 -6 -15 -12 -17 -8 -3 -13 4 -13 17 0 13 5 20 13 18 6 -3 12
-11 12 -18z m2796 0 c26 -15 24 -40 -3 -40 -32 0 -52 15 -45 34 7 19 21 20 48
6z m-2461 -45 c10 -12 10 -15 -4 -15 -9 0 -16 7 -16 15 0 8 2 15 4 15 2 0 9
-7 16 -15z m1264 -1 c10 -27 7 -44 -9 -44 -18 0 -30 24 -21 45 7 20 22 19 30
-1z m3634 4 c-5 -15 -33 -22 -54 -14 -24 9 -6 26 27 26 20 0 29 -4 27 -12z
m2992 -8 c19 -19 28 -70 13 -70 -5 0 -17 7 -28 16 -14 10 -31 13 -57 9 -32 -6
-38 -4 -38 11 0 49 72 72 110 34z m-229 -16 c77 -39 -29 -97 -117 -64 l-28 11
30 18 c16 10 35 25 43 34 17 21 34 21 72 1z m-5206 -14 c3 -5 1 -10 -4 -10 -6
0 -11 5 -11 10 0 6 2 10 4 10 3 0 8 -4 11 -10z m-2509 -56 c9 -33 -18 -63 -39
-45 -19 15 -28 63 -15 78 15 18 46 -1 54 -33z m-1866 1 c20 -24 5 -47 -27 -39
-36 9 -36 9 -23 33 13 25 33 27 50 6z m1775 -25 c26 -51 15 -81 -24 -61 -24
13 -30 30 -24 64 7 35 29 34 48 -3z m-1985 10 c0 -5 -5 -10 -11 -10 -5 0 -7 5
-4 10 3 6 8 10 11 10 2 0 4 -4 4 -10z m5474 1 c8 -12 -18 -21 -57 -21 l-32 1
25 14 c29 16 56 19 64 6z m-6654 -21 c0 -5 -7 -10 -16 -10 -8 0 -12 5 -9 10 3
6 10 10 16 10 5 0 9 -4 9 -10z m2563 -24 c6 -16 -2 -28 -14 -20 -12 7 -11 34
0 34 5 0 11 -6 14 -14z m4207 -2 c0 -10 -7 -14 -22 -12 -32 5 -35 28 -4 28 17
0 26 -5 26 -16z m-5246 0 c26 -10 38 -41 26 -64 -9 -17 -21 -20 -80 -20 -70 0
-100 14 -100 46 0 10 13 14 49 14 31 0 53 5 61 15 14 17 21 18 44 9z m5376
-33 c0 -10 -30 -24 -37 -17 -3 3 -2 9 2 15 8 13 35 15 35 2z m1787 -23 c-3 -7
-5 -2 -5 12 0 14 2 19 5 13 2 -7 2 -19 0 -25z m1903 22 c0 -12 -33 -30 -54
-30 -23 0 -19 15 7 28 28 14 47 15 47 2z m-3490 -15 c0 -8 -4 -15 -9 -15 -5 0
-14 7 -21 15 -10 13 -9 15 9 15 12 0 21 -6 21 -15z m2740 -5 c0 -20 -25 -38
-37 -26 -5 5 24 46 34 46 1 0 3 -9 3 -20z m-8631 -13 c16 -19 24 -72 17 -101
-7 -28 -52 -56 -90 -56 -16 0 -32 10 -46 29 -11 17 -29 33 -40 36 -27 9 -25
35 3 35 12 0 42 16 67 35 49 37 71 43 89 22z m5605 -31 c-6 -26 -27 -35 -39
-16 -3 6 -19 10 -35 10 -15 0 -30 7 -33 15 -9 22 12 29 39 14 21 -11 27 -10
41 4 22 22 36 8 27 -27z m431 32 c31 -14 31 -21 1 -41 -28 -19 -86 -101 -86
-123 0 -9 10 -14 29 -14 22 0 30 -6 35 -25 5 -18 13 -25 30 -25 13 0 29 -7 36
-15 10 -12 9 -16 -6 -21 -35 -13 -64 -47 -64 -76 0 -22 9 -33 43 -55 60 -37
68 -52 51 -85 -20 -38 -18 -68 4 -68 42 0 54 -47 26 -101 -20 -40 -12 -59 26
-59 39 0 49 -24 27 -62 -23 -40 -21 -56 7 -69 l24 -11 -38 -34 c-43 -39 -50
-41 -50 -14 0 25 2 25 -65 -6 -61 -29 -75 -56 -75 -144 0 -49 -13 -70 -42 -70
-29 0 -21 -24 27 -73 67 -70 60 -78 -47 -56 -86 17 -85 16 -50 52 40 41 29 57
-40 57 -26 0 -59 5 -73 12 -36 16 -40 6 -16 -40 12 -23 18 -48 15 -56 -7 -19
-5 -19 -40 -1 -33 16 -151 17 -172 1 -15 -11 -32 7 -32 35 0 9 -8 27 -19 40
-10 13 -26 40 -36 59 -9 19 -28 47 -42 61 -21 23 -22 27 -8 39 8 7 15 16 15
21 0 10 -73 49 -93 49 -18 0 -53 38 -66 73 -14 36 -37 44 -62 21 -17 -16 -22
-16 -30 -4 -17 28 -29 85 -29 147 0 71 6 93 26 93 22 0 124 54 166 87 20 17
60 35 91 42 66 15 82 30 79 81 -2 34 0 38 28 43 36 8 39 29 8 50 -23 14 -23
15 -5 45 9 17 17 42 17 56 0 31 32 54 91 64 37 6 44 11 51 39 9 35 60 83 87
83 10 0 26 -9 36 -20 19 -21 50 -26 60 -10 3 6 21 10 39 10 19 0 39 7 46 15
15 18 31 19 65 3z m-3942 -37 c31 -30 39 -43 31 -51 -21 -21 -114 37 -114 72
0 30 38 21 83 -21z m-406 -3 c26 -24 31 -58 8 -58 -22 0 -55 37 -55 60 0 26
18 25 47 -2z m1193 -3 c0 -8 -4 -15 -9 -15 -13 0 -22 16 -14 24 11 11 23 6 23
-9z m3250 6 c0 -12 -20 -25 -27 -18 -7 7 6 27 18 27 5 0 9 -4 9 -9z m2157 -7
c3 -8 1 -20 -6 -27 -6 -6 -11 -19 -11 -28 0 -9 -11 -24 -24 -33 -14 -8 -27
-24 -31 -35 -6 -19 -33 -36 -42 -27 -3 2 7 22 21 43 24 35 25 39 9 51 -26 19
-53 14 -62 -10 l-8 -22 -12 21 c-14 28 -14 28 5 48 11 11 26 14 49 9 23 -4 41
-1 57 10 28 20 47 20 55 0z m-8603 -10 c7 -19 -1 -34 -19 -34 -15 0 -28 27
-19 41 9 14 31 10 38 -7z m9104 -8 c5 -23 -18 -39 -35 -24 -7 6 -13 19 -13 30
0 26 43 21 48 -6z m-8328 -17 c0 -20 -24 -26 -35 -9 -4 6 -4 17 -1 25 7 20 36
7 36 -16z m4890 -3 c0 -8 -4 -17 -9 -21 -12 -7 -24 12 -16 25 9 15 25 12 25
-4z m3358 -3 c-4 -20 -35 -30 -50 -15 -15 15 0 32 28 32 19 0 25 -5 22 -17z
m-1058 -15 c15 -10 22 -10 32 0 19 19 34 14 46 -13 20 -43 14 -55 -35 -77
l-47 -21 -28 32 c-35 39 -39 91 -8 91 11 0 29 -6 40 -12z m-2860 -42 c0 -11
-19 -15 -25 -6 -3 5 1 10 9 10 9 0 16 -2 16 -4z m90 -20 c0 -29 16 -36 85 -36
58 0 75 -11 54 -36 -10 -12 -23 -14 -54 -9 -52 7 -77 -14 -56 -47 7 -11 11
-21 9 -21 -53 -26 -62 -35 -75 -79 -12 -42 -62 -108 -83 -108 -4 0 -33 28 -64
61 -53 57 -56 63 -41 79 9 10 34 20 56 23 54 7 58 13 26 43 -22 20 -25 29 -17
44 15 29 60 60 87 60 16 0 27 8 33 25 12 32 40 33 40 1z m3730 14 c0 -5 -7
-10 -15 -10 -8 0 -15 5 -15 10 0 6 7 10 15 10 8 0 15 -4 15 -10z m-760 -65 c0
-14 -9 -44 -21 -66 -30 -60 -22 -69 43 -55 61 14 88 11 88 -10 0 -20 -25 -68
-44 -83 -9 -8 -16 -24 -16 -37 0 -29 -16 -32 -25 -5 -3 12 -18 21 -40 24 -84
14 -221 128 -199 165 13 21 87 59 133 68 29 6 33 5 28 -9 -3 -9 -2 -19 4 -22
5 -4 11 1 14 9 3 9 7 23 10 31 7 24 25 17 25 -10z m640 -26 c0 -16 -19 -9 -34
13 -21 30 -7 47 16 19 10 -13 18 -27 18 -32z m-8750 31 c8 -5 12 -12 9 -15 -8
-8 -39 5 -39 16 0 11 11 11 30 -1z m5544 -25 c-9 -13 -13 -33 -9 -44 12 -39
-45 -39 -66 0 -13 25 2 46 46 65 39 16 49 9 29 -21z m3601 25 c3 -5 1 -10 -4
-10 -6 0 -11 5 -11 10 0 6 2 10 4 10 3 0 8 -4 11 -10z m-4645 -25 c16 -19 3
-57 -18 -53 -18 3 -27 30 -18 54 7 18 20 18 36 -1z m-1600 -14 c0 -11 -26 -22
-34 -14 -12 12 -5 23 14 23 11 0 20 -4 20 -9z m2490 -22 c0 -18 -9 -71 -20
-118 -11 -47 -22 -104 -26 -125 -4 -29 -19 -53 -61 -98 -31 -32 -60 -58 -65
-58 -18 0 -6 79 21 135 30 61 31 75 5 75 -25 0 -11 34 16 40 19 4 26 14 30 40
4 28 10 35 38 42 17 5 32 11 32 14 0 3 -11 20 -25 38 -29 38 -25 46 22 46 30
0 33 -2 33 -31z m1278 15 c32 -22 26 -65 -11 -78 -48 -17 -107 43 -77 79 16
20 60 19 88 -1z m1571 -34 c0 -11 -3 -10 -14 4 -8 11 -15 27 -15 35 0 11 4 10
15 -5 8 -10 14 -26 14 -34z m-939 4 c0 -8 -4 -12 -10 -9 -5 3 -10 10 -10 16 0
5 5 9 10 9 6 0 10 -7 10 -16z m-4790 -19 c13 -16 7 -45 -9 -45 -14 0 -33 38
-26 50 9 14 21 12 35 -5z m7046 4 c3 -6 -1 -18 -10 -27 -19 -20 -69 -6 -74 21
-3 14 4 17 37 17 22 0 43 -5 47 -11z m-7116 -34 c24 -26 14 -33 -21 -15 -19
11 -27 40 -11 40 5 0 19 -11 32 -25z m5945 -5 c-5 -8 -11 -8 -17 -2 -6 6 -7
16 -3 22 5 8 11 8 17 2 6 -6 7 -16 3 -22z m-7575 -10 c0 -16 -4 -30 -10 -30
-11 0 -14 43 -3 53 11 12 13 8 13 -23z m3380 20 c0 -5 -9 -10 -21 -10 -11 0
-17 5 -14 10 3 6 13 10 21 10 8 0 14 -4 14 -10z m3090 -5 c0 -19 -39 -40 -52
-27 -6 6 -2 15 13 26 29 20 39 20 39 1z m-1687 -34 c13 -52 -86 -150 -138
-137 -38 10 -48 38 -29 86 15 36 21 42 77 59 67 20 83 19 90 -8z m2884 -38 c5
-35 2 -43 -22 -61 -35 -28 -49 -19 -30 18 8 16 15 48 15 72 0 38 1 41 16 27 8
-9 18 -34 21 -56z m-197 1 c0 -32 -4 -44 -12 -41 -12 4 -14 46 -4 74 10 25 16
13 16 -33z m-2586 -25 c-18 -20 -44 -26 -44 -9 0 6 12 23 27 38 24 24 28 25
31 9 2 -10 -4 -27 -14 -38z m-3146 29 c-5 -15 -48 -24 -48 -10 0 14 12 22 33
22 10 0 17 -5 15 -12z m822 3 c0 -12 -20 -25 -27 -18 -7 7 6 27 18 27 5 0 9
-4 9 -9z m3200 -1 c0 -5 -9 -14 -20 -20 -22 -12 -27 -1 -8 18 14 14 28 16 28
2z m140 -2 c0 -6 7 -19 16 -29 23 -25 10 -77 -23 -90 -25 -9 -90 -3 -114 12
-11 6 -11 11 -1 21 6 6 12 27 12 45 0 31 2 33 34 33 19 0 38 5 41 10 9 14 35
13 35 -2z m505 -28 c3 -6 0 -10 -7 -10 -15 0 -38 19 -38 32 0 10 36 -8 45 -22z
m95 1 c0 -14 -30 -41 -45 -41 -18 0 -28 17 -21 35 6 16 66 21 66 6z m-2400
-27 c0 -22 -2 -25 -15 -14 -8 7 -15 19 -15 26 0 8 7 14 15 14 10 0 15 -10 15
-26z m1947 -4 c-3 -11 -1 -23 4 -26 26 -15 -22 -84 -58 -84 -38 0 -28 55 20
108 25 27 41 29 34 2z m1800 4 c3 -8 1 -20 -6 -27 -14 -14 -47 15 -37 32 10
16 36 13 43 -5z m-8971 -59 c16 -39 19 -95 4 -95 -5 0 -10 6 -10 14 0 7 -7 19
-15 26 -21 18 -19 90 2 90 2 0 11 -16 19 -35z m5126 10 c0 -5 -5 -11 -11 -13
-6 -2 -11 4 -11 13 0 9 5 15 11 13 6 -2 11 -8 11 -13z m168 1 c0 -16 -18 -31
-27 -22 -8 8 5 36 17 36 5 0 10 -6 10 -14z m2235 4 c-3 -5 -10 -10 -16 -10 -5
0 -9 5 -9 10 0 6 7 10 16 10 8 0 12 -4 9 -10z m-4770 -25 c0 -15 -8 -21 -32
-23 -35 -3 -44 13 -21 36 19 19 53 10 53 -13z m7017 -11 c-5 -27 -18 -38 -36
-31 -20 8 -20 21 0 42 20 20 40 14 36 -11z m-2322 -28 c0 -19 -50 -77 -60 -71
-11 7 -1 46 18 68 18 21 42 22 42 3z m-2367 -46 c3 -11 2 -20 -3 -20 -4 0 -10
9 -13 20 -3 11 -2 20 3 20 4 0 10 -9 13 -20z m383 -11 c8 -14 -11 -33 -25 -25
-11 7 -4 36 9 36 5 0 12 -5 16 -11z m-4996 -15 c0 -8 -4 -12 -10 -9 -5 3 -10
10 -10 16 0 5 5 9 10 9 6 0 10 -7 10 -16z m6429 0 c9 -8 -10 -17 -56 -25 -37
-7 -50 -6 -62 6 -13 13 -12 15 10 24 21 9 97 5 108 -5z m-1869 -14 c0 -5 -5
-10 -11 -10 -5 0 -7 5 -4 10 3 6 8 10 11 10 2 0 4 -4 4 -10z m4568 -24 c3 -13
-1 -17 -14 -14 -11 2 -20 11 -22 22 -3 13 1 17 14 14 11 -2 20 -11 22 -22z
m-2012 -38 c-3 -29 -17 -102 -31 -162 -25 -111 -50 -156 -85 -156 -46 0 -51
52 -16 140 14 33 32 84 40 114 17 59 58 116 83 116 13 0 15 -9 9 -52z m-2136
2 c0 -15 -37 -12 -43 4 -3 8 -3 17 0 20 8 7 43 -12 43 -24z m-6080 -16 c0 -18
-14 -18 -30 1 -16 19 -3 40 16 24 8 -6 14 -18 14 -25z m5790 21 c17 -20 8 -50
-14 -50 -27 0 -43 29 -27 49 17 20 25 20 41 1z m2055 -16 c21 -39 16 -53 -13
-34 -12 9 -22 27 -22 41 0 33 16 30 35 -7z m-5995 -4 c-28 -30 -60 -33 -60 -7
0 26 9 32 48 32 l35 0 -23 -25z m6190 7 c21 3 30 0 30 -9 0 -20 -40 -136 -52
-150 -18 -23 -38 -15 -38 15 0 18 -10 35 -30 52 l-31 25 32 43 c25 34 34 40
45 31 8 -6 27 -9 44 -7z m-6630 -34 c0 -13 -23 -5 -28 10 -2 7 2 10 12 6 9 -3
16 -11 16 -16z m-455 -28 c-3 -6 -10 -10 -16 -10 -10 0 -12 33 -2 44 9 9 26
-22 18 -34z m4936 13 c22 -58 -21 -272 -66 -325 -16 -19 -24 -37 -19 -47 19
-46 17 -51 -14 -51 -32 0 -46 -12 -71 -63 -13 -25 -22 -32 -46 -32 -29 0 -30
2 -35 55 -6 57 -18 88 -44 110 -9 7 -16 16 -16 21 0 16 22 9 56 -16 32 -24 74
-34 74 -17 0 5 12 14 26 21 l26 11 -26 31 c-27 32 -34 77 -15 96 9 9 9 19 1
40 -6 15 -12 37 -14 48 -2 11 -10 20 -18 20 -27 0 -26 19 3 33 15 7 27 19 27
26 0 9 14 13 45 12 37 -1 49 4 70 27 14 15 30 27 36 27 5 0 14 -12 20 -27z
m159 6 c0 -42 -24 -100 -55 -137 -28 -32 -34 -35 -49 -23 -9 7 -16 27 -16 43
0 25 3 28 14 19 11 -9 15 -4 20 27 3 22 15 51 27 65 25 33 59 36 59 6z m1710
-33 c0 -19 -49 -58 -69 -54 -29 6 -22 27 16 47 46 24 53 25 53 7z m-7485 -25
c3 -10 3 -26 -1 -35 -7 -18 -39 -22 -49 -6 -3 6 -15 10 -26 10 -23 0 -24 13
-3 34 22 23 71 21 79 -3z m9205 -11 c0 -5 -7 -10 -15 -10 -8 0 -15 5 -15 10 0
6 7 10 15 10 8 0 15 -4 15 -10z m-3286 -67 l-19 -28 -3 28 c-2 16 -1 36 3 45
5 14 7 14 22 -1 15 -15 15 -18 -3 -44z m1806 -51 c0 -10 -5 -23 -12 -30 -17
-17 -48 -15 -48 2 0 14 36 46 52 46 5 0 8 -8 8 -18z m-2050 -26 c0 -16 -27
-29 -42 -20 -7 5 -4 12 7 21 24 17 35 17 35 -1z m1968 -69 c9 -18 21 -27 37
-27 55 0 72 -48 55 -163 -37 -261 -114 -458 -224 -573 -67 -70 -84 -75 -143
-47 -41 19 -55 50 -51 112 3 39 7 47 33 60 17 7 46 22 65 33 19 10 52 27 72
36 45 20 47 30 12 62 -17 17 -23 31 -20 46 4 13 -2 31 -13 45 -53 68 -28 100
33 40 47 -46 71 -54 61 -18 -21 68 -50 118 -86 147 -58 46 -76 88 -60 140 14
48 24 50 41 11 6 -16 20 -37 31 -47 17 -15 19 -15 25 -1 3 9 14 19 24 22 11 4
16 12 13 24 -3 12 5 26 26 40 24 18 30 27 25 46 -12 50 21 59 44 12z m-7357
-30 c-8 -8 -11 -5 -11 9 0 27 14 41 18 19 2 -9 -1 -22 -7 -28z m5524 33 c3 -5
1 -19 -6 -32 -10 -18 -8 -24 7 -35 10 -7 28 -13 41 -13 13 0 23 -4 23 -10 0
-15 -39 -32 -60 -25 -44 14 -71 125 -31 125 11 0 23 -4 26 -10z m125 -13 c0
-15 -29 -57 -30 -42 0 6 3 20 6 33 7 24 24 31 24 9z m-6402 -20 c3 -14 -1 -18
-20 -15 -12 2 -24 11 -26 21 -3 14 1 18 20 15 12 -2 24 -11 26 -21z m670 7
c-4 -23 -53 -58 -68 -49 -8 5 -3 16 16 36 31 32 57 38 52 13z m5836 -16 c5 -9
7 -20 3 -24 -8 -8 -57 23 -57 37 0 16 42 6 54 -13z m1146 -45 c0 -5 -10 -23
-23 -42 -12 -19 -27 -42 -32 -50 -6 -9 -14 -21 -18 -28 -6 -9 -19 -7 -54 8
-26 11 -53 25 -61 31 -14 12 0 18 104 47 23 6 47 18 54 26 13 16 30 20 30 8z
m-1232 -21 c3 -9 -2 -13 -14 -10 -9 1 -19 9 -22 16 -3 9 2 13 14 10 9 -1 19
-9 22 -16z m82 3 c0 -8 -9 -15 -20 -15 -20 0 -26 11 -13 23 12 13 33 7 33 -8z
m-1149 -10 c0 -5 -7 -12 -16 -13 -23 -5 -47 6 -40 19 8 13 56 8 56 -6z m-1733
-21 l37 -15 -29 -26 -29 -25 -16 20 c-9 12 -28 26 -43 31 -16 6 -28 15 -28 21
0 15 66 12 108 -6z m-2983 -4 c-3 -5 -10 -10 -16 -10 -5 0 -9 5 -9 10 0 6 7
10 16 10 8 0 12 -4 9 -10z m5325 -50 c0 -5 -4 -10 -10 -10 -5 0 -10 5 -10 10
0 6 5 10 10 10 6 0 10 -4 10 -10z m-1115 -40 c-3 -5 -10 -10 -16 -10 -5 0 -9
5 -9 10 0 6 7 10 16 10 8 0 12 -4 9 -10z m-3425 -25 c-7 -9 -15 -13 -18 -10
-3 2 1 11 8 20 7 9 15 13 18 10 3 -2 -1 -11 -8 -20z m4328 -24 c4 -27 29 -38
52 -23 24 15 126 7 122 -9 -5 -19 -82 -108 -104 -120 -11 -6 -29 -31 -40 -57
-15 -34 -22 -42 -25 -29 -3 10 1 32 7 48 15 34 7 87 -21 138 -22 41 -26 85 -6
79 6 -3 13 -15 15 -27z m-478 -1 c0 -5 -7 -10 -16 -10 -8 0 -12 5 -9 10 3 6
10 10 16 10 5 0 9 -4 9 -10z m-5277 -53 c6 -19 6 -32 -1 -39 -17 -17 -42 10
-42 44 0 39 29 35 43 -5z m3407 -33 c0 -8 -7 -14 -17 -14 -15 0 -15 -1 0 -18
24 -26 21 -33 -10 -26 -35 8 -68 38 -58 54 18 29 85 32 85 4z m148 14 c16 -16
15 -38 -2 -38 -19 0 -48 29 -41 41 8 13 29 11 43 -3z m-3990 -52 c6 -30 -17
-45 -34 -22 -8 11 -14 26 -14 34 0 21 44 10 48 -12z m4990 -14 c-4 -23 -41
-27 -58 -6 -12 14 -12 18 4 30 23 17 59 1 54 -24z m1888 -28 c20 -30 29 -113
15 -134 -8 -11 -18 -12 -48 -4 -63 16 -104 -5 -49 -26 13 -5 27 -14 31 -19 10
-17 -36 -30 -63 -18 -18 8 -27 6 -47 -13 -15 -14 -31 -21 -45 -17 -17 4 -20 0
-20 -31 0 -21 -9 -55 -19 -77 -55 -114 -62 -155 -26 -155 23 0 18 -20 -20 -80
-41 -64 -45 -107 -12 -145 27 -32 50 -26 67 16 l12 29 35 -30 c27 -24 43 -30
78 -30 40 0 46 -3 60 -31 13 -24 14 -33 4 -45 -10 -13 -30 -14 -109 -9 -129
10 -151 -1 -310 -151 -182 -171 -240 -202 -240 -128 0 25 -15 33 -22 12 -6
-17 -28 0 -39 30 -7 19 -7 33 2 49 11 20 9 26 -9 46 -55 59 -99 215 -109 392
-5 85 -3 102 11 114 9 7 16 20 16 28 0 18 87 103 106 103 11 0 13 -9 8 -39 -8
-47 5 -57 40 -30 14 11 30 17 36 14 21 -13 8 -34 -33 -54 -55 -27 -112 -84
-104 -105 9 -23 28 -20 80 15 57 38 73 30 83 -38 l7 -46 14 26 c7 15 20 27 28
27 8 0 19 17 25 39 13 48 37 72 51 50 10 -16 12 -27 13 -88 1 -24 6 -46 12
-48 18 -6 44 25 44 52 0 17 6 25 23 27 35 5 26 56 -27 146 -25 43 -46 89 -46
102 0 21 -3 22 -38 16 -84 -13 -98 43 -32 130 48 64 64 73 89 49 18 -16 20
-15 26 4 7 24 32 27 59 6 11 -8 32 -15 48 -15 24 0 28 -4 28 -30 0 -19 5 -30
14 -30 17 0 56 47 56 67 0 26 50 35 99 19 25 -8 48 -13 52 -10 4 2 10 21 14
41 9 49 12 53 40 53 15 0 31 -10 41 -26z m-1341 -49 c0 -10 -6 -20 -12 -22 -8
-3 -13 5 -13 22 0 17 5 25 13 23 6 -3 12 -13 12 -23z m2810 -25 c-3 -5 -10
-10 -16 -10 -5 0 -9 5 -9 10 0 6 7 10 16 10 8 0 12 -4 9 -10z m-575 -20 c0 -5
-7 -10 -16 -10 -8 0 -12 5 -9 10 3 6 10 10 16 10 5 0 9 -4 9 -10z m350 -25
c20 -24 -2 -41 -24 -20 -16 16 -14 35 3 35 5 0 14 -7 21 -15z m-7737 -39 c6
-15 -1 -26 -15 -26 -4 0 -8 9 -8 20 0 23 15 27 23 6z m-287 -80 c38 -38 44
-78 17 -108 -25 -28 -55 -22 -101 23 -46 45 -52 67 -24 91 41 37 67 35 108 -6z
m1784 -26 c0 -12 -28 -25 -36 -17 -9 9 6 27 22 27 8 0 14 -5 14 -10z m-2059
-43 c-13 -13 -26 -3 -16 12 3 6 11 8 17 5 6 -4 6 -10 -1 -17z m6379 8 c0 -8
-4 -15 -10 -15 -5 0 -10 7 -10 15 0 8 5 15 10 15 6 0 10 -7 10 -15z m180 -67
c0 -6 -11 -1 -25 12 -14 13 -25 31 -25 39 1 11 8 8 25 -12 14 -15 25 -33 25
-39z m306 -65 c-11 -11 -19 6 -11 24 8 17 8 17 12 0 3 -10 2 -21 -1 -24z
m-6756 3 c0 -16 -18 -31 -27 -22 -8 8 5 36 17 36 5 0 10 -6 10 -14z m840 -6
c0 -5 -7 -10 -16 -10 -8 0 -12 5 -9 10 3 6 10 10 16 10 5 0 9 -4 9 -10z m-504
-45 c13 -51 -18 -69 -80 -45 -35 13 -33 29 4 36 16 4 35 13 41 20 17 21 28 17
35 -11z m670 -5 c24 0 54 -39 54 -70 0 -16 -3 -30 -6 -30 -18 0 -44 24 -44 40
0 12 -12 26 -30 35 -30 16 -32 42 -3 31 8 -3 21 -6 29 -6z m4742 -26 c-9 -9
-24 -14 -32 -11 -27 11 -17 27 16 27 30 0 31 -1 16 -16z m-1498 -9 c0 -8 -9
-15 -20 -15 -22 0 -27 15 -7 23 21 9 27 7 27 -8z m70 -10 c7 -8 19 -15 26 -15
31 0 11 -17 -31 -27 -53 -12 -64 -3 -41 32 19 29 29 31 46 10z m3952 -2 c9
-10 23 -33 32 -51 21 -41 8 -49 -55 -32 -50 13 -89 45 -89 71 0 30 88 39 112
12z m-6712 -18 c0 -8 -9 -24 -21 -36 -27 -27 -94 -24 -94 5 0 18 39 34 108 45
4 0 7 -6 7 -14z m466 -29 c28 -22 3 -41 -49 -37 -23 1 -34 30 -16 42 20 13 43
11 65 -5z m3864 -8 c0 -24 -26 -127 -33 -135 -7 -6 -47 62 -47 79 0 16 57 78
72 78 4 0 8 -10 8 -22z m-4655 -17 c-3 -6 -21 -18 -40 -25 -18 -8 -43 -28 -56
-45 -28 -38 -42 -39 -57 -6 -22 47 -16 65 21 66 17 0 52 8 77 19 44 18 69 13
55 -9z m185 -19 c0 -13 -12 -22 -22 -16 -10 6 -1 24 13 24 5 0 9 -4 9 -8z
m5490 -23 c0 -25 -25 -35 -45 -19 -21 17 -19 29 8 39 27 11 37 6 37 -20z
m-5550 -20 c0 -29 -22 -49 -54 -49 -39 0 -64 21 -44 37 29 23 98 31 98 12z
m6800 -4 c0 -8 -4 -15 -9 -15 -5 0 -11 7 -15 15 -3 9 0 15 9 15 8 0 15 -7 15
-15z m-3940 -60 c0 -16 -27 -32 -37 -21 -7 7 16 36 28 36 5 0 9 -7 9 -15z
m2747 -20 c-4 -8 -14 -15 -23 -15 -16 0 -16 2 1 20 20 22 31 20 22 -5z m-5895
0 c0 -5 -5 -11 -11 -13 -6 -2 -11 4 -11 13 0 9 5 15 11 13 6 -2 11 -8 11 -13z
m-185 -70 c9 -24 -3 -29 -38 -15 -28 12 -30 15 -13 21 30 12 44 10 51 -6z
m453 -4 c7 -13 7 -22 0 -26 -15 -9 -30 4 -30 26 0 25 16 25 30 0z m957 -6 c2
-6 -3 -19 -11 -30 -12 -16 -16 -17 -30 -6 -9 7 -16 22 -16 33 0 15 6 19 27 16
14 -2 28 -8 30 -13z m-67 -33 c0 -25 -19 -42 -47 -42 -29 0 -30 23 0 43 30 21
47 21 47 -1z m-610 -12 c0 -19 -11 -26 -23 -14 -8 8 3 34 14 34 5 0 9 -9 9
-20z m1671 -5 c-1 -15 -24 -12 -29 3 -3 9 2 13 12 10 10 -1 17 -7 17 -13z
m-878 -11 c3 -4 -1 -16 -9 -29 -8 -12 -13 -33 -12 -46 2 -13 -2 -24 -9 -24 -7
0 -18 -6 -24 -12 -17 -17 -34 -16 -49 2 -7 8 -16 13 -20 10 -15 -9 -21 14 -10
34 6 12 26 23 46 27 24 4 38 13 41 25 5 18 33 26 46 13z m-1093 -65 c0 -21
-22 -38 -28 -21 -2 7 -10 19 -18 26 -17 18 -18 28 -1 45 10 10 15 8 30 -10 9
-11 17 -29 17 -40z m3021 44 c9 -9 3 -21 -25 -49 l-37 -37 -25 26 c-14 15 -35
27 -47 27 -12 0 -29 5 -37 10 -13 9 -12 13 5 26 24 18 147 16 166 -3z m-3397
-12 c10 -16 -6 -41 -36 -57 -41 -21 -46 -11 -14 31 27 36 40 42 50 26z m5886
-26 c0 -40 7 -42 52 -15 18 11 43 20 56 20 31 0 28 -28 -5 -40 -84 -31 -99
-57 -58 -100 24 -25 26 -33 20 -69 -6 -36 -5 -41 13 -41 11 0 30 8 43 18 13
11 39 22 56 25 78 15 110 66 51 83 -17 5 -34 16 -36 23 -3 10 1 12 14 9 11 -3
51 -13 89 -23 39 -10 87 -26 108 -37 41 -21 161 -58 189 -58 10 0 26 16 37 39
24 46 35 51 114 51 49 0 73 6 117 29 l55 29 45 -18 c25 -9 69 -23 98 -30 30
-7 52 -18 52 -25 0 -20 -124 -296 -182 -405 -130 -247 -314 -465 -457 -541
-42 -22 -137 -83 -211 -135 -74 -52 -154 -103 -178 -114 -23 -11 -41 -24 -38
-28 2 -4 -2 -22 -9 -40 -11 -24 -20 -32 -40 -32 -33 0 -94 26 -121 51 l-22 20
-25 -33 c-14 -18 -54 -87 -88 -153 -79 -151 -105 -190 -114 -175 -4 7 -14 85
-21 174 -14 172 -17 184 -61 291 -61 145 -82 279 -90 585 -9 335 -14 318 166
479 46 41 91 88 101 104 10 16 29 37 43 46 13 9 36 24 51 35 32 23 75 34 139
35 l47 1 0 -35z m-6040 -10 c0 -8 -4 -15 -10 -15 -5 0 -10 7 -10 15 0 8 5 15
10 15 6 0 10 -7 10 -15z m4980 -5 c0 -24 -26 -38 -42 -22 -16 16 -2 42 22 42
13 0 20 -7 20 -20z m1430 1 c0 -12 -20 -25 -27 -18 -7 7 6 27 18 27 5 0 9 -4
9 -9z m150 -20 c0 -27 -13 -33 -35 -17 -21 15 -12 36 16 36 12 0 19 -7 19 -19z
m238 -10 c3 -8 -1 -12 -9 -9 -7 2 -15 10 -17 17 -3 8 1 12 9 9 7 -2 15 -10 17
-17z m-6400 -18 c-3 -30 -25 -42 -34 -19 -9 22 2 46 21 46 12 0 15 -8 13 -27z
m182 -13 c0 -16 -5 -30 -10 -30 -14 0 -24 26 -16 45 10 26 26 16 26 -15z m374
24 c9 -3 16 -12 16 -19 0 -7 10 -20 23 -28 19 -14 20 -18 7 -26 -21 -15 -50
-13 -50 2 0 8 -9 22 -20 32 -15 14 -17 21 -9 32 13 15 12 15 33 7z m3980 -53
c10 -11 21 -41 24 -68 8 -53 34 -68 41 -23 3 26 58 90 77 90 16 0 44 -72 44
-112 0 -17 -5 -48 -12 -70 -10 -35 -10 -40 10 -54 37 -26 53 -112 102 -564 16
-151 33 -292 36 -312 5 -27 3 -38 -6 -38 -10 0 -140 128 -140 138 0 2 -16 19
-35 39 -19 20 -35 40 -35 45 0 16 -91 137 -156 209 -56 60 -64 74 -64 108 0
21 5 52 11 69 14 40 -2 72 -36 72 -49 0 -56 8 -37 46 15 32 15 38 -3 90 -18
54 -18 55 3 84 27 36 27 34 0 70 -17 24 -19 32 -8 45 7 8 26 15 42 15 17 0 39
10 53 25 28 27 30 37 14 66 -22 43 41 68 75 30z m-4644 -40 c0 -20 -9 -36 -26
-50 -50 -39 -58 -22 -19 39 30 47 45 51 45 11z m2802 2 c31 -30 35 -58 13 -87
-21 -27 -19 -46 5 -46 15 0 20 -7 20 -25 0 -13 9 -33 21 -43 l20 -19 -36 -22
c-19 -11 -45 -36 -56 -55 -15 -26 -27 -35 -47 -35 -91 -1 -164 -10 -177 -21
-8 -7 -15 -27 -15 -45 0 -26 -9 -41 -46 -75 -25 -23 -48 -40 -51 -37 -2 3 4
23 15 44 54 107 53 103 36 110 -24 9 -63 -14 -82 -47 -21 -36 -28 -37 -36 -6
-9 35 9 75 39 86 14 5 25 17 25 27 0 31 36 79 70 93 26 11 41 11 76 2 55 -15
89 -15 115 -1 18 9 20 17 14 74 -7 63 -7 65 20 77 23 10 26 17 23 45 -2 18 -2
33 1 33 3 0 18 -12 33 -27z m403 15 c31 -14 28 -26 -15 -55 -60 -41 -67 -32
-39 45 10 25 18 27 54 10z m-295 -58 c0 -42 -12 -52 -28 -23 -6 11 -6 25 1 40
16 35 27 28 27 -17z m-560 -66 c0 -10 -7 -14 -22 -12 -32 5 -35 28 -4 28 17 0
26 -5 26 -16z m-2403 -89 c3 -9 3 -19 -1 -22 -8 -9 -37 18 -30 28 8 14 24 11
31 -6z m3131 -157 c7 -7 12 -19 12 -27 0 -16 -48 -71 -62 -71 -15 0 -8 78 8
94 19 19 26 20 42 4z m-444 -21 c8 -12 7 -21 -6 -33 -20 -20 -38 -11 -38 20 0
39 23 46 44 13z m600 -23 c3 -9 6 -32 6 -53 0 -20 5 -42 10 -47 21 -21 -34
-114 -66 -114 -6 0 -15 15 -18 33 -4 20 -22 49 -46 72 -22 22 -40 42 -40 46 0
3 20 14 44 23 24 9 52 26 61 36 22 24 41 26 49 4z m-1054 -3 c0 -12 -20 -25
-27 -18 -7 7 6 27 18 27 5 0 9 -4 9 -9z m-86 -34 c-3 -9 -12 -17 -20 -17 -17
0 -19 37 -1 43 18 7 29 -7 21 -26z m-187 -24 c-3 -3 -11 -2 -17 2 -9 6 -9 10
1 16 14 8 27 -7 16 -18z m693 -28 c0 -25 -23 -35 -35 -15 -10 16 2 40 20 40 9
0 15 -9 15 -25z m195 -19 c-10 -6 -33 -26 -52 -44 -40 -40 -58 -37 -58 9 0 33
2 34 50 45 58 12 90 7 60 -10z m-379 -44 c-8 -23 -40 -34 -55 -19 -11 11 3 46
23 59 17 11 39 -17 32 -40z m-306 29 c0 -6 -4 -13 -10 -16 -5 -3 -10 1 -10 9
0 9 5 16 10 16 6 0 10 -4 10 -9z m377 -56 c14 -10 24 -12 28 -5 3 5 10 10 16
10 18 0 8 -23 -26 -61 -39 -43 -46 -89 -20 -123 8 -11 15 -26 15 -33 0 -15
-44 -63 -58 -63 -12 0 -26 111 -24 188 3 95 22 120 69 87z m-567 -14 c0 -10
-7 -24 -15 -31 -12 -10 -16 -9 -21 4 -3 9 -4 23 0 31 8 21 36 19 36 -4z m280
11 c0 -10 -22 -32 -32 -32 -5 0 -3 9 4 20 13 20 28 27 28 12z m-390 -11 c0
-17 -12 -41 -21 -41 -10 0 -12 33 -2 43 9 10 23 9 23 -2z m200 -16 c0 -10 -10
-15 -30 -15 -47 0 -35 27 13 29 9 1 17 -6 17 -14z m738 -22 c2 -11 -6 -31 -17
-44 l-20 -24 -1 41 c0 22 3 44 7 48 11 11 28 1 31 -21z m1451 -27 c19 -23 17
-155 -2 -174 -15 -14 -18 -11 -42 39 -36 79 -42 119 -20 136 24 17 50 17 64
-1z m-399 -35 c0 -10 -7 -24 -15 -31 -12 -10 -16 -9 -21 4 -6 16 11 46 27 46
5 0 9 -8 9 -19z m662 -18 c14 -16 50 -62 80 -103 29 -42 83 -105 119 -140 46
-45 76 -86 99 -135 18 -38 39 -75 46 -82 7 -7 15 -21 18 -31 3 -9 19 -23 36
-30 65 -29 137 -167 170 -325 58 -283 85 -654 78 -1102 -4 -266 -7 -308 -26
-375 -26 -92 -46 -233 -72 -517 -11 -120 -23 -226 -26 -235 -7 -22 -35 -23
-74 -3 -19 10 -34 30 -46 62 -9 27 -34 91 -55 143 -44 114 -55 166 -69 330 -6
69 -19 177 -29 240 -11 63 -22 140 -26 170 -3 30 -30 141 -60 245 -73 255 -87
318 -135 610 -72 431 -74 459 -93 1165 -2 93 6 140 26 140 7 0 25 -12 39 -27z
m-814 5 c-2 -6 -10 -14 -16 -16 -7 -2 -10 2 -6 12 7 18 28 22 22 4z m-2020
-37 c27 -48 27 -63 2 -86 -11 -10 -20 -22 -20 -27 0 -14 48 -9 54 7 11 29 41
13 51 -27 6 -23 2 -30 -27 -48 -19 -12 -50 -20 -75 -20 -37 0 -43 3 -49 24 -3
14 1 37 10 54 23 44 20 53 -10 46 l-25 -6 14 33 c28 66 40 89 47 89 3 0 16
-17 28 -39z m567 29 c-3 -5 -10 -10 -16 -10 -5 0 -9 5 -9 10 0 6 7 10 16 10 8
0 12 -4 9 -10z m125 -20 c0 -13 -26 -19 -41 -9 -12 8 -12 10 0 18 15 10 41 4
41 -9z m-360 -48 c0 -10 -22 -32 -32 -32 -4 0 -8 9 -8 20 0 13 7 20 20 20 11
0 20 -4 20 -8z m-460 -17 c9 -11 10 -22 3 -37 l-9 -21 -29 25 c-29 26 -28 48
4 48 10 0 24 -7 31 -15z m751 -18 c28 11 29 10 29 -20 0 -18 3 -41 6 -53 7
-27 -30 -44 -96 -44 -58 0 -100 17 -100 40 0 9 -5 21 -11 27 -6 6 -9 21 -7 34
3 21 7 24 44 21 28 -2 44 2 54 13 13 16 16 15 33 -6 16 -20 22 -22 48 -12z
m-451 -16 c14 -28 -3 -34 -28 -10 -27 24 -27 29 -2 29 10 0 24 -9 30 -19z m60
-5 c0 -8 -4 -17 -9 -21 -12 -7 -24 12 -16 25 9 15 25 12 25 -4z m1724 -24 c2
-4 1 -14 -4 -21 -10 -17 -31 -5 -23 14 6 16 19 20 27 7z m-2064 -47 c0 -8 -7
-15 -15 -15 -9 0 -12 6 -9 15 4 8 10 15 15 15 5 0 9 -7 9 -15z m940 -30 c18
-22 -3 -43 -57 -56 -52 -14 -125 -60 -147 -94 -19 -29 -31 -32 -40 -9 -8 22
11 54 34 54 16 0 18 5 13 35 -5 31 -3 36 22 45 16 6 35 8 42 6 7 -3 35 3 61
14 58 23 57 23 72 5z m138 -27 c4 -22 -21 -47 -56 -54 l-33 -7 6 39 c11 65 10
65 47 50 18 -8 34 -20 36 -28z m-1583 -8 c0 -7 -6 -15 -12 -17 -8 -3 -13 4
-13 17 0 13 5 20 13 18 6 -3 12 -11 12 -18z m503 -19 c3 -8 -1 -12 -9 -9 -7 2
-15 10 -17 17 -3 8 1 12 9 9 7 -2 15 -10 17 -17z m642 9 c0 -5 -4 -10 -10 -10
-5 0 -10 5 -10 10 0 6 5 10 10 10 6 0 10 -4 10 -10z m-1675 -50 c0 -18 -33
-26 -48 -11 -9 9 -8 14 3 21 21 14 45 8 45 -10z m1865 -39 c0 -12 -20 -25 -27
-18 -7 7 6 27 18 27 5 0 9 -4 9 -9z m200 -10 c0 -27 -31 -59 -60 -63 -21 -2
-26 2 -28 24 -3 22 2 27 27 33 17 4 33 11 36 16 10 16 25 10 25 -10z m-934
-57 c9 -35 -1 -43 -42 -34 -43 10 -59 23 -51 44 13 32 84 25 93 -10z m611
-178 c-4 -9 -11 -16 -17 -16 -15 0 -24 26 -16 47 6 15 8 15 23 1 9 -9 13 -24
10 -32z m3293 -321 c0 -8 -4 -17 -10 -20 -6 -4 -10 5 -10 20 0 15 4 24 10 20
6 -3 10 -12 10 -20z m-280 -3848 c0 -2 29 -83 65 -181 36 -98 65 -180 65 -182
0 -3 -12 -4 -27 -2 -22 2 -29 11 -43 53 l-17 50 -74 3 -75 3 -18 -56 c-14 -47
-21 -55 -42 -55 -13 0 -24 3 -24 7 0 3 30 86 67 185 65 173 67 178 95 178 15
0 28 -1 28 -3z"/>
<path d="M6527 985 l-26 -75 54 0 c30 0 55 4 55 9 0 12 -42 124 -50 134 -3 4
-18 -27 -33 -68z"/>
<path d="M3365 1750 c-98 -11 -148 -25 -244 -72 -67 -32 -100 -56 -160 -117
-117 -118 -176 -233 -213 -411 -27 -127 -21 -390 12 -520 89 -360 378 -574
737 -546 264 21 462 152 568 377 37 79 65 175 65 221 l0 29 -101 -3 -101 -3
-29 -92 c-81 -254 -271 -373 -529 -334 -192 30 -318 146 -387 356 -22 69 -27
102 -30 240 -6 187 14 308 66 419 110 229 374 331 636 244 109 -35 200 -131
241 -252 l16 -46 105 0 105 0 -7 38 c-21 116 -97 247 -189 328 -128 113 -345
169 -561 144z"/>
<path d="M7410 925 l0 -796 108 3 107 3 3 337 2 337 323 3 c312 3 324 4 380
27 180 74 291 295 257 514 -27 180 -134 300 -309 349 -58 16 -109 18 -468 18
l-403 0 0 -795z m809 592 c113 -44 156 -113 156 -252 0 -78 -4 -98 -26 -140
-15 -31 -41 -61 -66 -77 -73 -50 -132 -58 -405 -58 l-248 0 0 276 0 276 273
-4 c226 -4 280 -7 316 -21z"/>
<path d="M9149 1693 c-162 -427 -579 -1543 -579 -1552 0 -8 28 -11 107 -9
l107 3 85 237 86 238 315 0 315 0 80 -238 80 -237 119 -3 c93 -2 117 0 114 10
-3 7 -132 365 -288 796 l-284 782 -123 0 -123 0 -11 -27z m246 -556 c63 -186
115 -340 115 -342 0 -3 -111 -5 -246 -5 -230 0 -246 1 -239 18 3 9 58 156 120
327 132 360 126 347 131 343 2 -2 55 -156 119 -341z"/>
<path d="M10210 925 l0 -795 105 0 105 0 0 346 0 346 303 -5 c340 -6 371 -11
428 -68 54 -54 66 -108 79 -351 6 -113 15 -220 21 -237 l11 -32 131 3 c141 3
158 10 113 49 -46 40 -57 88 -67 304 -6 119 -16 221 -25 253 -17 62 -69 124
-128 154 l-41 21 30 21 c70 51 117 102 148 165 31 64 32 69 32 196 0 122 -2
134 -29 192 -34 75 -104 144 -180 179 -108 49 -158 54 -613 54 l-423 0 0 -795z
m902 582 c94 -46 132 -116 130 -244 0 -50 -7 -86 -22 -120 -28 -63 -51 -86
-113 -115 -50 -22 -62 -23 -369 -26 l-318 -3 0 271 0 271 318 -3 317 -3 57
-28z"/>
<path d="M11780 925 l0 -795 105 0 105 0 0 279 0 279 126 122 c70 67 130 118
134 113 3 -4 129 -185 280 -401 l273 -392 133 0 c75 0 134 4 134 9 0 5 -149
217 -331 471 -181 254 -329 467 -327 475 2 7 147 152 322 321 l319 309 -144 3
-143 3 -381 -381 c-209 -209 -383 -380 -388 -380 -4 0 -7 171 -7 380 l0 380
-105 0 -105 0 0 -795z"/>
<path d="M720 915 l0 -795 105 0 105 0 2 337 3 338 320 6 c335 5 347 7 436 55
90 50 174 169 199 285 19 84 9 240 -20 314 -29 74 -124 175 -197 206 -107 47
-126 49 -550 49 l-403 0 0 -795z m762 601 c114 -25 176 -84 198 -193 30 -140
-26 -262 -144 -315 -49 -22 -63 -23 -328 -26 l-278 -3 0 269 c0 148 3 272 7
275 13 14 475 7 545 -7z"/>
<path d="M2230 915 l0 -795 105 0 105 0 0 795 0 795 -105 0 -105 0 0 -795z"/>
<path d="M4400 915 l0 -796 103 3 102 3 5 280 5 280 123 119 123 118 236 -338
c129 -187 256 -367 280 -402 l44 -62 136 0 c108 0 134 3 130 13 -3 8 -155 222
-337 477 l-332 463 88 87 c49 47 197 190 329 318 l240 232 -150 0 -150 0 -382
-382 -383 -383 0 383 0 382 -105 0 -105 0 0 -795z"/>
</g>
</svg>
